<?xml version="1.0" encoding="UTF-8" standalone="no"?>
<!-- Created with Inkscape (http://www.inkscape.org/) -->

<svg
   xmlns:dc="http://purl.org/dc/elements/1.1/"
   xmlns:cc="http://creativecommons.org/ns#"
   xmlns:rdf="http://www.w3.org/1999/02/22-rdf-syntax-ns#"
   xmlns:svg="http://www.w3.org/2000/svg"
   xmlns="http://www.w3.org/2000/svg"
   xmlns:sodipodi="http://sodipodi.sourceforge.net/DTD/sodipodi-0.dtd"
   xmlns:inkscape="http://www.inkscape.org/namespaces/inkscape"
   width="1052.3622"
   height="744.09448"
   id="svg2"
   version="1.1"
   inkscape:version="0.48.4 r9939"
   sodipodi:docname="empty_tree_222.svg">
  <defs
     id="defs4" />
  <sodipodi:namedview
     id="base"
     pagecolor="#ffffff"
     bordercolor="#666666"
     borderopacity="1.0"
     inkscape:pageopacity="0.0"
     inkscape:pageshadow="2"
     inkscape:zoom="1.979899"
     inkscape:cx="506.88223"
     inkscape:cy="336.17264"
     inkscape:document-units="px"
     inkscape:current-layer="layer1"
     showgrid="true"
     inkscape:window-width="1918"
     inkscape:window-height="1152"
     inkscape:window-x="0"
     inkscape:window-y="0"
     inkscape:window-maximized="1">
    <inkscape:grid
       type="xygrid"
       id="grid3082"
       empspacing="5"
       visible="true"
       enabled="true"
       snapvisiblegridlinesonly="true" />
  </sodipodi:namedview>
  <metadata
     id="metadata7">
    <rdf:RDF>
      <cc:Work
         rdf:about="">
        <dc:format>image/svg+xml</dc:format>
        <dc:type
           rdf:resource="http://purl.org/dc/dcmitype/StillImage" />
        <dc:title></dc:title>
      </cc:Work>
    </rdf:RDF>
  </metadata>
  <g
     inkscape:label="Layer 1"
     inkscape:groupmode="layer"
     id="layer1"
     transform="translate(0,-308.2677)">
    <path
       sodipodi:type="arc"
       style="fill:#ffffff;stroke:#000000"
       id="path2985-9-6"
       sodipodi:cx="268.92856"
       sodipodi:cy="240.8802"
       sodipodi:rx="6.7857141"
       sodipodi:ry="6.7857141"
       d="m 275.71427,240.8802 a 6.7857141,6.7857141 0 1 1 -13.57143,0 6.7857141,6.7857141 0 1 1 13.57143,0 z"
       transform="matrix(1.0294118,0,0,1.0294118,-14.338231,496.89726)" />
    <path
       sodipodi:type="arc"
       style="fill:#ffffff;stroke:#000000"
       id="path2985-9-6-1"
       sodipodi:cx="268.92856"
       sodipodi:cy="240.8802"
       sodipodi:rx="6.7857141"
       sodipodi:ry="6.7857141"
       d="m 275.71427,240.8802 a 6.7857141,6.7857141 0 1 1 -13.57143,0 6.7857141,6.7857141 0 1 1 13.57143,0 z"
       transform="matrix(1.0294118,0,0,1.0294118,5.6617688,496.89726)" />
    <path
       sodipodi:type="arc"
       style="fill:#ffffff;stroke:#000000"
       id="path2985-9-6-1-9"
       sodipodi:cx="268.92856"
       sodipodi:cy="240.8802"
       sodipodi:rx="6.7857141"
       sodipodi:ry="6.7857141"
       d="m 275.71427,240.8802 a 6.7857141,6.7857141 0 1 1 -13.57143,0 6.7857141,6.7857141 0 1 1 13.57143,0 z"
       transform="matrix(1.0294118,0,0,1.0294118,-4.3382312,456.89726)" />
    <path
       style="fill:none;stroke:#000000;stroke-width:1px;stroke-linecap:butt;stroke-linejoin:miter;stroke-opacity:1"
       d="m 264.19458,429.81615 6.61084,-26.44333"
       id="path3495"
       inkscape:connector-type="polyline"
       inkscape:connector-curvature="0"
       inkscape:connection-start="#path2985-9-6"
       inkscape:connection-start-point="d4"
       inkscape:connection-end="#path2985-9-6-1-9"
       inkscape:connection-end-point="d4"
       transform="translate(0,308.2677)" />
    <path
       style="fill:none;stroke:#000000;stroke-width:1px;stroke-linecap:butt;stroke-linejoin:miter;stroke-opacity:1"
       d="m 280.80542,429.81615 -6.61084,-26.44333"
       id="path3497"
       inkscape:connector-type="polyline"
       inkscape:connector-curvature="0"
       inkscape:connection-start="#path2985-9-6-1"
       inkscape:connection-start-point="d4"
       inkscape:connection-end="#path2985-9-6-1-9"
       inkscape:connection-end-point="d4"
       transform="translate(0,308.2677)" />
    <path
       sodipodi:type="arc"
       style="fill:#ffffff;stroke:#000000"
       id="path2985-9-6-5"
       sodipodi:cx="268.92856"
       sodipodi:cy="240.8802"
       sodipodi:rx="6.7857141"
       sodipodi:ry="6.7857141"
       d="m 275.71427,240.8802 a 6.7857141,6.7857141 0 1 1 -13.57143,0 6.7857141,6.7857141 0 1 1 13.57143,0 z"
       transform="matrix(1.0294118,0,0,1.0294118,25.661769,496.89726)" />
    <path
       sodipodi:type="arc"
       style="fill:#ffffff;stroke:#000000"
       id="path2985-9-6-1-3"
       sodipodi:cx="268.92856"
       sodipodi:cy="240.8802"
       sodipodi:rx="6.7857141"
       sodipodi:ry="6.7857141"
       d="m 275.71427,240.8802 a 6.7857141,6.7857141 0 1 1 -13.57143,0 6.7857141,6.7857141 0 1 1 13.57143,0 z"
       transform="matrix(1.0294118,0,0,1.0294118,45.66177,496.89726)" />
    <path
       sodipodi:type="arc"
       style="fill:#ffffff;stroke:#000000"
       id="path2985-9-6-1-9-8"
       sodipodi:cx="268.92856"
       sodipodi:cy="240.8802"
       sodipodi:rx="6.7857141"
       sodipodi:ry="6.7857141"
       d="m 275.71427,240.8802 a 6.7857141,6.7857141 0 1 1 -13.57143,0 6.7857141,6.7857141 0 1 1 13.57143,0 z"
       transform="matrix(1.0294118,0,0,1.0294118,35.66177,456.89726)" />
    <path
       style="fill:none;stroke:#000000;stroke-width:1px;stroke-linecap:butt;stroke-linejoin:miter;stroke-opacity:1"
       d="m 304.19458,738.08385 6.61084,-26.44333"
       id="path3495-5"
       inkscape:connector-type="polyline"
       inkscape:connector-curvature="0"
       inkscape:connection-start="#path2985-9-6-5"
       inkscape:connection-start-point="d4"
       inkscape:connection-end="#path2985-9-6-1-9-8"
       inkscape:connection-end-point="d4" />
    <path
       style="fill:none;stroke:#000000;stroke-width:1px;stroke-linecap:butt;stroke-linejoin:miter;stroke-opacity:1"
       d="m 320.80542,738.08385 -6.61084,-26.44333"
       id="path3497-3"
       inkscape:connector-type="polyline"
       inkscape:connector-curvature="0"
       inkscape:connection-start="#path2985-9-6-1-3"
       inkscape:connection-start-point="d4"
       inkscape:connection-end="#path2985-9-6-1-9-8"
       inkscape:connection-end-point="d4" />
    <path
       sodipodi:type="arc"
       style="fill:#ffffff;stroke:#000000"
       id="path2985-9-6-1-9-8-7"
       sodipodi:cx="268.92856"
       sodipodi:cy="240.8802"
       sodipodi:rx="6.7857141"
       sodipodi:ry="6.7857141"
       d="m 275.71427,240.8802 a 6.7857141,6.7857141 0 1 1 -13.57143,0 6.7857141,6.7857141 0 1 1 13.57143,0 z"
       transform="matrix(1.0294118,0,0,1.0294118,15.661769,416.89726)" />
    <path
       style="fill:none;stroke:#000000;stroke-width:1px;stroke-linecap:butt;stroke-linejoin:miter;stroke-opacity:1"
       d="m 275.6246,390.34528 13.7508,-27.50159"
       id="path3665"
       inkscape:connector-type="polyline"
       inkscape:connector-curvature="0"
       inkscape:connection-start="#path2985-9-6-1-9"
       inkscape:connection-start-point="d4"
       inkscape:connection-end="#path2985-9-6-1-9-8-7"
       inkscape:connection-end-point="d4"
       transform="translate(0,308.2677)" />
    <path
       style="fill:none;stroke:#000000;stroke-width:1px;stroke-linecap:butt;stroke-linejoin:miter;stroke-opacity:1"
       d="M 309.3754,390.34528 295.6246,362.84369"
       id="path3667"
       inkscape:connector-type="polyline"
       inkscape:connector-curvature="0"
       inkscape:connection-start="#path2985-9-6-1-9-8"
       inkscape:connection-start-point="d4"
       inkscape:connection-end="#path2985-9-6-1-9-8-7"
       inkscape:connection-end-point="d4"
       transform="translate(0,308.2677)" />
    <path
       sodipodi:type="arc"
       style="fill:#ffffff;stroke:#000000"
       id="path2985-9-6-12"
       sodipodi:cx="268.92856"
       sodipodi:cy="240.8802"
       sodipodi:rx="6.7857141"
       sodipodi:ry="6.7857141"
       d="m 275.71427,240.8802 a 6.7857141,6.7857141 0 1 1 -13.57143,0 6.7857141,6.7857141 0 1 1 13.57143,0 z"
       transform="matrix(1.0294118,0,0,1.0294118,65.661769,496.89726)" />
    <path
       sodipodi:type="arc"
       style="fill:#ffffff;stroke:#000000"
       id="path2985-9-6-1-0"
       sodipodi:cx="268.92856"
       sodipodi:cy="240.8802"
       sodipodi:rx="6.7857141"
       sodipodi:ry="6.7857141"
       d="m 275.71427,240.8802 a 6.7857141,6.7857141 0 1 1 -13.57143,0 6.7857141,6.7857141 0 1 1 13.57143,0 z"
       transform="matrix(1.0294118,0,0,1.0294118,85.661769,496.89726)" />
    <path
       sodipodi:type="arc"
       style="fill:#ffffff;stroke:#000000"
       id="path2985-9-6-1-9-9"
       sodipodi:cx="268.92856"
       sodipodi:cy="240.8802"
       sodipodi:rx="6.7857141"
       sodipodi:ry="6.7857141"
       d="m 275.71427,240.8802 a 6.7857141,6.7857141 0 1 1 -13.57143,0 6.7857141,6.7857141 0 1 1 13.57143,0 z"
       transform="matrix(1.0294118,0,0,1.0294118,75.661769,456.89726)" />
    <path
       style="fill:none;stroke:#000000;stroke-width:1px;stroke-linecap:butt;stroke-linejoin:miter;stroke-opacity:1"
       d="m 344.19458,738.08385 6.61084,-26.44333"
       id="path3495-8"
       inkscape:connector-type="polyline"
       inkscape:connector-curvature="0"
       inkscape:connection-start="#path2985-9-6-12"
       inkscape:connection-start-point="d4"
       inkscape:connection-end="#path2985-9-6-1-9-9"
       inkscape:connection-end-point="d4" />
    <path
       style="fill:none;stroke:#000000;stroke-width:1px;stroke-linecap:butt;stroke-linejoin:miter;stroke-opacity:1"
       d="m 360.80542,738.08385 -6.61084,-26.44333"
       id="path3497-4"
       inkscape:connector-type="polyline"
       inkscape:connector-curvature="0"
       inkscape:connection-start="#path2985-9-6-1-0"
       inkscape:connection-start-point="d4"
       inkscape:connection-end="#path2985-9-6-1-9-9"
       inkscape:connection-end-point="d4" />
    <path
       sodipodi:type="arc"
       style="fill:#ffffff;stroke:#000000"
       id="path2985-9-6-5-0"
       sodipodi:cx="268.92856"
       sodipodi:cy="240.8802"
       sodipodi:rx="6.7857141"
       sodipodi:ry="6.7857141"
       d="m 275.71427,240.8802 a 6.7857141,6.7857141 0 1 1 -13.57143,0 6.7857141,6.7857141 0 1 1 13.57143,0 z"
       transform="matrix(1.0294118,0,0,1.0294118,105.66177,496.89726)" />
    <path
       sodipodi:type="arc"
       style="fill:#ffffff;stroke:#000000"
       id="path2985-9-6-1-3-1"
       sodipodi:cx="268.92856"
       sodipodi:cy="240.8802"
       sodipodi:rx="6.7857141"
       sodipodi:ry="6.7857141"
       d="m 275.71427,240.8802 a 6.7857141,6.7857141 0 1 1 -13.57143,0 6.7857141,6.7857141 0 1 1 13.57143,0 z"
       transform="matrix(1.0294118,0,0,1.0294118,125.66177,496.89726)" />
    <path
       sodipodi:type="arc"
       style="fill:#ffffff;stroke:#000000"
       id="path2985-9-6-1-9-8-4"
       sodipodi:cx="268.92856"
       sodipodi:cy="240.8802"
       sodipodi:rx="6.7857141"
       sodipodi:ry="6.7857141"
       d="m 275.71427,240.8802 a 6.7857141,6.7857141 0 1 1 -13.57143,0 6.7857141,6.7857141 0 1 1 13.57143,0 z"
       transform="matrix(1.0294118,0,0,1.0294118,115.66177,456.89726)" />
    <path
       style="fill:none;stroke:#000000;stroke-width:1px;stroke-linecap:butt;stroke-linejoin:miter;stroke-opacity:1"
       d="m 384.19458,738.08385 6.61084,-26.44333"
       id="path3495-5-4"
       inkscape:connector-type="polyline"
       inkscape:connector-curvature="0"
       inkscape:connection-start="#path2985-9-6-5-0"
       inkscape:connection-start-point="d4"
       inkscape:connection-end="#path2985-9-6-1-9-8-4"
       inkscape:connection-end-point="d4" />
    <path
       style="fill:none;stroke:#000000;stroke-width:1px;stroke-linecap:butt;stroke-linejoin:miter;stroke-opacity:1"
       d="m 400.80542,738.08385 -6.61084,-26.44333"
       id="path3497-3-0"
       inkscape:connector-type="polyline"
       inkscape:connector-curvature="0"
       inkscape:connection-start="#path2985-9-6-1-3-1"
       inkscape:connection-start-point="d4"
       inkscape:connection-end="#path2985-9-6-1-9-8-4"
       inkscape:connection-end-point="d4" />
    <path
       sodipodi:type="arc"
       style="fill:#ffffff;stroke:#000000"
       id="path2985-9-6-1-9-8-7-1"
       sodipodi:cx="268.92856"
       sodipodi:cy="240.8802"
       sodipodi:rx="6.7857141"
       sodipodi:ry="6.7857141"
       d="m 275.71427,240.8802 a 6.7857141,6.7857141 0 1 1 -13.57143,0 6.7857141,6.7857141 0 1 1 13.57143,0 z"
       transform="matrix(1.0294118,0,0,1.0294118,95.661769,416.89726)" />
    <path
       style="fill:none;stroke:#000000;stroke-width:1px;stroke-linecap:butt;stroke-linejoin:miter;stroke-opacity:1"
       d="m 355.6246,698.61298 13.7508,-27.50159"
       id="path3665-3"
       inkscape:connector-type="polyline"
       inkscape:connector-curvature="0"
       inkscape:connection-start="#path2985-9-6-1-9-9"
       inkscape:connection-start-point="d4"
       inkscape:connection-end="#path2985-9-6-1-9-8-7-1"
       inkscape:connection-end-point="d4" />
    <path
       style="fill:none;stroke:#000000;stroke-width:1px;stroke-linecap:butt;stroke-linejoin:miter;stroke-opacity:1"
       d="M 389.3754,698.61298 375.6246,671.11139"
       id="path3667-2"
       inkscape:connector-type="polyline"
       inkscape:connector-curvature="0"
       inkscape:connection-start="#path2985-9-6-1-9-8-4"
       inkscape:connection-start-point="d4"
       inkscape:connection-end="#path2985-9-6-1-9-8-7-1"
       inkscape:connection-end-point="d4" />
    <path
       sodipodi:type="arc"
       style="fill:#ffffff;stroke:#000000"
       id="path2985-9-6-1-9-8-7-1-7"
       sodipodi:cx="268.92856"
       sodipodi:cy="240.8802"
       sodipodi:rx="6.7857141"
       sodipodi:ry="6.7857141"
       d="m 275.71427,240.8802 a 6.7857141,6.7857141 0 1 1 -13.57143,0 6.7857141,6.7857141 0 1 1 13.57143,0 z"
       transform="matrix(1.0294118,0,0,1.0294118,55.661769,376.89726)" />
    <path
       style="fill:none;stroke:#000000;stroke-width:1px;stroke-linecap:butt;stroke-linejoin:miter;stroke-opacity:1"
       d="m 297.43935,351.65513 30.1213,-30.1213"
       id="path3741"
       inkscape:connector-type="polyline"
       inkscape:connector-curvature="0"
       inkscape:connection-start="#path2985-9-6-1-9-8-7"
       inkscape:connection-start-point="d4"
       inkscape:connection-end="#path2985-9-6-1-9-8-7-1-7"
       inkscape:connection-end-point="d4"
       transform="translate(0,308.2677)" />
    <path
       style="fill:none;stroke:#000000;stroke-width:1px;stroke-linecap:butt;stroke-linejoin:miter;stroke-opacity:1"
       d="m 367.56065,351.65513 -30.1213,-30.1213"
       id="path3743"
       inkscape:connector-type="polyline"
       inkscape:connector-curvature="0"
       inkscape:connection-start="#path2985-9-6-1-9-8-7-1"
       inkscape:connection-start-point="d4"
       inkscape:connection-end="#path2985-9-6-1-9-8-7-1-7"
       inkscape:connection-end-point="d4"
       transform="translate(0,308.2677)" />
  </g>
</svg>
