<?xml version="1.0" encoding="UTF-8" standalone="no"?>
<!-- Created with Inkscape (http://www.inkscape.org/) -->

<svg
   xmlns:dc="http://purl.org/dc/elements/1.1/"
   xmlns:cc="http://creativecommons.org/ns#"
   xmlns:rdf="http://www.w3.org/1999/02/22-rdf-syntax-ns#"
   xmlns:svg="http://www.w3.org/2000/svg"
   xmlns="http://www.w3.org/2000/svg"
   xmlns:sodipodi="http://sodipodi.sourceforge.net/DTD/sodipodi-0.dtd"
   xmlns:inkscape="http://www.inkscape.org/namespaces/inkscape"
   width="1052.3622"
   height="744.09448"
   id="svg2"
   version="1.1"
   inkscape:version="0.48.4 r9939"
   sodipodi:docname="New document 1">
  <defs
     id="defs4" />
  <sodipodi:namedview
     id="base"
     pagecolor="#ffffff"
     bordercolor="#666666"
     borderopacity="1.0"
     inkscape:pageopacity="0.0"
     inkscape:pageshadow="2"
     inkscape:zoom="1.979899"
     inkscape:cx="506.88223"
     inkscape:cy="336.17264"
     inkscape:document-units="px"
     inkscape:current-layer="layer1"
     showgrid="true"
     inkscape:window-width="1918"
     inkscape:window-height="1152"
     inkscape:window-x="0"
     inkscape:window-y="0"
     inkscape:window-maximized="1">
    <inkscape:grid
       type="xygrid"
       id="grid3082"
       empspacing="5"
       visible="true"
       enabled="true"
       snapvisiblegridlinesonly="true" />
  </sodipodi:namedview>
  <metadata
     id="metadata7">
    <rdf:RDF>
      <cc:Work
         rdf:about="">
        <dc:format>image/svg+xml</dc:format>
        <dc:type
           rdf:resource="http://purl.org/dc/dcmitype/StillImage" />
        <dc:title></dc:title>
      </cc:Work>
    </rdf:RDF>
  </metadata>
  <g
     inkscape:label="Layer 1"
     inkscape:groupmode="layer"
     id="layer1"
     transform="translate(0,-308.2677)">
    <path
       sodipodi:type="arc"
       style="fill:#ffffff;stroke:#000000"
       id="path2985-9-6"
       sodipodi:cx="268.92856"
       sodipodi:cy="240.8802"
       sodipodi:rx="6.7857141"
       sodipodi:ry="6.7857141"
       d="m 275.71427,240.8802 a 6.7857141,6.7857141 0 1 1 -13.57143,0 6.7857141,6.7857141 0 1 1 13.57143,0 z"
       transform="matrix(1.0294118,0,0,1.0294118,-14.338231,496.89726)" />
    <path
       sodipodi:type="arc"
       style="fill:#ffffff;stroke:#000000"
       id="path2985-9-6-1"
       sodipodi:cx="268.92856"
       sodipodi:cy="240.8802"
       sodipodi:rx="6.7857141"
       sodipodi:ry="6.7857141"
       d="m 275.71427,240.8802 a 6.7857141,6.7857141 0 1 1 -13.57143,0 6.7857141,6.7857141 0 1 1 13.57143,0 z"
       transform="matrix(1.0294118,0,0,1.0294118,5.6617688,496.89726)" />
    <path
       sodipodi:type="arc"
       style="fill:#ffffff;stroke:#000000"
       id="path2985-9-6-3"
       sodipodi:cx="268.92856"
       sodipodi:cy="240.8802"
       sodipodi:rx="6.7857141"
       sodipodi:ry="6.7857141"
       d="m 275.71427,240.8802 a 6.7857141,6.7857141 0 1 1 -13.57143,0 6.7857141,6.7857141 0 1 1 13.57143,0 z"
       transform="matrix(1.0294118,0,0,1.0294118,25.661769,496.89726)" />
    <path
       sodipodi:type="arc"
       style="fill:#ffffff;stroke:#000000"
       id="path2985-9-6-7"
       sodipodi:cx="268.92856"
       sodipodi:cy="240.8802"
       sodipodi:rx="6.7857141"
       sodipodi:ry="6.7857141"
       d="m 275.71427,240.8802 a 6.7857141,6.7857141 0 1 1 -13.57143,0 6.7857141,6.7857141 0 1 1 13.57143,0 z"
       transform="matrix(1.0294118,0,0,1.0294118,45.661769,496.89726)" />
    <path
       sodipodi:type="arc"
       style="fill:#ffffff;stroke:#000000"
       id="path2985-9-6-6"
       sodipodi:cx="268.92856"
       sodipodi:cy="240.8802"
       sodipodi:rx="6.7857141"
       sodipodi:ry="6.7857141"
       d="m 275.71427,240.8802 a 6.7857141,6.7857141 0 1 1 -13.57143,0 6.7857141,6.7857141 0 1 1 13.57143,0 z"
       transform="matrix(1.0294118,0,0,1.0294118,65.661769,496.89726)" />
    <path
       sodipodi:type="arc"
       style="fill:#ffffff;stroke:#000000"
       id="path2985-9-6-6-0"
       sodipodi:cx="268.92856"
       sodipodi:cy="240.8802"
       sodipodi:rx="6.7857141"
       sodipodi:ry="6.7857141"
       d="m 275.71427,240.8802 a 6.7857141,6.7857141 0 1 1 -13.57143,0 6.7857141,6.7857141 0 1 1 13.57143,0 z"
       transform="matrix(1.0294118,0,0,1.0294118,85.661769,496.89726)" />
    <path
       sodipodi:type="arc"
       style="fill:#ffffff;stroke:#000000"
       id="path2985-9-6-6-3"
       sodipodi:cx="268.92856"
       sodipodi:cy="240.8802"
       sodipodi:rx="6.7857141"
       sodipodi:ry="6.7857141"
       d="m 275.71427,240.8802 a 6.7857141,6.7857141 0 1 1 -13.57143,0 6.7857141,6.7857141 0 1 1 13.57143,0 z"
       transform="matrix(1.0294118,0,0,1.0294118,125.66177,496.89726)" />
    <path
       sodipodi:type="arc"
       style="fill:#ffffff;stroke:#000000"
       id="path2985-9-6-6-35"
       sodipodi:cx="268.92856"
       sodipodi:cy="240.8802"
       sodipodi:rx="6.7857141"
       sodipodi:ry="6.7857141"
       d="m 275.71427,240.8802 a 6.7857141,6.7857141 0 1 1 -13.57143,0 6.7857141,6.7857141 0 1 1 13.57143,0 z"
       transform="matrix(1.0294118,0,0,1.0294118,105.66177,496.89726)" />
    <path
       sodipodi:type="arc"
       style="fill:#ffffff;stroke:#000000"
       id="path2985-9-6-6-4"
       sodipodi:cx="268.92856"
       sodipodi:cy="240.8802"
       sodipodi:rx="6.7857141"
       sodipodi:ry="6.7857141"
       d="m 275.71427,240.8802 a 6.7857141,6.7857141 0 1 1 -13.57143,0 6.7857141,6.7857141 0 1 1 13.57143,0 z"
       transform="matrix(1.0294118,0,0,1.0294118,145.66177,496.89726)" />
    <path
       sodipodi:type="arc"
       style="fill:#ffffff;stroke:#000000"
       id="path2985-9-6-6-1"
       sodipodi:cx="268.92856"
       sodipodi:cy="240.8802"
       sodipodi:rx="6.7857141"
       sodipodi:ry="6.7857141"
       d="m 275.71427,240.8802 a 6.7857141,6.7857141 0 1 1 -13.57143,0 6.7857141,6.7857141 0 1 1 13.57143,0 z"
       transform="matrix(1.0294118,0,0,1.0294118,205.66177,496.89726)" />
    <path
       sodipodi:type="arc"
       style="fill:#ffffff;stroke:#000000"
       id="path2985-9-6-6-46"
       sodipodi:cx="268.92856"
       sodipodi:cy="240.8802"
       sodipodi:rx="6.7857141"
       sodipodi:ry="6.7857141"
       d="m 275.71427,240.8802 a 6.7857141,6.7857141 0 1 1 -13.57143,0 6.7857141,6.7857141 0 1 1 13.57143,0 z"
       transform="matrix(1.0294118,0,0,1.0294118,165.66177,496.89726)" />
    <path
       sodipodi:type="arc"
       style="fill:#ffffff;stroke:#000000"
       id="path2985-9-6-6-2"
       sodipodi:cx="268.92856"
       sodipodi:cy="240.8802"
       sodipodi:rx="6.7857141"
       sodipodi:ry="6.7857141"
       d="m 275.71427,240.8802 a 6.7857141,6.7857141 0 1 1 -13.57143,0 6.7857141,6.7857141 0 1 1 13.57143,0 z"
       transform="matrix(1.0294118,0,0,1.0294118,185.66177,496.89726)" />
    <path
       sodipodi:type="arc"
       style="fill:#ffffff;stroke:#000000"
       id="path2985-9-6-6-1-1"
       sodipodi:cx="268.92856"
       sodipodi:cy="240.8802"
       sodipodi:rx="6.7857141"
       sodipodi:ry="6.7857141"
       d="m 275.71427,240.8802 a 6.7857141,6.7857141 0 1 1 -13.57143,0 6.7857141,6.7857141 0 1 1 13.57143,0 z"
       transform="matrix(1.0294118,0,0,1.0294118,225.66177,496.89726)" />
    <path
       sodipodi:type="arc"
       style="fill:#ffffff;stroke:#000000"
       id="path2985-9-6-6-1-7"
       sodipodi:cx="268.92856"
       sodipodi:cy="240.8802"
       sodipodi:rx="6.7857141"
       sodipodi:ry="6.7857141"
       d="m 275.71427,240.8802 a 6.7857141,6.7857141 0 1 1 -13.57143,0 6.7857141,6.7857141 0 1 1 13.57143,0 z"
       transform="matrix(1.0294118,0,0,1.0294118,245.66177,496.89726)" />
    <path
       sodipodi:type="arc"
       style="fill:#ffffff;stroke:#000000"
       id="path2985-9-6-6-1-0"
       sodipodi:cx="268.92856"
       sodipodi:cy="240.8802"
       sodipodi:rx="6.7857141"
       sodipodi:ry="6.7857141"
       d="m 275.71427,240.8802 a 6.7857141,6.7857141 0 1 1 -13.57143,0 6.7857141,6.7857141 0 1 1 13.57143,0 z"
       transform="matrix(1.0294118,0,0,1.0294118,265.66177,496.89726)" />
    <path
       sodipodi:type="arc"
       style="fill:#ffffff;stroke:#000000"
       id="path2985-9-6-6-1-8"
       sodipodi:cx="268.92856"
       sodipodi:cy="240.8802"
       sodipodi:rx="6.7857141"
       sodipodi:ry="6.7857141"
       d="m 275.71427,240.8802 a 6.7857141,6.7857141 0 1 1 -13.57143,0 6.7857141,6.7857141 0 1 1 13.57143,0 z"
       transform="matrix(1.0294118,0,0,1.0294118,285.66177,496.89726)" />
    <path
       sodipodi:type="arc"
       style="fill:#ffffff;stroke:#000000"
       id="path2985-9-6-6-1-01"
       sodipodi:cx="268.92856"
       sodipodi:cy="240.8802"
       sodipodi:rx="6.7857141"
       sodipodi:ry="6.7857141"
       d="m 275.71427,240.8802 a 6.7857141,6.7857141 0 1 1 -13.57143,0 6.7857141,6.7857141 0 1 1 13.57143,0 z"
       transform="matrix(1.0294118,0,0,1.0294118,305.66177,496.89726)" />
    <path
       sodipodi:type="arc"
       style="fill:#ffffff;stroke:#000000"
       id="path2985-9-6-6-1-85"
       sodipodi:cx="268.92856"
       sodipodi:cy="240.8802"
       sodipodi:rx="6.7857141"
       sodipodi:ry="6.7857141"
       d="m 275.71427,240.8802 a 6.7857141,6.7857141 0 1 1 -13.57143,0 6.7857141,6.7857141 0 1 1 13.57143,0 z"
       transform="matrix(1.0294118,0,0,1.0294118,325.66177,496.89726)" />
    <path
       sodipodi:type="arc"
       style="fill:#ffffff;stroke:#000000"
       id="path2985-9-6-6-1-2"
       sodipodi:cx="268.92856"
       sodipodi:cy="240.8802"
       sodipodi:rx="6.7857141"
       sodipodi:ry="6.7857141"
       d="m 275.71427,240.8802 a 6.7857141,6.7857141 0 1 1 -13.57143,0 6.7857141,6.7857141 0 1 1 13.57143,0 z"
       transform="matrix(1.0294118,0,0,1.0294118,345.66177,496.89726)" />
    <path
       sodipodi:type="arc"
       style="fill:#ffffff;stroke:#000000"
       id="path2985-9-6-6-1-3"
       sodipodi:cx="268.92856"
       sodipodi:cy="240.8802"
       sodipodi:rx="6.7857141"
       sodipodi:ry="6.7857141"
       d="m 275.71427,240.8802 a 6.7857141,6.7857141 0 1 1 -13.57143,0 6.7857141,6.7857141 0 1 1 13.57143,0 z"
       transform="matrix(1.0294118,0,0,1.0294118,365.66177,496.89726)" />
    <path
       sodipodi:type="arc"
       style="fill:#ffffff;stroke:#000000"
       id="path2985-9-6-6-1-9"
       sodipodi:cx="268.92856"
       sodipodi:cy="240.8802"
       sodipodi:rx="6.7857141"
       sodipodi:ry="6.7857141"
       d="m 275.71427,240.8802 a 6.7857141,6.7857141 0 1 1 -13.57143,0 6.7857141,6.7857141 0 1 1 13.57143,0 z"
       transform="matrix(1.0294118,0,0,1.0294118,385.66177,496.89726)" />
    <path
       sodipodi:type="arc"
       style="fill:#ffffff;stroke:#000000"
       id="path2985-9-6-6-1-08"
       sodipodi:cx="268.92856"
       sodipodi:cy="240.8802"
       sodipodi:rx="6.7857141"
       sodipodi:ry="6.7857141"
       d="m 275.71427,240.8802 a 6.7857141,6.7857141 0 1 1 -13.57143,0 6.7857141,6.7857141 0 1 1 13.57143,0 z"
       transform="matrix(1.0294118,0,0,1.0294118,405.66177,496.89726)" />
    <path
       sodipodi:type="arc"
       style="fill:#ffffff;stroke:#000000"
       id="path2985-9-6-6-1-6"
       sodipodi:cx="268.92856"
       sodipodi:cy="240.8802"
       sodipodi:rx="6.7857141"
       sodipodi:ry="6.7857141"
       d="m 275.71427,240.8802 a 6.7857141,6.7857141 0 1 1 -13.57143,0 6.7857141,6.7857141 0 1 1 13.57143,0 z"
       transform="matrix(1.0294118,0,0,1.0294118,425.66177,496.89726)" />
    <path
       sodipodi:type="arc"
       style="fill:#ffffff;stroke:#000000"
       id="path2985-9-6-6-1-61"
       sodipodi:cx="268.92856"
       sodipodi:cy="240.8802"
       sodipodi:rx="6.7857141"
       sodipodi:ry="6.7857141"
       d="m 275.71427,240.8802 a 6.7857141,6.7857141 0 1 1 -13.57143,0 6.7857141,6.7857141 0 1 1 13.57143,0 z"
       transform="matrix(1.0294118,0,0,1.0294118,445.66177,496.89726)" />
    <path
       sodipodi:type="arc"
       style="fill:#ffffff;stroke:#000000"
       id="path2985-9-6-6-1-66"
       sodipodi:cx="268.92856"
       sodipodi:cy="240.8802"
       sodipodi:rx="6.7857141"
       sodipodi:ry="6.7857141"
       d="m 275.71427,240.8802 a 6.7857141,6.7857141 0 1 1 -13.57143,0 6.7857141,6.7857141 0 1 1 13.57143,0 z"
       transform="matrix(1.0294118,0,0,1.0294118,465.66177,496.89726)" />
    <path
       sodipodi:type="arc"
       style="fill:#ffffff;stroke:#000000"
       id="path2985-9-6-6-1-21"
       sodipodi:cx="268.92856"
       sodipodi:cy="240.8802"
       sodipodi:rx="6.7857141"
       sodipodi:ry="6.7857141"
       d="m 275.71427,240.8802 a 6.7857141,6.7857141 0 1 1 -13.57143,0 6.7857141,6.7857141 0 1 1 13.57143,0 z"
       transform="matrix(1.0294118,0,0,1.0294118,485.66177,496.89726)" />
    <path
       sodipodi:type="arc"
       style="fill:#ffffff;stroke:#000000"
       id="path2985-9-6-6-1-30"
       sodipodi:cx="268.92856"
       sodipodi:cy="240.8802"
       sodipodi:rx="6.7857141"
       sodipodi:ry="6.7857141"
       d="m 275.71427,240.8802 a 6.7857141,6.7857141 0 1 1 -13.57143,0 6.7857141,6.7857141 0 1 1 13.57143,0 z"
       transform="matrix(1.0294118,0,0,1.0294118,505.66177,496.89726)" />
    <path
       sodipodi:type="arc"
       style="fill:#ffffff;stroke:#000000"
       id="path2985-9-6-1-9"
       sodipodi:cx="268.92856"
       sodipodi:cy="240.8802"
       sodipodi:rx="6.7857141"
       sodipodi:ry="6.7857141"
       d="m 275.71427,240.8802 a 6.7857141,6.7857141 0 1 1 -13.57143,0 6.7857141,6.7857141 0 1 1 13.57143,0 z"
       transform="matrix(1.0294118,0,0,1.0294118,5.6617688,456.89726)" />
    <path
       sodipodi:type="arc"
       style="fill:#ffffff;stroke:#000000"
       id="path2985-9-6-1-9-2"
       sodipodi:cx="268.92856"
       sodipodi:cy="240.8802"
       sodipodi:rx="6.7857141"
       sodipodi:ry="6.7857141"
       d="m 275.71427,240.8802 a 6.7857141,6.7857141 0 1 1 -13.57143,0 6.7857141,6.7857141 0 1 1 13.57143,0 z"
       transform="matrix(1.0294118,0,0,1.0294118,65.661769,456.89726)" />
    <path
       sodipodi:type="arc"
       style="fill:#ffffff;stroke:#000000"
       id="path2985-9-6-1-9-6"
       sodipodi:cx="268.92856"
       sodipodi:cy="240.8802"
       sodipodi:rx="6.7857141"
       sodipodi:ry="6.7857141"
       d="m 275.71427,240.8802 a 6.7857141,6.7857141 0 1 1 -13.57143,0 6.7857141,6.7857141 0 1 1 13.57143,0 z"
       transform="matrix(1.0294118,0,0,1.0294118,125.66177,456.89726)" />
    <path
       sodipodi:type="arc"
       style="fill:#ffffff;stroke:#000000"
       id="path2985-9-6-1-9-6-3"
       sodipodi:cx="268.92856"
       sodipodi:cy="240.8802"
       sodipodi:rx="6.7857141"
       sodipodi:ry="6.7857141"
       d="m 275.71427,240.8802 a 6.7857141,6.7857141 0 1 1 -13.57143,0 6.7857141,6.7857141 0 1 1 13.57143,0 z"
       transform="matrix(1.0294118,0,0,1.0294118,65.661769,416.89726)" />
    <path
       sodipodi:type="arc"
       style="fill:#ffffff;stroke:#000000"
       id="path2985-9-6-1-9-6-3-8"
       sodipodi:cx="268.92856"
       sodipodi:cy="240.8802"
       sodipodi:rx="6.7857141"
       sodipodi:ry="6.7857141"
       d="m 275.71427,240.8802 a 6.7857141,6.7857141 0 1 1 -13.57143,0 6.7857141,6.7857141 0 1 1 13.57143,0 z"
       transform="matrix(1.0294118,0,0,1.0294118,245.66177,376.89726)" />
    <path
       sodipodi:type="arc"
       style="fill:#ffffff;stroke:#000000"
       id="path2985-9-6-1-9-0"
       sodipodi:cx="268.92856"
       sodipodi:cy="240.8802"
       sodipodi:rx="6.7857141"
       sodipodi:ry="6.7857141"
       d="m 275.71427,240.8802 a 6.7857141,6.7857141 0 1 1 -13.57143,0 6.7857141,6.7857141 0 1 1 13.57143,0 z"
       transform="matrix(1.0294118,0,0,1.0294118,185.66177,456.89726)" />
    <path
       sodipodi:type="arc"
       style="fill:#ffffff;stroke:#000000"
       id="path2985-9-6-1-9-2-4"
       sodipodi:cx="268.92856"
       sodipodi:cy="240.8802"
       sodipodi:rx="6.7857141"
       sodipodi:ry="6.7857141"
       d="m 275.71427,240.8802 a 6.7857141,6.7857141 0 1 1 -13.57143,0 6.7857141,6.7857141 0 1 1 13.57143,0 z"
       transform="matrix(1.0294118,0,0,1.0294118,245.66177,456.89726)" />
    <path
       sodipodi:type="arc"
       style="fill:#ffffff;stroke:#000000"
       id="path2985-9-6-1-9-6-6"
       sodipodi:cx="268.92856"
       sodipodi:cy="240.8802"
       sodipodi:rx="6.7857141"
       sodipodi:ry="6.7857141"
       d="m 275.71427,240.8802 a 6.7857141,6.7857141 0 1 1 -13.57143,0 6.7857141,6.7857141 0 1 1 13.57143,0 z"
       transform="matrix(1.0294118,0,0,1.0294118,305.66177,456.89726)" />
    <path
       sodipodi:type="arc"
       style="fill:#ffffff;stroke:#000000"
       id="path2985-9-6-1-9-6-3-0"
       sodipodi:cx="268.92856"
       sodipodi:cy="240.8802"
       sodipodi:rx="6.7857141"
       sodipodi:ry="6.7857141"
       d="m 275.71427,240.8802 a 6.7857141,6.7857141 0 1 1 -13.57143,0 6.7857141,6.7857141 0 1 1 13.57143,0 z"
       transform="matrix(1.0294118,0,0,1.0294118,245.66177,416.89726)" />
    <path
       sodipodi:type="arc"
       style="fill:#ffffff;stroke:#000000"
       id="path2985-9-6-1-9-5"
       sodipodi:cx="268.92856"
       sodipodi:cy="240.8802"
       sodipodi:rx="6.7857141"
       sodipodi:ry="6.7857141"
       d="m 275.71427,240.8802 a 6.7857141,6.7857141 0 1 1 -13.57143,0 6.7857141,6.7857141 0 1 1 13.57143,0 z"
       transform="matrix(1.0294118,0,0,1.0294118,365.66177,456.89726)" />
    <path
       sodipodi:type="arc"
       style="fill:#ffffff;stroke:#000000"
       id="path2985-9-6-1-9-2-8"
       sodipodi:cx="268.92856"
       sodipodi:cy="240.8802"
       sodipodi:rx="6.7857141"
       sodipodi:ry="6.7857141"
       d="m 275.71427,240.8802 a 6.7857141,6.7857141 0 1 1 -13.57143,0 6.7857141,6.7857141 0 1 1 13.57143,0 z"
       transform="matrix(1.0294118,0,0,1.0294118,425.66177,456.89726)" />
    <path
       sodipodi:type="arc"
       style="fill:#ffffff;stroke:#000000"
       id="path2985-9-6-1-9-6-1"
       sodipodi:cx="268.92856"
       sodipodi:cy="240.8802"
       sodipodi:rx="6.7857141"
       sodipodi:ry="6.7857141"
       d="m 275.71427,240.8802 a 6.7857141,6.7857141 0 1 1 -13.57143,0 6.7857141,6.7857141 0 1 1 13.57143,0 z"
       transform="matrix(1.0294118,0,0,1.0294118,485.66177,456.89726)" />
    <path
       sodipodi:type="arc"
       style="fill:#ffffff;stroke:#000000"
       id="path2985-9-6-1-9-6-3-3"
       sodipodi:cx="268.92856"
       sodipodi:cy="240.8802"
       sodipodi:rx="6.7857141"
       sodipodi:ry="6.7857141"
       d="m 275.71427,240.8802 a 6.7857141,6.7857141 0 1 1 -13.57143,0 6.7857141,6.7857141 0 1 1 13.57143,0 z"
       transform="matrix(1.0294118,0,0,1.0294118,425.66177,416.89726)" />
    <path
       style="fill:none;stroke:#000000;stroke-width:1px;stroke-linecap:butt;stroke-linejoin:miter;stroke-opacity:1"
       d="m 265.6246,430.34528 13.7508,-27.50159"
       id="path3495"
       inkscape:connector-type="polyline"
       inkscape:connector-curvature="0"
       inkscape:connection-start="#path2985-9-6"
       inkscape:connection-start-point="d4"
       inkscape:connection-end="#path2985-9-6-1-9"
       inkscape:connection-end-point="d4"
       transform="translate(0,308.2677)" />
    <path
       style="fill:none;stroke:#000000;stroke-width:1px;stroke-linecap:butt;stroke-linejoin:miter;stroke-opacity:1"
       d="m 282.5,429.60919 0,-26.02941"
       id="path3497"
       inkscape:connector-type="polyline"
       inkscape:connector-curvature="0"
       inkscape:connection-start="#path2985-9-6-1"
       inkscape:connection-start-point="d4"
       inkscape:connection-end="#path2985-9-6-1-9"
       inkscape:connection-end-point="d4"
       transform="translate(0,308.2677)" />
    <path
       style="fill:none;stroke:#000000;stroke-width:1px;stroke-linecap:butt;stroke-linejoin:miter;stroke-opacity:1"
       d="M 299.3754,430.34528 285.6246,402.84369"
       id="path3499"
       inkscape:connector-type="polyline"
       inkscape:connector-curvature="0"
       inkscape:connection-start="#path2985-9-6-3"
       inkscape:connection-start-point="d4"
       inkscape:connection-end="#path2985-9-6-1-9"
       inkscape:connection-end-point="d4"
       transform="translate(0,308.2677)" />
    <path
       style="fill:none;stroke:#000000;stroke-width:1px;stroke-linecap:butt;stroke-linejoin:miter;stroke-opacity:1"
       d="m 325.6246,430.34528 13.7508,-27.50159"
       id="path3501"
       inkscape:connector-type="polyline"
       inkscape:connector-curvature="0"
       inkscape:connection-start="#path2985-9-6-7"
       inkscape:connection-start-point="d4"
       inkscape:connection-end="#path2985-9-6-1-9-2"
       inkscape:connection-end-point="d4"
       transform="translate(0,308.2677)" />
    <path
       style="fill:none;stroke:#000000;stroke-width:1px;stroke-linecap:butt;stroke-linejoin:miter;stroke-opacity:1"
       d="m 342.5,429.60919 0,-26.02941"
       id="path3503"
       inkscape:connector-type="polyline"
       inkscape:connector-curvature="0"
       inkscape:connection-start="#path2985-9-6-6"
       inkscape:connection-start-point="d4"
       inkscape:connection-end="#path2985-9-6-1-9-2"
       inkscape:connection-end-point="d4"
       transform="translate(0,308.2677)" />
    <path
       style="fill:none;stroke:#000000;stroke-width:1px;stroke-linecap:butt;stroke-linejoin:miter;stroke-opacity:1"
       d="M 359.3754,430.34528 345.6246,402.84369"
       id="path3505"
       inkscape:connector-type="polyline"
       inkscape:connector-curvature="0"
       inkscape:connection-start="#path2985-9-6-6-0"
       inkscape:connection-start-point="d4"
       inkscape:connection-end="#path2985-9-6-1-9-2"
       inkscape:connection-end-point="d4"
       transform="translate(0,308.2677)" />
    <path
       style="fill:none;stroke:#000000;stroke-width:1px;stroke-linecap:butt;stroke-linejoin:miter;stroke-opacity:1"
       d="m 385.6246,430.34528 13.7508,-27.50159"
       id="path3507"
       inkscape:connector-type="polyline"
       inkscape:connector-curvature="0"
       inkscape:connection-start="#path2985-9-6-6-35"
       inkscape:connection-start-point="d4"
       inkscape:connection-end="#path2985-9-6-1-9-6"
       inkscape:connection-end-point="d4"
       transform="translate(0,308.2677)" />
    <path
       style="fill:none;stroke:#000000;stroke-width:1px;stroke-linecap:butt;stroke-linejoin:miter;stroke-opacity:1"
       d="m 402.5,429.60919 0,-26.02941"
       id="path3509"
       inkscape:connector-type="polyline"
       inkscape:connector-curvature="0"
       inkscape:connection-start="#path2985-9-6-6-3"
       inkscape:connection-start-point="d4"
       inkscape:connection-end="#path2985-9-6-1-9-6"
       inkscape:connection-end-point="d4"
       transform="translate(0,308.2677)" />
    <path
       style="fill:none;stroke:#000000;stroke-width:1px;stroke-linecap:butt;stroke-linejoin:miter;stroke-opacity:1"
       d="M 419.3754,430.34528 405.6246,402.84369"
       id="path3511"
       inkscape:connector-type="polyline"
       inkscape:connector-curvature="0"
       inkscape:connection-start="#path2985-9-6-6-4"
       inkscape:connection-start-point="d4"
       inkscape:connection-end="#path2985-9-6-1-9-6"
       inkscape:connection-end-point="d4"
       transform="translate(0,308.2677)" />
    <path
       style="fill:none;stroke:#000000;stroke-width:1px;stroke-linecap:butt;stroke-linejoin:miter;stroke-opacity:1"
       d="m 445.6246,430.34528 13.7508,-27.50159"
       id="path3513"
       inkscape:connector-type="polyline"
       inkscape:connector-curvature="0"
       inkscape:connection-start="#path2985-9-6-6-46"
       inkscape:connection-start-point="d4"
       inkscape:connection-end="#path2985-9-6-1-9-0"
       inkscape:connection-end-point="d4"
       transform="translate(0,308.2677)" />
    <path
       style="fill:none;stroke:#000000;stroke-width:1px;stroke-linecap:butt;stroke-linejoin:miter;stroke-opacity:1"
       d="m 462.5,429.60919 0,-26.02941"
       id="path3515"
       inkscape:connector-type="polyline"
       inkscape:connector-curvature="0"
       inkscape:connection-start="#path2985-9-6-6-2"
       inkscape:connection-start-point="d4"
       inkscape:connection-end="#path2985-9-6-1-9-0"
       inkscape:connection-end-point="d4"
       transform="translate(0,308.2677)" />
    <path
       style="fill:none;stroke:#000000;stroke-width:1px;stroke-linecap:butt;stroke-linejoin:miter;stroke-opacity:1"
       d="M 479.3754,430.34528 465.6246,402.84369"
       id="path3517"
       inkscape:connector-type="polyline"
       inkscape:connector-curvature="0"
       inkscape:connection-start="#path2985-9-6-6-1"
       inkscape:connection-start-point="d4"
       inkscape:connection-end="#path2985-9-6-1-9-0"
       inkscape:connection-end-point="d4"
       transform="translate(0,308.2677)" />
    <path
       style="fill:none;stroke:#000000;stroke-width:1px;stroke-linecap:butt;stroke-linejoin:miter;stroke-opacity:1"
       d="m 522.5,429.60919 0,-26.02941"
       id="path3521"
       inkscape:connector-type="polyline"
       inkscape:connector-curvature="0"
       inkscape:connection-start="#path2985-9-6-6-1-7"
       inkscape:connection-start-point="d4"
       inkscape:connection-end="#path2985-9-6-1-9-2-4"
       inkscape:connection-end-point="d4"
       transform="translate(0,308.2677)" />
    <path
       style="fill:none;stroke:#000000;stroke-width:1px;stroke-linecap:butt;stroke-linejoin:miter;stroke-opacity:1"
       d="M 539.3754,430.34528 525.6246,402.84369"
       id="path3523"
       inkscape:connector-type="polyline"
       inkscape:connector-curvature="0"
       inkscape:connection-start="#path2985-9-6-6-1-0"
       inkscape:connection-start-point="d4"
       inkscape:connection-end="#path2985-9-6-1-9-2-4"
       inkscape:connection-end-point="d4"
       transform="translate(0,308.2677)" />
    <path
       style="fill:none;stroke:#000000;stroke-width:1px;stroke-linecap:butt;stroke-linejoin:miter;stroke-opacity:1"
       d="m 565.6246,430.34528 13.7508,-27.50159"
       id="path3525"
       inkscape:connector-type="polyline"
       inkscape:connector-curvature="0"
       inkscape:connection-start="#path2985-9-6-6-1-8"
       inkscape:connection-start-point="d4"
       inkscape:connection-end="#path2985-9-6-1-9-6-6"
       inkscape:connection-end-point="d4"
       transform="translate(0,308.2677)" />
    <path
       style="fill:none;stroke:#000000;stroke-width:1px;stroke-linecap:butt;stroke-linejoin:miter;stroke-opacity:1"
       d="m 582.5,429.60919 0,-26.02941"
       id="path3527"
       inkscape:connector-type="polyline"
       inkscape:connector-curvature="0"
       inkscape:connection-start="#path2985-9-6-6-1-01"
       inkscape:connection-start-point="d4"
       inkscape:connection-end="#path2985-9-6-1-9-6-6"
       inkscape:connection-end-point="d4"
       transform="translate(0,308.2677)" />
    <path
       style="fill:none;stroke:#000000;stroke-width:1px;stroke-linecap:butt;stroke-linejoin:miter;stroke-opacity:1"
       d="M 599.3754,430.34528 585.6246,402.84369"
       id="path3529"
       inkscape:connector-type="polyline"
       inkscape:connector-curvature="0"
       inkscape:connection-start="#path2985-9-6-6-1-85"
       inkscape:connection-start-point="d4"
       inkscape:connection-end="#path2985-9-6-1-9-6-6"
       inkscape:connection-end-point="d4"
       transform="translate(0,308.2677)" />
    <path
       style="fill:none;stroke:#000000;stroke-width:1px;stroke-linecap:butt;stroke-linejoin:miter;stroke-opacity:1"
       d="m 625.6246,430.34528 13.7508,-27.50159"
       id="path3531"
       inkscape:connector-type="polyline"
       inkscape:connector-curvature="0"
       inkscape:connection-start="#path2985-9-6-6-1-2"
       inkscape:connection-start-point="d4"
       inkscape:connection-end="#path2985-9-6-1-9-5"
       inkscape:connection-end-point="d4"
       transform="translate(0,308.2677)" />
    <path
       style="fill:none;stroke:#000000;stroke-width:1px;stroke-linecap:butt;stroke-linejoin:miter;stroke-opacity:1"
       d="m 642.5,429.60919 0,-26.02941"
       id="path3533"
       inkscape:connector-type="polyline"
       inkscape:connector-curvature="0"
       inkscape:connection-start="#path2985-9-6-6-1-3"
       inkscape:connection-start-point="d4"
       inkscape:connection-end="#path2985-9-6-1-9-5"
       inkscape:connection-end-point="d4"
       transform="translate(0,308.2677)" />
    <path
       style="fill:none;stroke:#000000;stroke-width:1px;stroke-linecap:butt;stroke-linejoin:miter;stroke-opacity:1"
       d="M 659.3754,430.34528 645.6246,402.84369"
       id="path3535"
       inkscape:connector-type="polyline"
       inkscape:connector-curvature="0"
       inkscape:connection-start="#path2985-9-6-6-1-9"
       inkscape:connection-start-point="d4"
       inkscape:connection-end="#path2985-9-6-1-9-5"
       inkscape:connection-end-point="d4"
       transform="translate(0,308.2677)" />
    <path
       style="fill:none;stroke:#000000;stroke-width:1px;stroke-linecap:butt;stroke-linejoin:miter;stroke-opacity:1"
       d="m 702.5,429.60919 0,-26.02941"
       id="path3539"
       inkscape:connector-type="polyline"
       inkscape:connector-curvature="0"
       inkscape:connection-start="#path2985-9-6-6-1-6"
       inkscape:connection-start-point="d4"
       inkscape:connection-end="#path2985-9-6-1-9-2-8"
       inkscape:connection-end-point="d4"
       transform="translate(0,308.2677)" />
    <path
       style="fill:none;stroke:#000000;stroke-width:1px;stroke-linecap:butt;stroke-linejoin:miter;stroke-opacity:1"
       d="M 719.3754,430.34528 705.6246,402.84369"
       id="path3541"
       inkscape:connector-type="polyline"
       inkscape:connector-curvature="0"
       inkscape:connection-start="#path2985-9-6-6-1-61"
       inkscape:connection-start-point="d4"
       inkscape:connection-end="#path2985-9-6-1-9-2-8"
       inkscape:connection-end-point="d4"
       transform="translate(0,308.2677)" />
    <path
       style="fill:none;stroke:#000000;stroke-width:1px;stroke-linecap:butt;stroke-linejoin:miter;stroke-opacity:1"
       d="m 745.6246,430.34528 13.7508,-27.50159"
       id="path3543"
       inkscape:connector-type="polyline"
       inkscape:connector-curvature="0"
       inkscape:connection-start="#path2985-9-6-6-1-66"
       inkscape:connection-start-point="d4"
       inkscape:connection-end="#path2985-9-6-1-9-6-1"
       inkscape:connection-end-point="d4"
       transform="translate(0,308.2677)" />
    <path
       style="fill:none;stroke:#000000;stroke-width:1px;stroke-linecap:butt;stroke-linejoin:miter;stroke-opacity:1"
       d="m 762.5,429.60919 0,-26.02941"
       id="path3547"
       inkscape:connector-type="polyline"
       inkscape:connector-curvature="0"
       inkscape:connection-start="#path2985-9-6-6-1-21"
       inkscape:connection-start-point="d4"
       inkscape:connection-end="#path2985-9-6-1-9-6-1"
       inkscape:connection-end-point="d4"
       transform="translate(0,308.2677)" />
    <path
       style="fill:none;stroke:#000000;stroke-width:1px;stroke-linecap:butt;stroke-linejoin:miter;stroke-opacity:1"
       d="M 779.3754,430.34528 765.6246,402.84369"
       id="path3549"
       inkscape:connector-type="polyline"
       inkscape:connector-curvature="0"
       inkscape:connection-start="#path2985-9-6-6-1-30"
       inkscape:connection-start-point="d4"
       inkscape:connection-end="#path2985-9-6-1-9-6-1"
       inkscape:connection-end-point="d4"
       transform="translate(0,308.2677)" />
    <path
       style="fill:none;stroke:#000000;stroke-width:1px;stroke-linecap:butt;stroke-linejoin:miter;stroke-opacity:1"
       d="m 702.5,363.57978 0,26.02941"
       id="path3551"
       inkscape:connector-type="polyline"
       inkscape:connector-curvature="0"
       inkscape:connection-start="#path2985-9-6-1-9-6-3-3"
       inkscape:connection-start-point="d4"
       inkscape:connection-end="#path2985-9-6-1-9-2-8"
       inkscape:connection-end-point="d4"
       transform="translate(0,308.2677)" />
    <path
       style="fill:none;stroke:#000000;stroke-width:1px;stroke-linecap:butt;stroke-linejoin:miter;stroke-opacity:1"
       d="m 696.68727,360.46964 -48.37454,32.24969"
       id="path3553"
       inkscape:connector-type="polyline"
       inkscape:connector-curvature="0"
       inkscape:connection-start="#path2985-9-6-1-9-6-3-3"
       inkscape:connection-start-point="d4"
       inkscape:connection-end="#path2985-9-6-1-9-5"
       inkscape:connection-end-point="d4"
       transform="translate(0,308.2677)" />
    <path
       style="fill:none;stroke:#000000;stroke-width:1px;stroke-linecap:butt;stroke-linejoin:miter;stroke-opacity:1"
       d="m 708.31273,360.46964 48.37454,32.24969"
       id="path3555"
       inkscape:connector-type="polyline"
       inkscape:connector-curvature="0"
       inkscape:connection-start="#path2985-9-6-1-9-6-3-3"
       inkscape:connection-start-point="d4"
       inkscape:connection-end="#path2985-9-6-1-9-6-1"
       inkscape:connection-end-point="d4"
       transform="translate(0,308.2677)" />
    <path
       style="fill:none;stroke:#000000;stroke-width:1px;stroke-linecap:butt;stroke-linejoin:miter;stroke-opacity:1"
       d="M 576.68727,392.71933 528.31273,360.46964"
       id="path3557"
       inkscape:connector-type="polyline"
       inkscape:connector-curvature="0"
       inkscape:connection-start="#path2985-9-6-1-9-6-6"
       inkscape:connection-start-point="d4"
       inkscape:connection-end="#path2985-9-6-1-9-6-3-0"
       inkscape:connection-end-point="d4"
       transform="translate(0,308.2677)" />
    <path
       style="fill:none;stroke:#000000;stroke-width:1px;stroke-linecap:butt;stroke-linejoin:miter;stroke-opacity:1"
       d="m 522.5,389.60919 0,-26.02941"
       id="path3559"
       inkscape:connector-type="polyline"
       inkscape:connector-curvature="0"
       inkscape:connection-start="#path2985-9-6-1-9-2-4"
       inkscape:connection-start-point="d4"
       inkscape:connection-end="#path2985-9-6-1-9-6-3-0"
       inkscape:connection-end-point="d4"
       transform="translate(0,308.2677)" />
    <path
       style="fill:none;stroke:#000000;stroke-width:1px;stroke-linecap:butt;stroke-linejoin:miter;stroke-opacity:1"
       d="m 468.31273,392.71933 48.37454,-32.24969"
       id="path3561"
       inkscape:connector-type="polyline"
       inkscape:connector-curvature="0"
       inkscape:connection-start="#path2985-9-6-1-9-0"
       inkscape:connection-start-point="d4"
       inkscape:connection-end="#path2985-9-6-1-9-6-3-0"
       inkscape:connection-end-point="d4"
       transform="translate(0,308.2677)" />
    <path
       style="fill:none;stroke:#000000;stroke-width:1px;stroke-linecap:butt;stroke-linejoin:miter;stroke-opacity:1"
       d="M 396.68727,392.71933 348.31273,360.46964"
       id="path3563"
       inkscape:connector-type="polyline"
       inkscape:connector-curvature="0"
       inkscape:connection-start="#path2985-9-6-1-9-6"
       inkscape:connection-start-point="d4"
       inkscape:connection-end="#path2985-9-6-1-9-6-3"
       inkscape:connection-end-point="d4"
       transform="translate(0,308.2677)" />
    <path
       style="fill:none;stroke:#000000;stroke-width:1px;stroke-linecap:butt;stroke-linejoin:miter;stroke-opacity:1"
       d="m 342.5,389.60919 0,-26.02941"
       id="path3565"
       inkscape:connector-type="polyline"
       inkscape:connector-curvature="0"
       inkscape:connection-start="#path2985-9-6-1-9-2"
       inkscape:connection-start-point="d4"
       inkscape:connection-end="#path2985-9-6-1-9-6-3"
       inkscape:connection-end-point="d4"
       transform="translate(0,308.2677)" />
    <path
       style="fill:none;stroke:#000000;stroke-width:1px;stroke-linecap:butt;stroke-linejoin:miter;stroke-opacity:1"
       d="m 288.31273,392.71933 48.37454,-32.24969"
       id="path3567"
       inkscape:connector-type="polyline"
       inkscape:connector-curvature="0"
       inkscape:connection-start="#path2985-9-6-1-9"
       inkscape:connection-start-point="d4"
       inkscape:connection-end="#path2985-9-6-1-9-6-3"
       inkscape:connection-end-point="d4"
       transform="translate(0,308.2677)" />
    <path
       style="fill:none;stroke:#000000;stroke-width:1px;stroke-linecap:butt;stroke-linejoin:miter;stroke-opacity:1"
       d="M 515.67959,318.11013 349.32041,355.07884"
       id="path3569"
       inkscape:connector-type="polyline"
       inkscape:connector-curvature="0"
       inkscape:connection-start="#path2985-9-6-1-9-6-3-8"
       inkscape:connection-start-point="d4"
       inkscape:connection-end="#path2985-9-6-1-9-6-3"
       inkscape:connection-end-point="d4"
       transform="translate(0,308.2677)" />
    <path
       style="fill:none;stroke:#000000;stroke-width:1px;stroke-linecap:butt;stroke-linejoin:miter;stroke-opacity:1"
       d="m 529.32041,318.11013 166.35918,36.96871"
       id="path3571"
       inkscape:connector-type="polyline"
       inkscape:connector-curvature="0"
       inkscape:connection-start="#path2985-9-6-1-9-6-3-8"
       inkscape:connection-start-point="d4"
       inkscape:connection-end="#path2985-9-6-1-9-6-3-3"
       inkscape:connection-end-point="d4"
       transform="translate(0,308.2677)" />
    <path
       style="fill:none;stroke:#000000;stroke-width:1px;stroke-linecap:butt;stroke-linejoin:miter;stroke-opacity:1"
       d="m 522.5,349.60919 0,-26.02941"
       id="path3573"
       inkscape:connector-type="polyline"
       inkscape:connector-curvature="0"
       inkscape:connection-start="#path2985-9-6-1-9-6-3-0"
       inkscape:connection-start-point="d4"
       inkscape:connection-end="#path2985-9-6-1-9-6-3-8"
       inkscape:connection-end-point="d4"
       transform="translate(0,308.2677)" />
    <path
       style="fill:none;stroke:#000000;stroke-width:1px;stroke-linecap:butt;stroke-linejoin:miter;stroke-opacity:1"
       d="m 519.3754,402.84369 -13.7508,27.50159"
       id="path3575"
       inkscape:connector-type="polyline"
       inkscape:connector-curvature="0"
       inkscape:connection-start="#path2985-9-6-1-9-2-4"
       inkscape:connection-start-point="d4"
       inkscape:connection-end="#path2985-9-6-6-1-1"
       inkscape:connection-end-point="d4"
       transform="translate(0,308.2677)" />
    <path
       style="fill:none;stroke:#000000;stroke-width:1px;stroke-linecap:butt;stroke-linejoin:miter;stroke-opacity:1"
       d="m 685.6246,430.34528 13.7508,-27.50159"
       id="path3577"
       inkscape:connector-type="polyline"
       inkscape:connector-curvature="0"
       inkscape:connection-start="#path2985-9-6-6-1-08"
       inkscape:connection-start-point="d4"
       inkscape:connection-end="#path2985-9-6-1-9-2-8"
       inkscape:connection-end-point="d4"
       transform="translate(0,308.2677)" />
  </g>
</svg>
