<?xml version="1.0" encoding="UTF-8" standalone="no"?>
<!-- Created with Inkscape (http://www.inkscape.org/) -->

<svg
   xmlns:dc="http://purl.org/dc/elements/1.1/"
   xmlns:cc="http://creativecommons.org/ns#"
   xmlns:rdf="http://www.w3.org/1999/02/22-rdf-syntax-ns#"
   xmlns:svg="http://www.w3.org/2000/svg"
   xmlns="http://www.w3.org/2000/svg"
   xmlns:sodipodi="http://sodipodi.sourceforge.net/DTD/sodipodi-0.dtd"
   xmlns:inkscape="http://www.inkscape.org/namespaces/inkscape"
   width="744.09448819"
   height="1052.3622047"
   id="svg2"
   version="1.1"
   inkscape:version="0.48.4 r9939"
   sodipodi:docname="empty_venn.svg">
  <defs
     id="defs4" />
  <sodipodi:namedview
     id="base"
     pagecolor="#ffffff"
     bordercolor="#666666"
     borderopacity="1.0"
     inkscape:pageopacity="0.0"
     inkscape:pageshadow="2"
     inkscape:zoom="1.4142136"
     inkscape:cx="414.78926"
     inkscape:cy="717.86797"
     inkscape:document-units="px"
     inkscape:current-layer="layer1"
     showgrid="true"
     inkscape:window-width="1918"
     inkscape:window-height="1152"
     inkscape:window-x="0"
     inkscape:window-y="0"
     inkscape:window-maximized="1">
    <inkscape:grid
       type="xygrid"
       id="grid2985" />
  </sodipodi:namedview>
  <metadata
     id="metadata7">
    <rdf:RDF>
      <cc:Work
         rdf:about="">
        <dc:format>image/svg+xml</dc:format>
        <dc:type
           rdf:resource="http://purl.org/dc/dcmitype/StillImage" />
        <dc:title></dc:title>
      </cc:Work>
    </rdf:RDF>
  </metadata>
  <g
     inkscape:label="Layer 1"
     inkscape:groupmode="layer"
     id="layer1">
    <path
       sodipodi:type="arc"
       style="fill:#ffffff;fill-opacity:0;stroke:#000000;stroke-width:4;stroke-miterlimit:4;stroke-opacity:1;stroke-dasharray:none;stroke-dashoffset:0"
       id="path2996"
       sodipodi:cx="220"
       sodipodi:cy="442.36218"
       sodipodi:rx="140"
       sodipodi:ry="140"
       d="m 360,442.36218 a 140,140 0 1 1 -280,0 140,140 0 1 1 280,0 z"
       transform="matrix(0.88028169,0,0,0.88028169,31.338028,137.95885)" />
    <path
       sodipodi:type="arc"
       style="fill:#ffffff;fill-opacity:0;stroke:#000000;stroke-width:4;stroke-miterlimit:4;stroke-opacity:1;stroke-dasharray:none;stroke-dashoffset:0"
       id="path2996-3"
       sodipodi:cx="220"
       sodipodi:cy="442.36218"
       sodipodi:rx="140"
       sodipodi:ry="140"
       d="m 360,442.36218 a 140,140 0 1 1 -280,0 140,140 0 1 1 280,0 z"
       transform="matrix(0.88028169,0,0,0.88028169,156.33803,137.95885)" />
    <path
       sodipodi:type="arc"
       style="fill:#ffffff;fill-opacity:0;stroke:#000000;stroke-width:4;stroke-miterlimit:4;stroke-opacity:1;stroke-dasharray:none;stroke-dashoffset:0"
       id="path2996-3-8"
       sodipodi:cx="220"
       sodipodi:cy="442.36218"
       sodipodi:rx="140"
       sodipodi:ry="140"
       d="m 360,442.36218 a 140,140 0 1 1 -280,0 140,140 0 1 1 280,0 z"
       transform="matrix(0.88028169,0,0,0.88028169,31.338028,12.958853)" />
    <path
       sodipodi:type="arc"
       style="fill:#ffffff;fill-opacity:0;stroke:#000000;stroke-width:4;stroke-miterlimit:4;stroke-opacity:1;stroke-dasharray:none;stroke-dashoffset:0"
       id="path2996-3-8-6"
       sodipodi:cx="220"
       sodipodi:cy="442.36218"
       sodipodi:rx="140"
       sodipodi:ry="140"
       d="m 360,442.36218 a 140,140 0 1 1 -280,0 140,140 0 1 1 280,0 z"
       transform="matrix(0.88028169,0,0,0.88028169,156.33803,12.958853)" />
    <text
       xml:space="preserve"
       style="font-size:28px;font-style:normal;font-variant:normal;font-weight:normal;font-stretch:normal;line-height:125%;letter-spacing:0px;word-spacing:0px;fill:#000000;fill-opacity:1;stroke:none;font-family:TeX Gyre Heros;-inkscape-font-specification:TeX Gyre Heros"
       x="149.496"
       y="346.36218"
       id="text3870"
       sodipodi:linespacing="125%"><tspan
         sodipodi:role="line"
         x="149.496"
         y="346.36218"
         id="tspan3874">fp</tspan></text>
    <text
       xml:space="preserve"
       style="font-size:28px;font-style:normal;font-variant:normal;font-weight:normal;font-stretch:normal;line-height:125%;letter-spacing:0px;word-spacing:0px;fill:#000000;fill-opacity:1;stroke:none;font-family:TeX Gyre Heros;-inkscape-font-specification:TeX Gyre Heros"
       x="409.73715"
       y="346.71219"
       id="text3878"
       sodipodi:linespacing="125%"><tspan
         sodipodi:role="line"
         id="tspan3880"
         x="409.73715"
         y="346.71219">r</tspan></text>
    <text
       xml:space="preserve"
       style="font-size:28px;font-style:normal;font-variant:normal;font-weight:normal;font-stretch:normal;line-height:125%;letter-spacing:0px;word-spacing:0px;fill:#000000;fill-opacity:1;stroke:none;font-family:TeX Gyre Heros;-inkscape-font-specification:TeX Gyre Heros"
       x="149.132"
       y="565.51917"
       id="text3882"
       sodipodi:linespacing="125%"><tspan
         sodipodi:role="line"
         id="tspan3884"
         x="149.132"
         y="565.51917">cv</tspan></text>
    <text
       xml:space="preserve"
       style="font-size:28px;font-style:normal;font-variant:normal;font-weight:normal;font-stretch:normal;line-height:125%;letter-spacing:0px;word-spacing:0px;fill:#000000;fill-opacity:1;stroke:none;font-family:TeX Gyre Heros;-inkscape-font-specification:TeX Gyre Heros"
       x="394.46509"
       y="559.50879"
       id="text3886"
       sodipodi:linespacing="125%"><tspan
         sodipodi:role="line"
         id="tspan3888"
         x="394.46509"
         y="559.50879">ma</tspan></text>
    <path
       style="fill:#000000;fill-opacity:1;stroke:#000000;stroke-width:2;stroke-miterlimit:4;stroke-opacity:1;stroke-dasharray:none;stroke-dashoffset:0"
       d="m 282.52718,502.94786 c -9.87251,-6.75768 -20.24572,-16.25443 -26.89765,-24.625 -3.45726,-4.35049 -9.23192,-12.81758 -9.22849,-13.53126 0.001,-0.29219 1.37283,-2.54219 3.04763,-5 8.77358,-12.87549 20.71964,-24.75409 33.47515,-33.2861 l 4.5106,-3.0171 2.60959,1.63972 c 10.41937,6.54696 20.94155,16.01148 29.67788,26.69474 3.62489,4.43272 9.16907,12.86478 8.83744,13.44075 -5.46051,9.48386 -16.31906,22.10998 -25.69221,29.87444 -4.86589,4.03076 -14.57921,10.93481 -15.38422,10.93481 -0.21467,0 -2.44475,-1.40625 -4.95572,-3.125 z"
       id="path3942"
       inkscape:connector-curvature="0" />
    <path
       style="fill:#000000;fill-opacity:1;stroke:#000000;stroke-width:2;stroke-miterlimit:4;stroke-opacity:1;stroke-dasharray:none;stroke-dashoffset:0"
       d="m 328.07118,456.19649 c -8.44637,-12.18842 -21.13032,-24.77123 -32.77733,-32.51597 -4.04341,-2.68869 -4.13094,-2.48193 2.37166,-5.60272 13.99054,-6.71448 26.39416,-9.94291 45.18975,-11.76207 l 3.20167,-0.30987 -0.3005,5.4085 c -0.61645,11.09477 -3.63185,24.22555 -8.18875,35.6585 -2.07144,5.1971 -5.95812,13.5 -6.3195,13.5 -0.0793,0 -1.50899,-1.96936 -3.177,-4.37637 z"
       id="path3944"
       inkscape:connector-curvature="0" />
    <path
       style="fill:#000000;fill-opacity:1;stroke:#000000;stroke-width:2;stroke-miterlimit:4;stroke-opacity:1;stroke-dasharray:none;stroke-dashoffset:0"
       d="m 240.52468,454.19786 c -3.59135,-7.55034 -7.06433,-17.63824 -8.83324,-25.65775 -1.26981,-5.75678 -2.78785,-16.98451 -2.78785,-20.61946 l 0,-1.90834 3.625,0.30853 c 5.80537,0.4941 14.26322,1.73474 19.125,2.80533 6.95553,1.53166 18.33142,5.5031 25.46068,8.88859 l 6.46068,3.06799 -3.46068,2.31158 c -12.56519,8.39297 -25.37355,21.07447 -33.09532,32.76755 -1.57595,2.38645 -2.9996,4.3552 -3.16367,4.375 -0.16407,0.0198 -1.66284,-2.83277 -3.3306,-6.33902 l 0,0 z"
       id="path3946"
       inkscape:connector-curvature="0" />
    <path
       style="fill:#00ff00;fill-opacity:1;stroke:#000000;stroke-width:2;stroke-miterlimit:4;stroke-opacity:1;stroke-dasharray:none;stroke-dashoffset:0"
       d="m 279.72739,414.81533 c -14.38137,-7.12873 -28.28843,-10.79466 -47.52375,-12.52735 l -3.44995,-0.31076 0.31764,-6.32718 c 1.88762,-37.60106 22.07169,-72.88672 53.85249,-94.14454 l 4.5106,-3.0171 2.60958,1.63972 c 13.51322,8.49096 26.04295,20.75103 35.4653,34.70201 12.48719,18.48887 19.28895,39.07669 20.59132,62.32658 l 0.27077,4.83385 -3.8589,0.30727 c -18.78402,1.4957 -34.68506,5.87676 -50.13647,13.81361 -2.63554,1.35378 -4.88876,2.44423 -5.00716,2.42321 -0.1184,-0.021 -3.55706,-1.69472 -7.64147,-3.71932 l 0,0 z"
       id="path3948"
       inkscape:connector-curvature="0" />
    <path
       style="fill:#00ff00;fill-opacity:1;stroke:#000000;stroke-width:2;stroke-miterlimit:4;stroke-opacity:1;stroke-dasharray:none;stroke-dashoffset:0"
       d="m 453.07118,456.19649 c -8.97233,-12.9474 -21.26932,-24.92468 -34.66759,-33.76625 -7.69632,-5.07884 -19.59077,-10.80029 -28.57799,-13.74655 -11.7073,-3.83797 -21.30861,-5.67035 -33.51051,-6.39536 l -5.8385,-0.34691 -0.28002,-3.80928 c -1.05044,-14.2895 -2.13173,-20.94478 -5.05043,-31.08516 -4.39709,-15.27669 -12.48063,-30.69397 -22.76469,-43.41783 -7.15214,-8.84892 -18.26682,-19.08321 -27.11351,-24.96587 -4.04202,-2.68776 -4.16433,-2.44142 2.88565,-5.81215 32.46692,-15.52305 71.04304,-15.49687 103.75,0.0704 26.69331,12.705 47.83227,34.64238 59.41498,61.65907 12.66023,29.53001 13.10869,62.73738 1.24911,92.49227 -2.07144,5.1971 -5.95812,13.5 -6.3195,13.5 -0.0793,0 -1.50899,-1.96936 -3.177,-4.37637 l 0,0 z m -38.66759,-114.0562 c 0,-4.23305 0.14696,-5.1194 1.03629,-6.25 0.61104,-0.77681 1.53434,-1.31743 2.25,-1.31743 1.01523,0 1.21371,-0.24529 1.21371,-1.5 0,-1.24386 -0.20194,-1.5 -1.18257,-1.5 -0.65042,0 -1.77542,0.46633 -2.5,1.03629 -1.09209,0.85904 -1.31743,0.9018 -1.31743,0.25 0,-0.50537 -0.44658,-0.78629 -1.25,-0.78629 l -1.25,0 0,7.5 0,7.5 1.5,0 1.5,0 0,-4.93257 z"
       id="path3950"
       inkscape:connector-curvature="0" />
    <path
       style="fill:#00ff00;fill-opacity:1;stroke:#000000;stroke-width:2;stroke-miterlimit:4;stroke-opacity:1;stroke-dasharray:none;stroke-dashoffset:0"
       d="m 349.90359,520.24291 c 0,-14.18651 -5.89522,-35.78396 -13.88832,-50.88057 l -2.36168,-4.46052 2.83086,-5.53948 c 6.61416,-12.94272 10.76311,-26.33817 12.69546,-40.98903 0.39802,-3.01778 0.72368,-7.05294 0.72368,-8.96704 l 0,-3.48017 5.875,0.34216 c 11.77243,0.68562 21.46495,2.54649 32.625,6.26367 22.19917,7.39409 40.90816,20.44658 56.3183,39.29093 3.62489,4.43272 9.16907,12.86478 8.83744,13.44075 -5.45235,9.46968 -16.29913,22.08675 -25.68279,29.87444 -20.54738,17.0527 -45.46801,26.84071 -71.96476,28.26543 l -6.00819,0.32306 0,-3.48363 z"
       id="path3952"
       inkscape:connector-curvature="0" />
    <path
       style="fill:#00ff00;fill-opacity:1;stroke:#000000;stroke-width:2;stroke-miterlimit:4;stroke-opacity:1;stroke-dasharray:none;stroke-dashoffset:0"
       d="m 212.90359,648.02266 c -19.17954,-1.94037 -38.52315,-8.90521 -54.75,-19.71323 -7.51106,-5.0028 -11.51194,-8.2724 -18.18475,-14.86095 -19.94148,-19.68967 -32.11745,-44.7098 -35.37487,-72.69103 -0.97594,-8.3833 -0.70582,-23.62643 0.56147,-31.68459 1.82586,-11.60991 5.42732,-23.13821 10.69267,-34.22735 l 2.83817,-5.97735 3.43314,4.92414 c 22.20516,31.84877 57.59346,51.53506 96.33532,53.59073 l 6.30116,0.33434 0.31382,6.55275 c 1.28482,26.82727 11.55271,52.8434 29.11921,73.78041 6.85265,8.16746 17.98755,18.11788 26.58966,23.76115 1.16875,0.76674 2.125,1.55282 2.125,1.74685 0,0.53082 -11.06973,5.67311 -16.67836,7.7477 -6.40689,2.36985 -16.59254,4.94157 -23.82164,6.01459 -6.81737,1.0119 -22.70013,1.38977 -29.5,0.70184 l 0,0 z M 159.8211,565.36552 c 1.35147,-0.69888 2.22136,-1.97778 2.83476,-4.16766 0.27637,-0.98669 0.13071,-1.125 -1.18488,-1.125 -1.05939,0 -1.59296,0.29288 -1.81645,0.99704 -0.84789,2.67145 -3.51252,3.28684 -5.52367,1.27569 -1.00059,-1.00059 -1.22727,-1.72695 -1.22727,-3.93257 0,-3.27347 1.32483,-5.34443 3.41129,-5.3325 1.62666,0.009 2.25766,0.39799 3.03145,1.86734 0.38157,0.72457 1.05335,1.125 1.88735,1.125 1.18878,0 1.26881,-0.13049 0.97647,-1.59219 -0.76812,-3.84061 -5.01588,-5.34493 -9.22688,-3.26764 -2.70754,1.33563 -4.0781,7.97877 -2.33967,11.34051 1.69552,3.27878 5.82691,4.54464 9.1775,2.81198 z m 14.39669,-7.03921 c 1.47719,-3.84811 2.6858,-7.16686 2.6858,-7.375 0,-0.20815 -0.65884,-0.37845 -1.46408,-0.37845 -1.57612,0 -2.05376,0.89911 -4.31985,8.13161 -0.49657,1.58488 -1.06053,2.70988 -1.25323,2.5 -0.1927,-0.20988 -1.09852,-2.68786 -2.01293,-5.50661 -1.58197,-4.87658 -1.73012,-5.125 -3.05624,-5.125 -0.78389,0 -1.39179,0.27346 -1.38938,0.625 0.002,0.34375 0.88236,3.1 1.95556,6.125 3.16868,8.93147 2.83157,8.33424 4.60403,8.15671 1.52101,-0.15235 1.63922,-0.35129 4.25032,-7.15326 l 0,0 z"
       id="path3954"
       inkscape:connector-curvature="0" />
    <path
       style="fill:#00ff00;fill-opacity:1;stroke:#000000;stroke-width:2;stroke-miterlimit:4;stroke-opacity:1;stroke-dasharray:none;stroke-dashoffset:0"
       d="m 282.52718,627.94786 c -9.86134,-6.75003 -20.20424,-16.21624 -26.90559,-24.625 -11.42583,-14.33695 -20.08521,-32.35137 -23.93015,-49.78275 -1.48244,-6.72078 -2.78785,-17.15671 -2.78785,-22.28714 l 0,-3.57603 4.125,-0.33042 c 18.21218,-1.45882 33.71237,-5.68896 48.69954,-13.29053 l 5.73004,-2.90631 7.59771,3.69082 c 14.86053,7.21898 30.0116,11.27217 46.72155,12.49889 l 4.62385,0.33945 -0.26785,4.32201 c -0.14732,2.37711 -0.50255,6.45951 -0.78942,9.07201 -3.82298,34.81649 -23.142,66.693 -52.49977,86.625 -2.73406,1.85625 -5.14666,3.375 -5.36134,3.375 -0.21467,0 -2.44475,-1.40625 -4.95572,-3.125 l 0,0 z"
       id="path3956"
       inkscape:connector-curvature="0" />
    <path
       style="fill:#00ff00;fill-opacity:1;stroke:#000000;stroke-width:2;stroke-miterlimit:4;stroke-opacity:1;stroke-dasharray:none;stroke-dashoffset:0"
       d="m 337.90359,522.98951 c -9.14851,-0.8617 -23.10906,-4.18272 -31.35853,-7.45976 -5.11856,-2.03331 -14.64147,-6.53682 -14.64147,-6.92414 0,-0.17636 1.51534,-1.31693 3.36741,-2.53461 11.80594,-7.76195 24.50708,-20.41789 33.02011,-32.90259 2.45689,-3.60312 2.91282,-4.04506 3.43557,-3.33015 1.09506,1.49758 6.04714,12.89573 7.83111,18.02478 3.41736,9.82514 6.3383,24.7141 6.34349,32.33482 l 0.002,3.375 -1.625,-0.068 c -0.89375,-0.0374 -3.7625,-0.26931 -6.375,-0.51538 l 0,0 z"
       id="path3958"
       inkscape:connector-curvature="0" />
    <path
       style="fill:#00ff00;fill-opacity:1;stroke:#000000;stroke-width:2;stroke-miterlimit:4;stroke-opacity:1;stroke-dasharray:none;stroke-dashoffset:0"
       d="m 337.90359,648.02266 c -9.37621,-0.94858 -23.19801,-4.25121 -31.35853,-7.49291 -5.11856,-2.03331 -14.64147,-6.53681 -14.64147,-6.92414 0,-0.17636 1.51534,-1.31693 3.36741,-2.5346 23.13076,-15.2076 42.00724,-41.15319 49.91225,-68.60405 2.88273,-10.01054 3.95923,-16.66301 5.01948,-31.0191 l 0.28618,-3.875 2.58234,-4.2e-4 c 10.51081,-0.002 25.91792,-2.78021 37.83234,-6.82267 25.36525,-8.60621 49.46161,-27.30229 63.61726,-49.35988 1.89692,-2.95581 1.73466,-3.11241 5.54622,5.35282 10.36363,23.01693 13.46589,46.81116 9.29993,71.33015 -6.41629,37.76356 -31.22931,70.90634 -65.71341,87.77351 -12.33296,6.03241 -23.58792,9.59501 -36.25,11.47445 -6.81737,1.0119 -22.70013,1.38977 -29.5,0.70184 z m 89.41935,-88.74959 c 1.05043,-0.73575 1.21619,-0.73253 2.07002,0.0402 0.51049,0.46199 1.45067,0.76564 2.08929,0.6748 1.3768,-0.19586 1.82759,-1.74424 0.75053,-2.57794 -0.5692,-0.44058 -0.79869,-1.86296 -0.91893,-5.69539 -0.1825,-5.81683 -0.51551,-6.43477 -3.87454,-7.18949 -3.83098,-0.86077 -7.04749,0.65354 -7.80097,3.67264 -0.31457,1.26042 -0.22353,1.375 1.09248,1.375 1.00924,0 1.58223,-0.33414 1.9292,-1.125 0.36529,-0.83263 0.98993,-1.16587 2.40346,-1.28227 2.21327,-0.18224 3.45179,0.62586 3.23924,2.11351 -0.12231,0.85604 -0.73363,1.15777 -3.39913,1.67773 -4.35039,0.84861 -5.70736,1.8911 -5.90347,4.53527 -0.22048,2.97277 1.45377,4.58076 4.76949,4.58076 1.40102,0 2.88993,-0.33513 3.55333,-0.79979 l 0,-3e-5 z m -28.41935,-4.42668 c 0,-2.59956 0.24981,-5.27475 0.55513,-5.94487 0.69012,-1.51463 2.35912,-2.31747 3.74889,-1.80333 1.321,0.4887 1.69598,2.26572 1.69598,8.03717 0,4.4 0.0105,4.4375 1.25,4.4375 1.24517,0 1.25,-0.0182 1.25,-4.72647 0,-2.59956 0.24981,-5.27475 0.55513,-5.94487 0.69012,-1.51463 2.35912,-2.31747 3.74889,-1.80333 1.321,0.4887 1.69598,2.26572 1.69598,8.03717 0,4.4 0.0105,4.4375 1.25,4.4375 l 1.25,0 0,-6.28287 c 0,-3.45558 -0.22867,-6.71015 -0.50816,-7.23237 -0.27949,-0.52223 -1.38925,-1.21349 -2.46615,-1.53613 -1.69957,-0.50921 -2.22555,-0.45425 -3.98534,0.41643 -1.60983,0.79648 -2.13535,0.87295 -2.55167,0.3713 -0.91779,-1.10587 -3.87802,-1.36481 -5.62716,-0.49222 -1.00617,0.50194 -1.66204,0.60431 -1.77132,0.27647 -0.0954,-0.28633 -0.71729,-0.52061 -1.38187,-0.52061 l -1.20833,0 0,7.5 0,7.5 1.25,0 c 1.24517,0 1.25,-0.0182 1.25,-4.72647 z"
       id="path3960"
       inkscape:connector-curvature="0" />
    <path
       style="fill:#00ff00;fill-opacity:1;stroke:#000000;stroke-width:2;stroke-miterlimit:4;stroke-opacity:1;stroke-dasharray:none;stroke-dashoffset:0"
       d="m 115.52468,454.19786 c -5.64308,-11.86383 -9.35749,-24.92644 -10.93071,-38.44041 -0.97594,-8.3833 -0.70582,-23.62643 0.56147,-31.68459 6.06252,-38.54898 30.12932,-71.75555 65.03664,-89.73539 33.01146,-17.00333 72.8633,-17.49633 106.92219,-1.32271 l 6.46068,3.06799 -3.46068,2.31158 c -17.88714,11.94779 -32.5819,28.80156 -42.22471,48.42853 -4.74991,9.66798 -6.93194,15.49417 -9.21483,24.60439 -2.16147,8.62564 -3.2024,15.54179 -3.60527,23.95412 l -0.31408,6.5585 -6.0509,0.34121 c -21.33547,1.20309 -41.41471,7.38602 -59.00263,18.16847 -14.6208,8.96342 -29.0474,22.6356 -37.6829,35.71233 -1.57595,2.38645 -2.9996,4.3552 -3.16367,4.375 -0.16407,0.0198 -1.66284,-2.83277 -3.3306,-6.33902 l 0,0 z m 45.87891,-105.13652 0,-3.51153 1.25979,0.82545 c 1.965,1.28752 5.4709,0.69768 7.41631,-1.24773 1.40695,-1.40695 1.57207,-1.90332 1.74011,-5.2309 0.19676,-3.89652 -0.37,-5.72197 -2.32621,-7.49232 -1.45796,-1.31943 -4.58381,-1.61889 -6.50863,-0.62353 -0.88245,0.45634 -1.58137,0.5911 -1.58137,0.30492 0,-0.28206 -0.675,-0.51284 -1.5,-0.51284 l -1.5,0 0,10.5 0,10.5 1.5,0 1.5,0 0,-3.51152 z m -7,-8.73848 0,-6.25 1.25,0 c 1,0 1.25,-0.25 1.25,-1.25 0,-1 -0.25,-1.25 -1.25,-1.25 -1.78732,0 -1.77046,-2.2843 0.0229,-3.10141 0.86838,-0.39566 1.22589,-0.90866 1.125,-1.61428 -0.11979,-0.83779 -0.47609,-1.01819 -1.87525,-0.94945 -2.11866,0.10408 -3.02265,1.2288 -3.02265,3.76071 0,1.5711 -0.17503,1.90443 -1,1.90443 -0.73333,0 -1,0.33334 -1,1.25 0,0.91667 0.26667,1.25 1,1.25 0.94667,0 1,0.33334 1,6.25 l 0,6.25 1.25,0 1.25,0 0,-6.25 z"
       id="path3962"
       inkscape:connector-curvature="0" />
    <path
       style="fill:#00ff00;fill-opacity:1;stroke:#000000;stroke-width:2;stroke-miterlimit:4;stroke-opacity:1;stroke-dasharray:none;stroke-dashoffset:0"
       d="m 163.86073,343.89515 c -2.50271,-1.24773 -3.21761,-5.31885 -1.44465,-8.22684 0.88472,-1.45111 1.23188,-1.63555 2.82346,-1.5 2.36669,0.20156 3.80041,2.05182 3.80041,4.90455 0,3.53292 -2.70802,6.05432 -5.17922,4.82229 l 0,0 z"
       id="path3964"
       inkscape:connector-curvature="0" />
    <path
       style="fill:#00ff00;fill-opacity:1;stroke:#000000;stroke-width:2;stroke-miterlimit:4;stroke-opacity:1;stroke-dasharray:none;stroke-dashoffset:0"
       d="m 422.52859,557.24172 c -0.79414,-0.32044 -0.81695,-2.49121 -0.0313,-2.97678 0.32654,-0.20181 1.78904,-0.64479 3.25,-0.9844 l 2.65629,-0.61748 0,1.41861 c 0,2.41421 -3.31048,4.19485 -5.875,3.16005 z"
       id="path3966"
       inkscape:connector-curvature="0" />
    <path
       style="fill:#00ff00;fill-opacity:1;stroke:#000000;stroke-width:0.125;stroke-miterlimit:4;stroke-opacity:1;stroke-dasharray:none;stroke-dashoffset:0"
       d="m 160.94162,333.45756 0,-0.3997 0.13838,0.0811 c 0.0761,0.0446 0.17626,0.0811 0.22256,0.0811 0.0771,0 0.0806,0.005 0.0413,0.0602 -0.0236,0.0331 -0.12374,0.17647 -0.22256,0.3186 l -0.17969,0.25843 0,-0.3997 z"
       id="path3970"
       inkscape:connector-curvature="0" />
    <path
       style="fill:#00ff00;fill-opacity:1;stroke:#000000;stroke-width:0.25;stroke-miterlimit:4;stroke-opacity:1;stroke-dasharray:none;stroke-dashoffset:0"
       d="m 398.61583,546.47191 c -0.001,-0.25152 0.0153,-0.29706 0.0972,-0.26563 0.0544,0.0209 0.13875,0.0379 0.1875,0.0379 0.12902,0 0.10784,0.0669 -0.0989,0.3125 l -0.18414,0.21875 -0.002,-0.30356 z"
       id="path3972"
       inkscape:connector-curvature="0" />
    <path
       style="fill:#00ff00;fill-opacity:1;stroke:#000000;stroke-width:0.125;stroke-miterlimit:4;stroke-opacity:1;stroke-dasharray:none;stroke-dashoffset:0"
       d="m 413.84564,334.47078 c -1.1e-4,-0.13565 0.009,-0.16398 0.0546,-0.16358 0.12416,10e-4 0.13306,0.045 0.0381,0.18818 l -0.0925,0.13946 -1.4e-4,-0.16406 z"
       id="path3974"
       inkscape:connector-curvature="0" />
  </g>
</svg>
