<?xml version="1.0" encoding="UTF-8" standalone="no"?>
<!-- Created with Inkscape (http://www.inkscape.org/) -->

<svg
   xmlns:ns0="http://www.iki.fi/pav/software/textext/"
   xmlns:dc="http://purl.org/dc/elements/1.1/"
   xmlns:cc="http://creativecommons.org/ns#"
   xmlns:rdf="http://www.w3.org/1999/02/22-rdf-syntax-ns#"
   xmlns:svg="http://www.w3.org/2000/svg"
   xmlns="http://www.w3.org/2000/svg"
   xmlns:xlink="http://www.w3.org/1999/xlink"
   xmlns:sodipodi="http://sodipodi.sourceforge.net/DTD/sodipodi-0.dtd"
   xmlns:inkscape="http://www.inkscape.org/namespaces/inkscape"
   sodipodi:docname="np_3dm_formular.svg"
   inkscape:version="0.48.4 r9939"
   version="1.1"
   id="svg2"
   height="744.09448"
   width="1052.3622">
  <defs
     id="defs4" />
  <sodipodi:namedview
     id="base"
     pagecolor="#ffffff"
     bordercolor="#666666"
     borderopacity="1.0"
     inkscape:pageopacity="0.0"
     inkscape:pageshadow="2"
     inkscape:zoom="4"
     inkscape:cx="216.98905"
     inkscape:cy="385.82617"
     inkscape:document-units="px"
     inkscape:current-layer="svg2"
     showgrid="true"
     inkscape:window-width="1918"
     inkscape:window-height="1152"
     inkscape:window-x="0"
     inkscape:window-y="0"
     inkscape:window-maximized="1">
    <inkscape:grid
       type="xygrid"
       id="grid3082"
       empspacing="5"
       visible="true"
       enabled="true"
       snapvisiblegridlinesonly="true" />
  </sodipodi:namedview>
  <metadata
     id="metadata7">
    <rdf:RDF>
      <cc:Work
         rdf:about="">
        <dc:format>image/svg+xml</dc:format>
        <dc:type
           rdf:resource="http://purl.org/dc/dcmitype/StillImage" />
        <dc:title />
      </cc:Work>
    </rdf:RDF>
  </metadata>
  <g
     inkscape:label="Layer 1"
     inkscape:groupmode="layer"
     id="layer1"
     transform="translate(0,-308.2677)">
    <text
       xml:space="preserve"
       style="font-size:40px;font-style:normal;font-variant:normal;font-weight:normal;font-stretch:normal;line-height:125%;letter-spacing:0px;word-spacing:0px;fill:#000000;fill-opacity:1;stroke:none;font-family:TeX Gyre Heros;-inkscape-font-specification:TeX Gyre Heros"
       x="357.96069"
       y="771.36218"
       id="text3113-0-2"
       sodipodi:linespacing="125%"><tspan
         sodipodi:role="line"
         id="tspan3115-5-1"
         x="0"
         y="0"
         style="font-size:12px"><tspan
           style="font-size:65.00091553%;baseline-shift:sub"
           id="tspan3143-2" /></tspan></text>
    <path
       style="fill:#b3b3b3;stroke:#b3b3b3;stroke-width:32;stroke-linecap:round;stroke-linejoin:miter;stroke-miterlimit:4;stroke-opacity:1;stroke-dasharray:none"
       d="m 141.25,426.60919 0,-57.52941"
       id="path5026"
       inkscape:connector-type="polyline"
       inkscape:connector-curvature="0"
       inkscape:connection-start="#path2985-9-6-1-9-6-3-5"
       inkscape:connection-start-point="d4"
       inkscape:connection-end="#path2985-9-6-1-9-4"
       inkscape:connection-end-point="d4"
       transform="translate(0,308.2677)" />
    <path
       sodipodi:type="arc"
       style="fill:#ffffff;stroke:#000000"
       id="path2985-9-6-1-9-4"
       sodipodi:cx="268.92856"
       sodipodi:cy="240.8802"
       sodipodi:rx="6.7857141"
       sodipodi:ry="6.7857141"
       d="m 275.71427,240.8802 a 6.7857141,6.7857141 0 1 1 -13.57143,0 6.7857141,6.7857141 0 1 1 13.57143,0 z"
       transform="matrix(1.0294118,0,0,1.0294118,-135.58823,422.39726)" />
    <path
       style="fill:none;stroke:#b3b3b3;stroke-width:32;stroke-linecap:round;stroke-linejoin:miter;stroke-miterlimit:4;stroke-opacity:1;stroke-dasharray:none"
       d="m 189.5,369.07978 0,57.52941"
       id="path5536"
       inkscape:connector-type="polyline"
       inkscape:connector-curvature="0"
       inkscape:connection-start="#path2985-9-6-1-9-6-3-6"
       inkscape:connection-start-point="d4"
       inkscape:connection-end="#path2985-9-6-1-9-6-3-3"
       inkscape:connection-end-point="d4"
       transform="translate(0,308.2677)" />
    <path
       sodipodi:type="arc"
       style="fill:#ffffff;stroke:#000000"
       id="path2985-9-6-1-9-6-3-6"
       sodipodi:cx="268.92856"
       sodipodi:cy="240.8802"
       sodipodi:rx="6.7857141"
       sodipodi:ry="6.7857141"
       d="m 275.71427,240.8802 a 6.7857141,6.7857141 0 1 1 -13.57143,0 6.7857141,6.7857141 0 1 1 13.57143,0 z"
       transform="matrix(1.0294118,0,0,1.0294118,-87.338231,422.39726)" />
    <path
       sodipodi:type="arc"
       style="fill:#ffffff;stroke:#000000"
       id="path2985-9-6-1-9-6-3-1"
       sodipodi:cx="268.92856"
       sodipodi:cy="240.8802"
       sodipodi:rx="6.7857141"
       sodipodi:ry="6.7857141"
       d="m 275.71427,240.8802 a 6.7857141,6.7857141 0 1 1 -13.57143,0 6.7857141,6.7857141 0 1 1 13.57143,0 z"
       transform="matrix(1.0294118,0,0,1.0294118,-135.58823,458.14726)" />
    <path
       sodipodi:type="arc"
       style="fill:#ffffff;stroke:#000000"
       id="path2985-9-6-1-9-6-3-2"
       sodipodi:cx="268.92856"
       sodipodi:cy="240.8802"
       sodipodi:rx="6.7857141"
       sodipodi:ry="6.7857141"
       d="m 275.71427,240.8802 a 6.7857141,6.7857141 0 1 1 -13.57143,0 6.7857141,6.7857141 0 1 1 13.57143,0 z"
       transform="matrix(1.0294118,0,0,1.0294118,-87.338231,458.14726)" />
    <path
       sodipodi:type="arc"
       style="fill:#ffffff;stroke:#000000"
       id="path2985-9-6-1-9-6-3-5"
       sodipodi:cx="268.92856"
       sodipodi:cy="240.8802"
       sodipodi:rx="6.7857141"
       sodipodi:ry="6.7857141"
       d="m 275.71427,240.8802 a 6.7857141,6.7857141 0 1 1 -13.57143,0 6.7857141,6.7857141 0 1 1 13.57143,0 z"
       transform="matrix(1.0294118,0,0,1.0294118,-135.58823,493.89726)" />
    <path
       sodipodi:type="arc"
       style="fill:#ffffff;stroke:#000000"
       id="path2985-9-6-1-9-6-3-3"
       sodipodi:cx="268.92856"
       sodipodi:cy="240.8802"
       sodipodi:rx="6.7857141"
       sodipodi:ry="6.7857141"
       d="m 275.71427,240.8802 a 6.7857141,6.7857141 0 1 1 -13.57143,0 6.7857141,6.7857141 0 1 1 13.57143,0 z"
       transform="matrix(1.0294118,0,0,1.0294118,-87.338231,493.89726)" />
    <path
       style="fill:none;stroke:#000000;stroke-width:1.50000000000000000;stroke-linecap:round;stroke-linejoin:round;stroke-miterlimit:4;stroke-opacity:1;stroke-dasharray:3, 3;stroke-dashoffset:0"
       d="m 180.18905,444.78307 c -2.04869,-0.52498 -3.19829,-1.00384 -4.68491,-1.95146 -2.89395,-1.84471 -38.6747,-28.58911 -39.90342,-29.8259 -1.70018,-1.71135 -2.84794,-3.56783 -3.72723,-6.02875 -0.56061,-1.56899 -0.65344,-2.23057 -0.64317,-4.58365 0.0181,-4.15184 0.0174,-5.98236 -0.004,-9 -0.0167,-2.39234 0.0711,-3.00888 0.67513,-4.74047 0.81914,-2.3481 2.42246,-4.86083 4.09048,-6.4106 1.41737,-1.31688 38.37386,-28.7263 40.04628,-29.701 2.40759,-1.40318 4.85025,-2.03651 7.89806,-2.04783 4.26898,-0.0158 7.90708,1.5201 11.04081,4.66125 3.19037,3.19792 4.66836,6.71648 4.66836,11.11365 0,2.72432 -0.38834,4.37972 -1.6237,6.92136 -1.65759,3.41035 -2.65021,4.28059 -17.02864,14.92915 l -13.13206,9.72551 3.91388,2.90465 c 2.15263,1.59756 7.96388,5.90542 12.91388,9.57303 4.95,3.66761 9.5625,7.20904 10.25,7.86984 3.44129,3.30766 5.28597,8.563 4.63884,13.21568 -1.29992,9.34611 -10.45819,15.66401 -19.38884,13.37554 z"
       id="path5546"
       inkscape:connector-curvature="0"
       transform="translate(0,308.2677)" />
  </g>
  <g
     id="g3033"
     ns0:preamble=""
     ns0:text="$x$"
     transform="matrix(1.5,0,0,1.5,-225.87817,163.16964)">
    <defs
       id="defs3035">
      <g
         id="g3037">
        <symbol
           style="overflow:visible"
           id="textext-3cd618fc-0"
           overflow="visible">
          <path
             inkscape:connector-curvature="0"
             id="path3040"
             d=""
             style="stroke:none" />
        </symbol>
        <symbol
           style="overflow:visible"
           id="textext-3cd618fc-1"
           overflow="visible">
          <path
             inkscape:connector-curvature="0"
             id="path3043"
             d="M 3.328125,-3.015625 C 3.390625,-3.265625 3.625,-4.1875 4.3125,-4.1875 c 0.046875,0 0.296875,0 0.5,0.125 C 4.53125,-4 4.34375,-3.765625 4.34375,-3.515625 c 0,0.15625 0.109375,0.34375 0.375,0.34375 0.21875,0 0.53125,-0.171875 0.53125,-0.578125 0,-0.515625 -0.578125,-0.65625 -0.921875,-0.65625 -0.578125,0 -0.921875,0.53125 -1.046875,0.75 -0.25,-0.65625 -0.78125,-0.75 -1.078125,-0.75 -1.03125,0 -1.609375,1.28125 -1.609375,1.53125 0,0.109375 0.109375,0.109375 0.125,0.109375 0.078125,0 0.109375,-0.03125 0.125,-0.109375 0.34375,-1.0625 1,-1.3125 1.34375,-1.3125 0.1875,0 0.53125,0.09375 0.53125,0.671875 0,0.3125 -0.171875,0.96875 -0.53125,2.375 -0.15625,0.609375 -0.515625,1.03125 -0.953125,1.03125 -0.0625,0 -0.28125,0 -0.5,-0.125 0.25,-0.0625 0.46875,-0.265625 0.46875,-0.546875 0,-0.265625 -0.21875,-0.34375 -0.359375,-0.34375 -0.3125,0 -0.546875,0.25 -0.546875,0.578125 0,0.453125 0.484375,0.65625 0.921875,0.65625 0.671875,0 1.03125,-0.703125 1.046875,-0.75 0.125,0.359375 0.484375,0.75 1.078125,0.75 1.03125,0 1.59375,-1.28125 1.59375,-1.53125 0,-0.109375 -0.078125,-0.109375 -0.109375,-0.109375 -0.09375,0 -0.109375,0.046875 -0.140625,0.109375 -0.328125,1.078125 -1,1.3125 -1.3125,1.3125 -0.390625,0 -0.546875,-0.3125 -0.546875,-0.65625 0,-0.21875 0.046875,-0.4375 0.15625,-0.875 z"
             style="stroke:none" />
        </symbol>
      </g>
    </defs>
    <g
       id="textext-3cd618fc-2">
      <g
         id="g3046"
         style="fill:#000000;fill-opacity:1">
        <use
           height="1052.3622"
           width="744.09448"
           id="use3048"
           y="134.765"
           x="223.43201"
           xlink:href="#textext-3cd618fc-1" />
      </g>
    </g>
  </g>
  <g
     id="g3184"
     transform="matrix(1.5,0,0,1.5,-225.60864,197.46652)"
     ns0:preamble=""
     ns0:text="$y$">
    <defs
       id="defs3186">
      <g
         id="g3188">
        <symbol
           style="overflow:visible"
           id="textext-129d527c-0"
           overflow="visible">
          <path
             inkscape:connector-curvature="0"
             id="path3191"
             d=""
             style="stroke:none" />
        </symbol>
        <symbol
           style="overflow:visible"
           id="textext-129d527c-1"
           overflow="visible">
          <path
             inkscape:connector-curvature="0"
             id="path3194"
             d="m 4.84375,-3.796875 c 0.046875,-0.140625 0.046875,-0.15625 0.046875,-0.234375 0,-0.171875 -0.140625,-0.265625 -0.296875,-0.265625 -0.09375,0 -0.25,0.0625 -0.34375,0.203125 -0.015625,0.0625 -0.109375,0.359375 -0.140625,0.546875 -0.078125,0.25 -0.140625,0.53125 -0.203125,0.796875 l -0.453125,1.796875 c -0.03125,0.140625 -0.46875,0.84375 -1.125,0.84375 -0.5,0 -0.609375,-0.4375 -0.609375,-0.8125 C 1.71875,-1.375 1.890625,-2 2.21875,-2.875 2.375,-3.28125 2.421875,-3.390625 2.421875,-3.59375 c 0,-0.4375 -0.3125,-0.8125 -0.8125,-0.8125 -0.953125,0 -1.3125,1.453125 -1.3125,1.53125 0,0.109375 0.09375,0.109375 0.109375,0.109375 0.109375,0 0.109375,-0.03125 0.15625,-0.1875 0.28125,-0.9375 0.671875,-1.234375 1.015625,-1.234375 0.078125,0 0.25,0 0.25,0.3125 0,0.25 -0.109375,0.515625 -0.171875,0.703125 -0.40625,1.0625 -0.578125,1.625 -0.578125,2.09375 0,0.890625 0.625,1.1875 1.21875,1.1875 0.390625,0 0.71875,-0.171875 1,-0.453125 -0.125,0.515625 -0.25,1.015625 -0.640625,1.546875 -0.265625,0.328125 -0.640625,0.625 -1.09375,0.625 -0.140625,0 -0.59375,-0.03125 -0.765625,-0.421875 0.15625,0 0.296875,0 0.421875,-0.125 C 1.328125,1.203125 1.421875,1.0625 1.421875,0.875 1.421875,0.5625 1.15625,0.53125 1.0625,0.53125 0.828125,0.53125 0.5,0.6875 0.5,1.171875 c 0,0.5 0.4375,0.875 1.0625,0.875 1.015625,0 2.046875,-0.90625 2.328125,-2.03125 z"
             style="stroke:none" />
        </symbol>
      </g>
    </defs>
    <g
       id="textext-129d527c-2">
      <g
         id="g3197"
         style="fill:#000000;fill-opacity:1">
        <use
           height="1052.3622"
           width="744.09448"
           id="use3199"
           y="134.765"
           x="223.43201"
           xlink:href="#textext-129d527c-1" />
      </g>
    </g>
  </g>
  <g
     id="g3320"
     transform="matrix(1.5,0,0,1.5,-225.52661,234.66964)"
     ns0:preamble=""
     ns0:text="$z$">
    <defs
       id="defs3322">
      <g
         id="g3324">
        <symbol
           style="overflow:visible"
           id="textext-222e8ddc-0"
           overflow="visible">
          <path
             inkscape:connector-curvature="0"
             id="path3327"
             d=""
             style="stroke:none" />
        </symbol>
        <symbol
           style="overflow:visible"
           id="textext-222e8ddc-1"
           overflow="visible">
          <path
             inkscape:connector-curvature="0"
             id="path3330"
             d="m 1.328125,-0.828125 c 0.53125,-0.578125 0.828125,-0.828125 1.1875,-1.140625 0,0 0.609375,-0.53125 0.96875,-0.890625 C 4.4375,-3.78125 4.65625,-4.265625 4.65625,-4.3125 c 0,-0.09375 -0.09375,-0.09375 -0.109375,-0.09375 -0.078125,0 -0.09375,0.015625 -0.15625,0.109375 -0.296875,0.484375 -0.5,0.640625 -0.734375,0.640625 -0.25,0 -0.359375,-0.15625 -0.515625,-0.328125 -0.1875,-0.21875 -0.359375,-0.421875 -0.6875,-0.421875 -0.75,0 -1.203125,0.921875 -1.203125,1.140625 0,0.046875 0.03125,0.109375 0.109375,0.109375 0.09375,0 0.109375,-0.046875 0.140625,-0.109375 0.1875,-0.46875 0.765625,-0.46875 0.84375,-0.46875 0.203125,0 0.390625,0.0625 0.625,0.140625 0.40625,0.15625 0.515625,0.15625 0.765625,0.15625 -0.359375,0.421875 -1.1875,1.140625 -1.375,1.296875 l -0.90625,0.84375 C 0.78125,-0.625 0.421875,-0.0625 0.421875,0.015625 c 0,0.09375 0.109375,0.09375 0.125,0.09375 0.078125,0 0.09375,-0.015625 0.15625,-0.125 0.234375,-0.359375 0.53125,-0.625 0.859375,-0.625 0.21875,0 0.328125,0.09375 0.578125,0.375 0.15625,0.21875 0.34375,0.375 0.625,0.375 1,0 1.578125,-1.265625 1.578125,-1.53125 0,-0.046875 -0.046875,-0.109375 -0.125,-0.109375 -0.09375,0 -0.109375,0.0625 -0.140625,0.140625 C 3.84375,-0.75 3.203125,-0.5625 2.875,-0.5625 c -0.1875,0 -0.375,-0.0625 -0.578125,-0.125 -0.34375,-0.125 -0.5,-0.171875 -0.703125,-0.171875 -0.015625,0 -0.171875,0 -0.265625,0.03125 z"
             style="stroke:none" />
        </symbol>
      </g>
    </defs>
    <g
       id="textext-222e8ddc-2">
      <g
         id="g3333"
         style="fill:#000000;fill-opacity:1">
        <use
           height="1052.3622"
           width="744.09448"
           id="use3335"
           y="134.765"
           x="223.43201"
           xlink:href="#textext-222e8ddc-1" />
      </g>
    </g>
  </g>
  <g
     id="g3476"
     transform="matrix(1.5,0,0,1.5,-197.69488,139.96445)"
     ns0:preamble=""
     ns0:text="$1$">
    <defs
       id="defs3478">
      <g
         id="g3480">
        <symbol
           style="overflow:visible"
           id="textext-9959f50f-0"
           overflow="visible">
          <path
             inkscape:connector-curvature="0"
             id="path3483"
             d=""
             style="stroke:none" />
        </symbol>
        <symbol
           style="overflow:visible"
           id="textext-9959f50f-1"
           overflow="visible">
          <path
             inkscape:connector-curvature="0"
             id="path3486"
             d="m 2.9375,-6.375 c 0,-0.25 0,-0.265625 -0.234375,-0.265625 C 2.078125,-6 1.203125,-6 0.890625,-6 l 0,0.3125 c 0.203125,0 0.78125,0 1.296875,-0.265625 l 0,5.171875 c 0,0.359375 -0.03125,0.46875 -0.921875,0.46875 l -0.3125,0 0,0.3125 c 0.34375,-0.03125 1.203125,-0.03125 1.609375,-0.03125 0.390625,0 1.265625,0 1.609375,0.03125 l 0,-0.3125 -0.3125,0 c -0.90625,0 -0.921875,-0.109375 -0.921875,-0.46875 z"
             style="stroke:none" />
        </symbol>
      </g>
    </defs>
    <g
       id="textext-9959f50f-2">
      <g
         id="g3489"
         style="fill:#000000;fill-opacity:1">
        <use
           height="1052.3622"
           width="744.09448"
           id="use3491"
           y="134.765"
           x="223.43201"
           xlink:href="#textext-9959f50f-1" />
      </g>
    </g>
  </g>
  <g
     id="g3652"
     transform="matrix(1.5,0,0,1.5,-149.37457,139.96445)"
     ns0:preamble=""
     ns0:text="$2$">
    <defs
       id="defs3654">
      <g
         id="g3656">
        <symbol
           style="overflow:visible"
           id="textext-4b8fbe50-0"
           overflow="visible">
          <path
             inkscape:connector-curvature="0"
             id="path3659"
             d=""
             style="stroke:none" />
        </symbol>
        <symbol
           style="overflow:visible"
           id="textext-4b8fbe50-1"
           overflow="visible">
          <path
             inkscape:connector-curvature="0"
             id="path3662"
             d="m 1.265625,-0.765625 1.0625,-1.03125 c 1.546875,-1.375 2.140625,-1.90625 2.140625,-2.90625 0,-1.140625 -0.890625,-1.9375 -2.109375,-1.9375 -1.125,0 -1.859375,0.921875 -1.859375,1.8125 0,0.546875 0.5,0.546875 0.53125,0.546875 0.171875,0 0.515625,-0.109375 0.515625,-0.53125 0,-0.25 -0.1875,-0.515625 -0.53125,-0.515625 -0.078125,0 -0.09375,0 -0.125,0.015625 0.21875,-0.65625 0.765625,-1.015625 1.34375,-1.015625 0.90625,0 1.328125,0.8125 1.328125,1.625 C 3.5625,-3.90625 3.078125,-3.125 2.515625,-2.5 l -1.90625,2.125 C 0.5,-0.265625 0.5,-0.234375 0.5,0 l 3.703125,0 0.265625,-1.734375 -0.234375,0 C 4.171875,-1.4375 4.109375,-1 4,-0.84375 3.9375,-0.765625 3.28125,-0.765625 3.0625,-0.765625 z"
             style="stroke:none" />
        </symbol>
      </g>
    </defs>
    <g
       id="textext-4b8fbe50-2">
      <g
         id="g3665"
         style="fill:#000000;fill-opacity:1">
        <use
           height="1052.3622"
           width="744.09448"
           id="use3667"
           y="134.765"
           x="223.43201"
           xlink:href="#textext-4b8fbe50-1" />
      </g>
    </g>
  </g>
</svg>
