<?xml version="1.0" encoding="UTF-8" standalone="no"?>
<svg
   xmlns:osb="http://www.openswatchbook.org/uri/2009/osb"
   xmlns:dc="http://purl.org/dc/elements/1.1/"
   xmlns:cc="http://creativecommons.org/ns#"
   xmlns:rdf="http://www.w3.org/1999/02/22-rdf-syntax-ns#"
   xmlns:svg="http://www.w3.org/2000/svg"
   xmlns="http://www.w3.org/2000/svg"
   xmlns:xlink="http://www.w3.org/1999/xlink"
   xmlns:sodipodi="http://sodipodi.sourceforge.net/DTD/sodipodi-0.dtd"
   xmlns:inkscape="http://www.inkscape.org/namespaces/inkscape"
   version="1.1"
   width="746"
   height="742"
   viewBox="-362 -388 746 742"
   id="svg2"
   inkscape:version="0.48.4 r9939"
   sodipodi:docname="venn_matching.svg">
  <metadata
     id="metadata92">
    <rdf:RDF>
      <cc:Work
         rdf:about="">
        <dc:format>image/svg+xml</dc:format>
        <dc:type
           rdf:resource="http://purl.org/dc/dcmitype/StillImage" />
        <dc:title>Radially-symmetrical Five-set Venn Diagram</dc:title>
      </cc:Work>
    </rdf:RDF>
  </metadata>
  <sodipodi:namedview
     pagecolor="#ffffff"
     bordercolor="#666666"
     borderopacity="1"
     objecttolerance="10"
     gridtolerance="10"
     guidetolerance="10"
     inkscape:pageopacity="0"
     inkscape:pageshadow="2"
     inkscape:window-width="1918"
     inkscape:window-height="1152"
     id="namedview90"
     showgrid="false"
     inkscape:zoom="0.89960755"
     inkscape:cx="207.58806"
     inkscape:cy="263.35997"
     inkscape:window-x="0"
     inkscape:window-y="0"
     inkscape:window-maximized="1"
     inkscape:current-layer="svg2" />
  <title
     id="title4">Radially-symmetrical Five-set Venn Diagram</title>
  <desc
     id="desc6">Devised by Branko Gruenbaum and rendered by CMG Lee.</desc>
  <defs
     id="defs8">
    <pattern
       inkscape:stockid="Stripes 1:1.5 white"
       id="Strips1_1.5white"
       patternTransform="translate(0,0) scale(10,10)"
       height="1"
       width="2.5"
       patternUnits="userSpaceOnUse"
       inkscape:collect="always">
      <rect
         id="rect4569"
         height="2"
         width="1"
         y="-0.5"
         x="0"
         style="fill:white;stroke:none" />
    </pattern>
    <linearGradient
       id="linearGradient5333"
       osb:paint="solid">
      <stop
         style="stop-color:#b3b3b3;stop-opacity:1;"
         offset="0"
         id="stop5335" />
    </linearGradient>
    <ellipse
       id="ellipse"
       cx="36"
       cy="-56"
       rx="160"
       ry="320" />
    <g
       id="ellipses">
      <use
         xlink:href="#ellipse"
         fill="#0000ff"
         id="use12" />
      <use
         xlink:href="#ellipse"
         fill="#0099ff"
         transform="rotate(72)"
         id="use14" />
      <use
         xlink:href="#ellipse"
         fill="#00cc00"
         transform="rotate(144)"
         id="use16" />
      <use
         xlink:href="#ellipse"
         fill="#cc9900"
         transform="rotate(216)"
         id="use18" />
      <use
         xlink:href="#ellipse"
         fill="#ff0000"
         transform="rotate(288)"
         id="use20" />
    </g>
  </defs>
  <use
     xlink:href="#ellipses"
     fill-opacity="0"
     stroke="#000"
     stroke-width="2"
     id="use24" />
  <path
     style="fill:#808080;fill-opacity:0;stroke:#808080;stroke-width:0.78601694000000000;stroke-miterlimit:4;stroke-opacity:1;stroke-dasharray:2.35805084000000020, 0.78601695000000005;stroke-dashoffset:0"
     d="m 153.24602,685.35223 c -33.72049,-4.38094 -58.888386,-24.79721 -71.336273,-57.86819 -2.75058,-7.30762 -5.672547,-19.15493 -7.19615,-29.17728 -1.778896,-11.70168 -1.764629,-40.95941 0.02671,-54.77604 5.044183,-38.90585 16.428033,-77.42755 35.097383,-118.76569 l 5.00463,-11.08136 7.96655,5.44584 7.96655,5.44584 -2.70179,5.63552 c -11.7498,24.50835 -14.38968,53.01155 -6.93623,74.89156 12.94728,38.0074 51.99123,64.64295 112.10879,76.47996 9.46861,1.86435 24.28882,3.99709 27.84392,4.00694 2.11466,0.006 3.50155,1.25552 11.06392,9.96914 4.7554,5.47934 14.19406,15.66937 20.97481,22.64451 l 12.32863,12.68207 -13.11465,8.74856 c -51.86792,34.6002 -100.82358,50.69104 -139.0968,45.71862 l 0,0 z"
     id="path3833"
     inkscape:connector-curvature="0"
     transform="translate(-362,-388)" />
  <g
     id="g5435"
     transform="translate(107.82479,-6.6695753)">
    <rect
       transform="scale(1,-1)"
       y="-269.51874"
       x="-360.8884"
       height="73.365326"
       width="73.365326"
       id="rect5343-4-3"
       style="fill:#ffffff;fill-opacity:1;stroke:#b3b3b3;stroke-width:0;stroke-miterlimit:4;stroke-opacity:1;stroke-dasharray:none;stroke-dashoffset:0" />
    <text
       sodipodi:linespacing="125%"
       id="text3126"
       y="247.41606"
       x="-350.5723"
       style="font-size:28px;font-style:normal;font-variant:normal;font-weight:normal;font-stretch:normal;line-height:125%;letter-spacing:0px;word-spacing:0px;fill:#000000;fill-opacity:1;stroke:none;font-family:TeX Gyre Heros;-inkscape-font-specification:TeX Gyre Heros"
       xml:space="preserve"><tspan
         style="font-size:40px"
         y="247.41606"
         x="-350.5723"
         id="tspan3128"
         sodipodi:role="line">FP</tspan></text>
  </g>
  <path
     style="fill:#666666;fill-opacity:1;stroke:#666666;stroke-width:1.5;stroke-miterlimit:4;stroke-opacity:1;stroke-dasharray:none;stroke-dashoffset:0"
     d="M 98.754211,397.27836 C 57.595315,364.48067 27.901351,325.86807 17.379388,291.46248 2.0090375,241.20323 28.736347,196.40759 87.313396,174.25134 123.55021,160.54509 168.49564,154.69099 217.37011,157.31159 c 19.30173,1.03494 42.16515,3.16252 43.16292,4.01657 0.20157,0.17253 -0.78329,4.32455 -2.18857,9.2267 l -2.55504,8.91301 -3.36942,-0.75726 c -7.15163,-1.60728 -34.2386,-0.81544 -43.38686,1.26833 -13.22499,3.01237 -29.56534,11.326 -38.66872,19.67385 -23.36114,21.4223 -34.14081,52.08617 -34.14081,97.11708 0,16.03821 0.85939,24.57773 4.61654,45.87329 l 2.38405,13.51277 -4.45209,7.05176 c -2.44863,3.87847 -9.08932,15.68051 -14.75705,26.22678 -5.66775,10.54626 -10.47061,19.17502 -10.67302,19.17502 -0.20242,0 -6.76694,-5.09901 -14.587829,-11.33113 l 0,0 z"
     id="path5493"
     inkscape:connector-curvature="0"
     transform="translate(-362,-388)" />
  <path
     style="fill:#666666;fill-opacity:1;stroke:#666666;stroke-width:1.66739368;stroke-miterlimit:4;stroke-opacity:1;stroke-dasharray:none;stroke-dashoffset:0"
     d="m 574.1126,504.46136 c -1.3578,-4.114 -2.66365,-8.01273 -2.90189,-8.66385 -0.23824,-0.65112 4.10046,-3.86745 9.64156,-7.14739 18.70455,-11.07178 34.9926,-28.8478 42.0803,-45.92443 17.8562,-43.0216 -0.0955,-93.19885 -51.77571,-144.71998 l -13.38035,-13.33915 -0.75916,-8.33697 c -0.83945,-9.21867 -4.6631,-40.32116 -5.79572,-47.14371 l -0.72169,-4.34727 16.5705,0.75087 c 82.91829,3.75734 138.57303,29.40126 158.79417,73.16728 23.93895,51.8127 -13.67918,121.68613 -97.75984,181.58308 -13.05247,9.29824 -36.49364,23.98534 -45.84329,28.72317 l -5.68015,2.87834 -2.46873,-7.47999 0,0 z"
     id="path5495"
     inkscape:connector-curvature="0"
     transform="translate(-362,-388)" />
  <path
     style="fill:#666666;fill-opacity:1;stroke:#666666;stroke-width:1.66739368;stroke-miterlimit:4;stroke-opacity:1;stroke-dasharray:none;stroke-dashoffset:0"
     d="m 564.83071,480.02887 c -2.39772,-5.96058 -6.77463,-15.70544 -9.72647,-21.65526 -5.51498,-11.11617 -6.14599,-14.4218 -4.30073,-22.53002 1.59348,-7.00187 5.32605,-37.2863 6.85024,-55.57979 0.76936,-9.2339 1.36006,-32.96955 1.32382,-53.19418 l -0.0654,-36.52024 10.52248,10.39774 c 73.1002,72.23362 75.95701,146.11779 7.20993,186.46658 -3.23664,1.89964 -6.23794,3.45359 -6.66957,3.45323 -0.43163,-3.6e-4 -2.74655,-4.87748 -5.14426,-10.83806 l 0,0 z"
     id="path5497"
     inkscape:connector-curvature="0"
     transform="translate(-362,-388)" />
  <path
     style="fill:url(#Strips1_1.5white);fill-opacity:1.0;stroke:#666666;stroke-width:0;stroke-miterlimit:4;stroke-opacity:1;stroke-dasharray:none;stroke-dashoffset:0"
     d="m 110.92204,406.65144 c -1.36858,-1.36858 -2.87737,-2.48833 -3.35288,-2.48833 -0.4755,0 -1.69464,-0.87538 -2.70919,-1.94529 -1.01455,-1.06991 -3.21117,-2.94573 -4.88139,-4.16849 -1.670216,-1.22275 -4.403409,-3.59879 -6.073762,-5.28008 -1.670353,-1.68128 -3.395135,-3.05688 -3.83285,-3.05688 -2.258464,0 -36.106446,-34.28584 -36.106446,-36.57353 0,-0.53078 -1.250546,-1.78443 -2.77899,-2.7859 -1.528444,-1.00148 -2.77899,-2.57537 -2.77899,-3.49753 0,-0.92216 -0.750327,-1.96458 -1.667393,-2.31649 -0.917067,-0.35192 -1.667394,-1.28313 -1.667394,-2.06938 0,-0.78624 -0.750327,-1.71746 -1.667394,-2.06938 -0.917066,-0.35191 -1.667394,-1.40585 -1.667394,-2.34212 0,-0.93625 -0.500218,-1.70227 -1.111595,-1.70227 -0.611378,0 -1.111596,-0.69682 -1.111596,-1.54847 0,-0.85166 -0.782032,-1.84856 -1.737849,-2.21534 -0.955817,-0.36678 -1.426514,-1.17062 -1.045993,-1.78633 0.38052,-0.61569 0.162116,-1.11944 -0.485343,-1.11944 -0.647459,0 -1.177199,-0.75033 -1.177199,-1.66739 0,-0.91707 -0.529739,-1.6674 -1.177198,-1.6674 -0.647459,0 -0.868048,-0.50021 -0.490195,-1.11159 0.377852,-0.61138 0.157264,-1.1116 -0.490195,-1.1116 -0.647459,0 -1.177199,-0.75033 -1.177199,-1.66739 0,-0.91707 -0.52974,-1.6674 -1.177199,-1.6674 -0.647459,0 -0.868047,-0.50021 -0.490195,-1.11159 0.377853,-0.61138 0.242771,-1.1116 -0.300182,-1.1116 -1.109847,0 -6.523292,-11.0619 -6.091494,-12.44744 0.152845,-0.49043 -0.222319,-0.89171 -0.833697,-0.89171 -0.611377,0 -1.005324,-0.37516 -0.875435,-0.83369 0.129889,-0.45854 -0.387929,-1.95919 -1.150706,-3.33479 -0.762776,-1.3756 -1.057909,-2.50109 -0.655849,-2.50109 0.402059,0 0.108301,-0.75033 -0.652797,-1.6674 -0.761098,-0.91706 -1.011207,-1.66739 -0.555798,-1.66739 0.455409,0 0.2053,-0.75033 -0.555798,-1.66739 -0.761098,-0.91707 -1.011207,-1.6674 -0.555798,-1.6674 0.455409,0 0.248998,-0.69767 -0.458691,-1.55038 -0.707689,-0.85272 -1.20992,-1.97821 -1.116068,-2.50109 0.09385,-0.52289 0.07313,-1.20082 -0.04605,-1.50651 -2.329115,-5.97416 -3.383473,-26.52315 -1.825134,-35.57106 1.166282,-6.77158 1.487419,-8.32965 1.775631,-8.61487 0.154449,-0.15284 0.40587,-0.77812 0.558714,-1.3895 0.152845,-0.61137 0.402954,-1.3617 0.555798,-1.66739 0.152845,-0.30569 0.358152,-0.93096 0.456239,-1.38949 0.09809,-0.45854 0.736558,-1.83414 1.418827,-3.05689 0.682268,-1.22276 1.238016,-2.61981 1.234995,-3.10457 -0.01197,-1.92038 2.779533,-7.45559 3.759976,-7.45559 0.573287,0 0.733189,-0.50022 0.355336,-1.1116 -0.377852,-0.61138 -0.157264,-1.11159 0.490195,-1.11159 0.647459,0 1.177199,-0.75033 1.177199,-1.6674 0,-0.91706 0.500218,-1.66739 1.111596,-1.66739 0.611377,0 1.111596,-0.58331 1.111596,-1.29625 0,-0.71293 0.766363,-2.08853 1.703029,-3.05689 0.936666,-0.96835 4.918495,-5.13711 8.848507,-9.26391 3.930013,-4.1268 7.648013,-7.50327 8.262223,-7.50327 0.61421,0 1.652163,-1.00044 2.306561,-2.22319 0.654399,-1.22276 1.922544,-2.2232 2.8181,-2.2232 0.895556,0 1.628284,-0.50021 1.628284,-1.11159 0,-0.61138 0.750327,-1.1116 1.667393,-1.1116 0.917067,0 1.667394,-0.50022 1.667394,-1.11159 0,-0.61138 0.750327,-1.1116 1.667394,-1.1116 0.917066,0 1.667393,-0.52974 1.667393,-1.1772 0,-0.64746 0.500219,-0.86805 1.111596,-0.49019 0.611378,0.37785 1.111596,0.15726 1.111596,-0.4902 0,-0.64746 0.750327,-1.1772 1.667394,-1.1772 0.917066,0 1.667394,-0.52974 1.667394,-1.1772 0,-0.64745 0.500218,-0.86804 1.111595,-0.49019 0.611378,0.37785 1.111596,0.12774 1.111596,-0.5558 0,-0.68354 0.500218,-0.93365 1.111596,-0.5558 0.611378,0.37786 1.111596,0.12775 1.111596,-0.55579 0,-0.68355 0.500218,-0.93365 1.111596,-0.5558 0.611377,0.37785 1.111596,0.12774 1.111596,-0.5558 0,-0.68354 0.500218,-0.93365 1.111595,-0.5558 0.611378,0.37785 1.111596,0.15727 1.111596,-0.49019 0,-0.64746 0.375164,-1.07093 0.833697,-0.94104 0.458533,0.12989 1.893418,-0.35273 3.188632,-1.07249 1.295213,-0.71975 2.670813,-0.99276 3.056888,-0.60669 0.386075,0.38608 0.701954,0.11837 0.701954,-0.59491 0,-0.71327 0.375164,-1.2196 0.833697,-1.12518 0.458533,0.0944 2.693449,-0.6559 4.966478,-1.66739 2.27303,-1.01149 4.649066,-1.83908 5.28008,-1.83908 0.631015,0 1.147299,-0.39302 1.147299,-0.87339 0,-0.48037 0.875382,-0.93703 1.945293,-1.0148 2.350828,-0.17087 8.614872,-1.22887 8.614872,-1.45505 0,-0.0889 0.87538,-0.37348 1.94529,-0.63239 l 3.89059,-0.9415 c 1.06991,-0.25891 1.94529,-0.57286 1.94529,-0.69766 0,-0.22678 1.99275,-0.64538 7.22537,-1.51779 1.52845,-0.25482 2.77899,-0.56885 2.77899,-0.69782 0,-0.24694 2.00113,-0.63368 8.21941,-1.58852 2.07516,-0.31865 4.45119,-1.14219 5.28008,-1.8301 1.12936,-0.93729 1.50705,-0.90824 1.50705,0.11588 0,0.8777 0.69596,1.06874 1.9453,0.53397 2.66005,-1.13862 11.32898,-2.18704 29.17939,-3.52896 19.18935,-1.44257 58.76079,-0.59539 65.30625,1.39813 1.44602,0.44041 2.50109,0.28798 2.50109,-0.36134 0,-0.75517 1.54766,-0.7577 4.72429,-0.008 4.91785,1.16105 11.82147,2.09114 16.11813,2.17152 2.50345,0.0468 3.4389,2.43558 1.43804,3.67218 -0.58467,0.36135 -0.80068,1.34071 -0.48001,2.17636 0.32067,0.83564 0.0406,1.85462 -0.62248,2.2644 -0.66303,0.40978 -0.90417,1.23261 -0.53588,1.82852 0.3683,0.59592 0.0651,1.8119 -0.67377,2.70219 -0.73888,0.89029 -0.9708,1.6187 -0.51539,1.6187 0.45541,0 0.27088,0.6713 -0.41005,1.49177 -0.68093,0.82048 -0.86723,1.89128 -0.414,2.37957 0.45322,0.48829 -0.6766,0.52544 -2.51074,0.0826 -6.89795,-1.66563 -45.69552,-0.33376 -48.07652,1.6504 -0.15284,0.12737 -0.77811,0.35664 -1.38949,0.50948 -0.61138,0.15285 -1.36171,0.40296 -1.6674,0.5558 -0.30568,0.15284 -1.05601,0.40295 -1.66739,0.5558 -0.61138,0.15284 -1.48676,0.39966 -1.94529,0.54848 -0.45854,0.14883 -1.20886,0.21135 -1.6674,0.13895 -0.45853,-0.0724 -0.83369,0.39811 -0.83369,1.04557 0,0.64745 -0.50022,0.86804 -1.1116,0.49019 -0.61138,-0.37785 -1.11159,-0.26738 -1.11159,0.24549 0,0.51287 -2.50109,1.90305 -5.55798,3.0893 -3.05689,1.18624 -5.55798,2.57643 -5.55798,3.0893 0,0.51287 -0.44781,0.65573 -0.99513,0.31747 -0.5473,-0.33826 -1.30941,0.20404 -1.69355,1.2051 -0.38414,1.00106 -1.01696,1.50158 -1.40626,1.11228 -0.38932,-0.38931 -1.4122,0.29779 -2.27309,1.52689 -0.86089,1.22909 -1.90619,2.07538 -2.3229,1.88063 -0.91804,-0.42904 -14.47776,13.46033 -13.80129,14.13681 0.26224,0.26223 -0.57235,1.13199 -1.85464,1.93279 -1.2823,0.8008 -2.33144,2.08601 -2.33144,2.85601 0,0.77 -0.52974,1.4 -1.1772,1.4 -0.64746,0 -0.91487,0.42447 -0.59424,0.94325 0.32063,0.51879 -0.37005,1.9662 -1.53485,3.21646 -1.1648,1.25027 -1.81446,2.57657 -1.44369,2.94734 0.37077,0.37077 0.12425,0.67412 -0.54783,0.67412 -1.27121,0 -2.73822,3.43006 -3.06605,7.16889 -0.10449,1.19169 -0.73837,2.3495 -1.4086,2.57291 -0.67024,0.22341 -0.97384,1.04407 -0.67466,1.82368 0.29916,0.77962 -0.22366,2.05453 -1.16181,2.83313 -0.93815,0.7786 -1.41808,1.88109 -1.06649,2.44998 0.35159,0.56888 0.0347,1.76275 -0.70414,2.65303 -0.73888,0.89029 -0.9708,1.6187 -0.51539,1.6187 0.45541,0 0.27088,0.6713 -0.41005,1.49178 -0.68093,0.82047 -0.9422,1.78763 -0.58059,2.14923 0.3616,0.36161 0.26607,1.29076 -0.21231,2.06478 -0.78731,1.27389 -1.33182,4.16399 -1.64762,8.74496 -0.0632,0.91707 -0.39431,2.41772 -0.73576,3.33479 -1.08176,2.90543 -1.41583,9.95642 -1.55364,32.79207 -0.0738,12.22756 0.21005,24.23279 0.6308,26.6783 0.42075,2.44551 0.86477,5.69693 0.98671,7.22538 0.12194,1.52844 0.58777,3.35414 1.03515,4.0571 0.4474,0.70296 0.80949,2.45372 0.80464,3.89058 -0.004,1.43686 0.3039,4.36324 0.68608,6.50306 1.10399,6.1813 0.939,13.45342 -0.32361,14.26317 -0.63753,0.40885 -1.51038,1.86887 -1.93968,3.24447 -0.42928,1.3756 -1.27655,2.50109 -1.88281,2.50109 -0.60626,0 -0.79314,0.50022 -0.41529,1.11159 0.37785,0.61138 0.19701,1.1116 -0.40187,1.1116 -0.59889,0 -1.4259,1.53446 -1.83782,3.4099 -0.41191,1.87544 -1.44922,3.67862 -2.30512,4.00706 -0.85591,0.32844 -1.27944,1.04497 -0.94118,1.59228 0.33826,0.54732 0.1395,0.99512 -0.44167,0.99512 -0.58119,0 -1.37057,1.25055 -1.75418,2.77899 -0.38362,1.52845 -1.2177,2.77899 -1.85351,2.77899 -0.63581,0 -0.84687,0.50022 -0.46901,1.1116 0.37785,0.61137 0.25775,1.11159 -0.26688,1.11159 -0.52466,0 -1.58699,1.75077 -2.36076,3.89059 -0.77377,2.13982 -1.90422,3.89058 -2.5121,3.89058 -0.60788,0 -0.79609,0.50022 -0.41824,1.1116 0.37785,0.61138 0.21149,1.11159 -0.36969,1.11159 -1.01613,0 -2.96722,5.23032 -2.59164,6.94748 0.10028,0.45853 -0.59751,0.8337 -1.55066,0.8337 -0.95315,0 -1.42384,0.50021 -1.04599,1.11159 0.37785,0.61138 0.19394,1.1116 -0.40869,1.1116 -0.60263,0 -1.26317,0.86963 -1.46786,1.93253 -0.33193,1.72357 -0.64122,1.66347 -2.8605,-0.5558 l 0,0 z"
     id="path5499"
     inkscape:connector-curvature="0"
     transform="translate(-362,-388)" />
  <g
     id="g5430"
     transform="translate(-62.249366,142.28426)">
    <rect
       transform="scale(1,-1)"
       y="235.14578"
       x="-257.50998"
       height="73.365326"
       width="73.365326"
       id="rect5343-4"
       style="fill:#ffffff;fill-opacity:1;stroke:#b3b3b3;stroke-width:0;stroke-miterlimit:4;stroke-opacity:1;stroke-dasharray:none;stroke-dashoffset:0" />
    <text
       sodipodi:linespacing="125%"
       id="text3122"
       y="-257.24844"
       x="-252.06702"
       style="font-size:28px;font-style:normal;font-variant:normal;font-weight:normal;font-stretch:normal;line-height:125%;letter-spacing:0px;word-spacing:0px;fill:#000000;fill-opacity:1;stroke:none;font-family:TeX Gyre Heros;-inkscape-font-specification:TeX Gyre Heros"
       xml:space="preserve"><tspan
         style="font-size:40px"
         y="-257.24844"
         x="-252.06702"
         id="tspan3124"
         sodipodi:role="line">MA</tspan></text>
  </g>
  <path
     style="fill:url(#Strips1_1.5white);fill-opacity:1.0;stroke:#666666;stroke-width:0;stroke-miterlimit:4;stroke-opacity:1;stroke-dasharray:none;stroke-dashoffset:0"
     d="m 573.42248,503.95459 c -1.71552,-5.63851 -2.09706,-8.42074 -1.2884,-9.39512 0.63189,-0.76137 5.2302,-3.978 10.21846,-7.14804 12.86487,-8.17562 28.91549,-24.61014 35.51096,-36.36031 5.08058,-9.05129 8.7608,-19.40017 10.24433,-28.80729 0.89641,-5.68417 1.0446,-24.64279 0.21083,-26.97349 -0.32806,-0.91706 -0.96589,-3.66826 -1.41739,-6.11377 -0.4515,-2.44551 -0.93601,-5.00069 -1.0767,-5.67818 -0.94891,-4.56967 -6.89974,-19.89402 -9.88151,-25.44651 -13.1489,-24.48513 -22.28258,-36.46328 -46.83006,-61.41416 -6.76761,-6.87883 -11.93517,-12.50696 -11.48346,-12.50696 0.4517,0 0.31998,-1.81555 -0.29271,-4.03455 -0.6127,-2.219 -0.86945,-4.9697 -0.57055,-6.11267 0.29889,-1.14296 0.0723,-2.36929 -0.50351,-2.72517 -0.57583,-0.35588 -1.04769,-2.4823 -1.0486,-4.72539 -0.002,-4.57716 -0.37485,-7.91621 -2.75285,-24.64286 -2.73524,-19.23952 -2.82106,-17.90105 1.10211,-17.19063 1.86956,0.33855 8.15128,0.80109 13.95936,1.02787 18.50397,0.7225 30.2606,1.76626 32.32216,2.86957 1.31125,0.70176 2.24403,0.68068 2.70246,-0.0611 0.38504,-0.62301 1.25223,-0.79149 1.92709,-0.3744 1.68636,1.04223 9.75551,2.74784 12.73712,2.6923 1.3453,-0.0251 2.73692,0.42515 3.09248,1.00047 0.35557,0.57532 1.38717,0.76181 2.29244,0.41443 0.90527,-0.34739 2.31088,-0.0798 3.12357,0.5947 0.81269,0.67447 1.77347,0.93045 2.13508,0.56885 0.3616,-0.36161 1.29486,-0.26354 2.07389,0.21793 0.77904,0.48147 2.43802,0.99174 3.68664,1.13394 4.88384,0.55617 8.23478,1.50792 18.94415,5.3806 6.11378,2.21083 11.61618,4.14408 12.22756,4.29609 0.61138,0.15202 5.9454,2.82656 11.85338,5.94343 32.07867,16.92372 50.65901,40.08772 55.52993,69.22886 1.4008,8.38053 1.32081,18.14117 -0.20916,25.52141 -0.58335,2.81394 -1.29115,6.5718 -1.57289,8.35081 -1.31162,8.28194 -13.08065,36.2271 -15.25696,36.2271 -0.55522,0 -0.74716,0.42446 -0.42653,0.94325 0.32062,0.51878 -0.41967,2.01944 -1.6451,3.33479 -1.22542,1.31534 -1.92439,2.39153 -1.55326,2.39153 0.37114,0 -0.39377,1.50066 -1.69978,3.33479 -1.30601,1.83413 -1.9948,3.33479 -1.53062,3.33479 0.46417,0 0.0747,0.62527 -0.86556,1.38949 -0.94022,0.76422 -5.16263,5.89146 -9.38312,11.39386 -9.96274,12.98875 -31.14078,34.18638 -46.57948,46.62257 -6.72516,5.41724 -13.07584,10.79621 -14.11262,11.95324 -1.03679,1.15703 -2.03722,1.9919 -2.22319,1.85525 -0.73466,-0.5398 -9.78669,6.07667 -9.78669,7.15346 0,0.63203 -0.30768,0.84148 -0.68372,0.46543 -0.37605,-0.37604 -5.00307,2.21653 -10.28227,5.76127 -10.12465,6.79825 -36.39364,22.34971 -37.72002,22.33056 -0.429,-0.007 -1.87679,-3.61613 -3.21729,-8.02206 l 0,0 z"
     id="path5503"
     inkscape:connector-curvature="0"
     transform="translate(-362,-388)" />
  <g
     id="g5445"
     transform="translate(-43.352238,147.84225)">
    <rect
       transform="scale(1,-1)"
       y="170.53717"
       x="313.30893"
       height="73.365326"
       width="73.365326"
       id="rect5343-4-8"
       style="fill:#ffffff;fill-opacity:1;stroke:#b3b3b3;stroke-width:0;stroke-miterlimit:4;stroke-opacity:1;stroke-dasharray:none;stroke-dashoffset:0" />
    <text
       sodipodi:linespacing="125%"
       id="text3134"
       y="-192.63983"
       x="321.25845"
       style="font-size:28px;font-style:normal;font-variant:normal;font-weight:normal;font-stretch:normal;line-height:125%;letter-spacing:0px;word-spacing:0px;fill:#000000;fill-opacity:1;stroke:none;font-family:TeX Gyre Heros;-inkscape-font-specification:TeX Gyre Heros"
       xml:space="preserve"><tspan
         style="font-size:40px"
         y="-192.63983"
         x="321.25845"
         id="tspan3136"
         sodipodi:role="line">RS</tspan></text>
  </g>
  <path
     style="fill:url(#Strips1_1.5white);fill-opacity:1.0;stroke:#666666;stroke-width:0;stroke-miterlimit:4;stroke-opacity:1;stroke-dasharray:none;stroke-dashoffset:0"
     d="m 566.97082,485.31715 c -1.54694,-3.05273 -2.79577,-5.80917 -2.77519,-6.12542 0.0206,-0.31624 -0.70309,-2.00699 -1.60816,-3.7572 -0.90507,-1.75021 -1.33206,-3.49573 -0.94885,-3.87894 0.3832,-0.3832 0.19343,-0.69673 -0.42171,-0.69673 -1.27012,0 -2.39763,-2.24561 -7.81373,-15.56234 -3.12125,-7.6743 -3.72554,-10.38787 -3.21805,-14.45075 0.34366,-2.7512 0.62044,-6.59025 0.61509,-8.53122 -0.005,-1.94098 0.48177,-3.83281 1.0825,-4.20409 0.60073,-0.37127 0.83139,-1.35476 0.51259,-2.18556 -0.3188,-0.83078 -0.0234,-4.19124 0.65638,-7.46767 0.67982,-3.27644 1.19154,-7.84664 1.13717,-10.15603 -0.0544,-2.30937 0.20407,-4.68902 0.57432,-5.28809 0.37025,-0.59907 0.89231,-4.80673 1.16014,-9.35035 0.26783,-4.54361 0.97402,-9.54219 1.56932,-11.10794 0.5953,-1.56575 0.70933,-2.84682 0.2534,-2.84682 -0.45592,0 -0.44892,-5.37734 0.0156,-11.94965 1.244,-17.60191 1.34318,-21.98554 1.04999,-46.40913 -0.14679,-12.22755 -0.24769,-24.22174 -0.22423,-26.65376 l 0.0426,-4.42184 9.55926,9.42403 c 13.18593,12.99938 25.63788,27.92256 34.54666,41.40282 4.13403,6.25539 8.03169,11.74094 8.66145,12.19011 0.62976,0.44917 0.76266,0.82434 0.29533,0.8337 -0.46734,0.009 0.65953,3.00679 2.50415,6.66096 1.84462,3.65417 3.52955,7.53086 3.74429,8.61487 0.21474,1.08401 1.19264,3.78005 2.17312,5.99121 3.87919,8.74826 5.75374,20.13536 5.76058,34.99307 0.005,9.96743 -0.42842,15.0824 -1.37315,16.22042 -0.75891,0.91419 -1.13278,1.90923 -0.83082,2.2112 0.71376,0.71375 -2.97775,11.41609 -5.94158,17.22567 -1.27196,2.49325 -2.00061,4.84523 -1.61922,5.22662 0.3814,0.38138 0.193,0.69343 -0.41865,0.69343 -0.61166,0 -3.0284,2.78238 -5.37054,6.18306 -4.98865,7.24331 -16.13624,17.77429 -25.56838,24.1541 -3.66827,2.48119 -6.91969,4.80908 -7.22537,5.1731 -0.56774,0.67608 -6.38141,3.3956 -7.25895,3.3956 -0.26663,0 -1.75045,-2.49769 -3.29739,-5.55044 l 0,0 z"
     id="path5509"
     inkscape:connector-curvature="0"
     transform="translate(-362,-388)" />
  <path
     style="fill:#666666;fill-opacity:1;stroke:#666666;stroke-width:2.22319173999999986;stroke-miterlimit:4;stroke-opacity:1;stroke-dasharray:none;stroke-dashoffset:0"
     d="m 484.48658,727.68486 c -18.43455,-2.14723 -43.65741,-9.83394 -65.41878,-19.93649 -32.72694,-15.19324 -73.51869,-43.59815 -102.08695,-71.08722 l -6.32434,-6.08543 7.16717,-5.42568 7.16717,-5.42569 7.60502,6.54544 c 20.69633,17.81279 38.56673,25.55065 61.41803,26.59394 14.68926,0.67065 24.72261,-1.03288 37.76839,-6.41252 31.32687,-12.91817 62.72582,-48.25622 84.22521,-94.79157 4.25923,-9.21908 4.31769,-9.28307 10.83582,-11.85942 3.60441,-1.42468 15.7747,-7.02253 27.04509,-12.43966 11.27038,-5.41713 20.86118,-9.46637 21.31286,-8.99831 2.83238,2.93506 12.90661,47.11193 15.53033,68.10258 1.97602,15.80879 1.6608,45.09903 -0.62736,58.29589 -7.76932,44.80919 -32.22453,73.37019 -69.54486,81.22076 -9.87792,2.07788 -26.22887,2.84998 -36.0728,1.70338 l 0,0 z"
     id="path3026"
     inkscape:connector-curvature="0"
     transform="translate(-362,-388)" />
  <path
     style="fill:#666666;fill-opacity:1;stroke:#666666;stroke-width:2.22319174;stroke-miterlimit:4;stroke-opacity:1;stroke-dasharray:none;stroke-dashoffset:0"
     d="m 522.89049,536.72092 c 0.0296,-0.45854 2.40566,-7.04174 5.28008,-14.62934 l 5.22623,-13.79564 6.66957,-1.9044 c 3.66827,-1.04742 11.33615,-3.76206 17.03975,-6.03254 5.70359,-2.27048 10.49911,-3.95928 10.65671,-3.75289 0.34684,0.45422 6.20722,16.47512 6.20722,16.96908 0,0.89045 -48.74746,23.97942 -50.62748,23.97942 -0.27826,0 -0.4817,-0.37516 -0.45208,-0.83369 z"
     id="path3028"
     inkscape:connector-curvature="0"
     transform="translate(-362,-388)" />
  <path
     style="fill:#666666;fill-opacity:1;stroke:#666666;stroke-width:2.22319174;stroke-miterlimit:4;stroke-opacity:1;stroke-dasharray:none;stroke-dashoffset:0"
     d="m 535.06419,502.71336 c 0,-0.82135 0.92661,-4.19782 2.05912,-7.50327 1.74737,-5.09998 9.1595,-34.61671 10.44166,-41.58096 0.30287,-1.6451 1.30082,-0.48711 3.83784,4.4533 5.93199,11.55156 14.96708,34.16093 14.02322,35.09167 -1.05791,1.04321 -27.50293,11.03264 -29.20672,11.03264 -0.63531,0 -1.15512,-0.67202 -1.15512,-1.49338 z"
     id="path3030"
     inkscape:connector-curvature="0"
     transform="translate(-362,-388)" />
  <path
     style="fill:#666666;fill-opacity:1;stroke:#666666;stroke-width:2.22319174;stroke-miterlimit:4;stroke-opacity:1;stroke-dasharray:none;stroke-dashoffset:0"
     d="m 143.93972,343.30324 c -8.32786,-47.68519 -5.45562,-85.52742 8.6671,-114.19037 9.35847,-18.99361 21.09839,-30.75466 39.62702,-39.69835 13.70419,-6.61496 27.27921,-9.05669 46.39607,-8.34524 8.45259,0.31457 15.60451,0.80811 15.89316,1.09676 0.28866,0.28865 -0.71898,5.4615 -2.23919,11.49522 -1.52021,6.03372 -3.83542,16.75898 -5.14493,23.83391 l -2.38092,12.8635 -15.11487,15.48219 c -27.53592,28.20508 -54.22232,61.06931 -74.18894,91.36347 -4.89103,7.42085 -9.18782,13.51716 -9.54844,13.54733 -0.36062,0.0302 -1.24535,-3.32162 -1.96606,-7.44842 z"
     id="path3032"
     inkscape:connector-curvature="0"
     transform="translate(-362,-388)" />
  <path
     style="fill:url(#Strips1_1.5white);fill-opacity:1.0;stroke:#666666;stroke-width:0;stroke-miterlimit:4;stroke-opacity:1;stroke-dasharray:none;stroke-dashoffset:0"
     d="m 479.4844,727.48323 c -13.1922,-2.71055 -21.55816,-4.88783 -32.79208,-8.53429 -6.72515,-2.18294 -12.47766,-4.0502 -12.78335,-4.14945 -2.85648,-0.92753 -14.77818,-6.46098 -23.34351,-10.83489 -30.33884,-15.49259 -66.55254,-41.21632 -91.8396,-65.23655 l -8.47074,-8.04637 2.63445,-2.37761 c 1.44894,-1.30767 4.75442,-3.8171 7.34551,-5.5765 l 4.71106,-3.1989 4.18171,3.16388 c 2.29993,1.74013 5.43224,4.33239 6.96069,5.76058 7.8997,7.38149 23.93172,16.37592 36.12686,20.26818 10.79041,3.44392 34.69714,4.39205 44.89154,1.78036 35.98947,-9.22006 68.47043,-40.34784 93.42946,-89.53709 4.24796,-8.37188 8.62826,-16.25159 9.734,-17.51048 1.82912,-2.08245 28.75323,-14.98639 47.31132,-22.67492 l 7.5066,-3.10996 1.51782,2.99522 c 1.94421,3.83666 8.67508,31.81793 12.48581,51.90544 2.56769,13.53511 2.96178,18.53078 3.02532,38.35006 0.0401,12.53324 -0.25212,25.36645 -0.64955,28.51824 -1.64979,13.08343 -8.29773,34.22023 -13.61857,43.29955 -1.47932,2.52429 -2.37371,4.90557 -1.98753,5.29176 0.38619,0.38618 0.20171,0.70216 -0.40995,0.70216 -0.61164,0 -3.0171,2.76598 -5.34544,6.14664 -11.90894,17.29124 -33.5259,29.63907 -57.28516,32.72188 -10.20661,1.32432 -26.60198,1.26681 -33.33667,-0.11694 l 0,0 z"
     id="path3034"
     inkscape:connector-curvature="0"
     transform="translate(-362,-388)" />
  <g
     id="g5450"
     transform="translate(-149.78117,26.884042)">
    <rect
       transform="scale(1,-1)"
       y="-273.96512"
       x="276.056"
       height="73.365326"
       width="73.365326"
       id="rect5343-4-08"
       style="fill:#ffffff;fill-opacity:1;stroke:#b3b3b3;stroke-width:0;stroke-miterlimit:4;stroke-opacity:1;stroke-dasharray:none;stroke-dashoffset:0" />
    <text
       sodipodi:linespacing="125%"
       id="text3130"
       y="251.86244"
       x="292.90555"
       style="font-size:28px;font-style:normal;font-variant:normal;font-weight:normal;font-stretch:normal;line-height:125%;letter-spacing:0px;word-spacing:0px;fill:#000000;fill-opacity:1;stroke:none;font-family:TeX Gyre Heros;-inkscape-font-specification:TeX Gyre Heros"
       xml:space="preserve"><tspan
         style="font-size:40px"
         y="251.86244"
         x="292.90555"
         id="tspan3132"
         sodipodi:role="line">NI</tspan></text>
  </g>
  <path
     style="fill:url(#Strips1_1.5white);fill-opacity:1.0;stroke:#666666;stroke-width:0;stroke-miterlimit:4;stroke-opacity:1;stroke-dasharray:none;stroke-dashoffset:0"
     d="m 522.56804,536.3315 c 0.29787,-0.85573 2.72187,-7.57737 5.38666,-14.93698 l 4.84508,-13.3811 16.61996,-5.51603 c 9.14098,-3.03381 17.11651,-5.51603 17.7234,-5.51603 0.9278,0 7.95633,16.27445 7.19528,16.66053 -0.14147,0.0718 -1.52368,0.91955 -3.07157,1.88395 -4.41323,2.74964 -43.17253,20.83859 -46.37112,21.64139 -2.17472,0.54582 -2.73818,0.34352 -2.32769,-0.83573 z"
     id="path5239"
     inkscape:connector-curvature="0"
     transform="translate(-362,-388)" />
  <path
     style="fill:url(#Strips1_1.5white);fill-opacity:1.0;stroke:#666666;stroke-width:0;stroke-miterlimit:4;stroke-opacity:1;stroke-dasharray:none;stroke-dashoffset:0"
     d="m 535.09849,501.14985 c 2.51659,-12.56147 12.40628,-48.04257 13.30725,-47.74224 2.03086,0.67695 15.51689,30.29725 16.86642,37.04487 0.7216,3.60802 1.48806,3.16072 -17.0809,9.96814 -12.7919,4.68954 -13.89853,4.75117 -13.09277,0.72923 z"
     id="path5244"
     inkscape:connector-curvature="0"
     transform="translate(-362,-388)" />
  <path
     style="fill:url(#Strips1_1.5white);fill-opacity:1.0;stroke:#666666;stroke-width:0;stroke-miterlimit:4;stroke-opacity:1;stroke-dasharray:none;stroke-dashoffset:0"
     d="m 145.09611,349.84199 c -0.32785,-0.53048 -1.35584,-5.40761 -2.28441,-10.83806 -7.25374,-42.42124 -4.21239,-81.02279 8.50422,-107.93755 1.95874,-4.14568 3.42333,-7.73177 3.25466,-7.96911 -0.16868,-0.23733 0.14422,-0.73755 0.69532,-1.11159 0.5511,-0.37405 2.61919,-3.05679 4.59576,-5.96166 7.09705,-10.43022 17.70184,-19.55945 29.84361,-25.69117 11.97478,-6.04739 22.17354,-8.59003 37.69406,-9.39745 13.05438,-0.67913 25.45626,0.008 26.94068,1.49222 0.29851,0.2985 -0.56959,5.91675 -1.92909,12.48498 -1.35951,6.56824 -3.48574,17.2155 -4.72498,23.66059 -2.24882,11.69581 -2.26537,11.73106 -8.61056,18.34133 -37.6372,39.20953 -54.79705,59.8987 -82.24726,99.16335 -5.66329,8.10075 -10.48568,14.72864 -10.7164,14.72864 -0.23073,0 -0.68775,-0.43403 -1.01561,-0.96452 z"
     id="path5249"
     inkscape:connector-curvature="0"
     transform="translate(-362,-388)" />
  <path
     style="fill:#666666;fill-opacity:1;stroke:#999999;stroke-width:0.75922;stroke-linecap:round;stroke-linejoin:round;stroke-miterlimit:4;stroke-opacity:1;stroke-dasharray:3.03687993, 3.03687993;stroke-dashoffset:0"
     d="m 249.38406,224.2381 c 0,-4.73589 7.87406,-39.52278 9.25966,-40.90839 0.6356,-0.6356 22.98411,5.32024 28.40138,7.56891 l 3.75736,1.55966 -9.31534,7.19234 c -5.12344,3.95579 -14.44258,11.58695 -20.7092,16.95814 -8.59334,7.36545 -11.39386,9.24068 -11.39386,7.62934 z"
     id="path3033"
     inkscape:connector-curvature="0"
     transform="translate(-362,-388)" />
  <path
     style="fill:url(#Strips1_1.5white);fill-opacity:1.0;stroke:none;stroke-width:0.75922000000000001;stroke-linecap:round;stroke-linejoin:round;stroke-miterlimit:4;stroke-opacity:1;stroke-dasharray:3.03687993000000001, 3.03687993000000001;stroke-dashoffset:0"
     d="m 250.49566,222.11161 c 0,-1.06408 4.10765,-21.20175 5.03935,-24.70532 3.4346,-12.91546 3.37498,-12.79519 6.16008,-12.42728 4.57393,0.60421 25.42579,6.44133 26.36485,7.38038 0.3584,0.35841 -0.46246,1.432 -1.82415,2.38576 -2.33155,1.63309 -20.10359,16.12902 -27.40316,22.35165 -4.99434,4.2575 -8.33697,6.26814 -8.33697,5.01481 z"
     id="path3035"
     inkscape:connector-curvature="0"
     transform="translate(-362,-388)" />
  <path
     style="fill:#666666;fill-opacity:1;stroke:#999999;stroke-width:0.75922;stroke-linecap:round;stroke-linejoin:round;stroke-miterlimit:4;stroke-opacity:1;stroke-dasharray:3.03687993, 3.03687993;stroke-dashoffset:0"
     d="m 526.70991,217.46789 c -1.33392,-8.89523 -6.06216,-23.44336 -10.5278,-32.39257 -16.31792,-32.70135 -45.46102,-49.9184 -84.49633,-49.9184 -26.07382,0 -57.11041,8.98859 -91.15086,26.39845 l -16.11814,8.24356 -12.78335,-2.81567 c -7.03085,-1.54863 -19.03608,-3.88642 -26.6783,-5.1951 -7.64222,-1.30868 -15.02044,-2.59332 -16.39604,-2.85475 -1.3756,-0.26143 -2.50109,-1.05406 -2.50109,-1.7614 0,-3.2801 12.12603,-33.18196 19.67992,-48.52917 29.92032,-60.789029 70.04815,-94.71059 111.9441,-94.630561 17.0817,0.03263 30.51766,3.996163 46.36765,13.678207 43.33762,26.472989 79.85143,91.405274 98.42328,175.025534 2.21013,9.95119 3.82335,18.27687 3.58491,18.50149 -0.23843,0.22463 -4.52197,0.58841 -9.51898,0.80841 l -9.08547,0.40002 -0.7435,-4.95805 z"
     id="path3042"
     inkscape:connector-curvature="0"
     transform="translate(-362,-388)" />
  <path
     style="fill:#666666;fill-opacity:1;stroke:#999999;stroke-width:0.75922;stroke-linecap:round;stroke-linejoin:round;stroke-miterlimit:4;stroke-opacity:1;stroke-dasharray:3.03687993, 3.03687993;stroke-dashoffset:0"
     d="m 389.89415,649.70793 c -18.65611,-1.74191 -37.0934,-10.38731 -54.36141,-25.49053 -3.66827,-3.2084 -6.80415,-6.1658 -6.96862,-6.57201 -0.16448,-0.40621 4.08737,-4.46025 9.44856,-9.00898 5.36119,-4.54873 13.74936,-12.07929 18.64038,-16.73457 8.76597,-8.34347 8.99579,-8.47547 16.11814,-9.25758 30.5059,-3.34987 82.75736,-16.49235 123.79009,-31.13614 9.69797,-3.46102 17.8597,-6.06575 18.13715,-5.78829 0.27747,0.27746 -2.79483,6.87831 -6.82731,14.66855 -32.1311,62.07324 -73.59289,93.46366 -117.97698,89.31955 z"
     id="path3044"
     inkscape:connector-curvature="0"
     transform="translate(-362,-388)" />
  <path
     style="fill:url(#Strips1_1.5white);fill-opacity:1.0;stroke:#999999;stroke-width:0.75922000000000001;stroke-linecap:round;stroke-linejoin:round;stroke-miterlimit:4;stroke-opacity:1;stroke-dasharray:3.03687993000000001, 3.03687993000000001;stroke-dashoffset:0"
     d="m 528.25566,221.25969 c -0.38838,-1.42519 -0.62011,-2.58059 -1.43998,-7.17946 -2.03153,-11.39542 -9.15727,-29.34788 -15.74783,-39.67479 -4.4281,-6.9385 -16.88823,-19.6369 -23.80228,-24.25744 -26.18414,-17.49838 -62.6877,-20.16487 -103.37841,-7.55149 -5.19671,1.61088 -9.92378,3.34717 -10.50458,3.85843 -0.58081,0.51124 -1.71176,0.92954 -2.51321,0.92954 -0.80145,0 -3.82777,1.05864 -6.72515,2.35253 -2.89739,1.2939 -7.01873,3.10768 -9.15856,4.03063 -2.13982,0.92296 -9.83367,4.64921 -17.09745,8.28059 l -13.20688,6.60248 -27.92217,-5.2534 c -15.35719,-2.88937 -28.37416,-5.65017 -28.92659,-6.13514 -1.22241,-1.0731 1.2624,-8.44096 7.55896,-22.41354 1.59171,-3.53213 2.89402,-6.64596 2.89402,-6.91963 0,-1.67941 9.58794,-21.53035 15.56879,-32.233729 2.04976,-3.668267 4.26245,-7.676116 4.91708,-8.906333 1.47698,-2.775585 11.96791,-18.679866 12.82278,-19.439361 0.34407,-0.305689 2.84708,-3.306998 5.56224,-6.669575 27.86015,-34.503289 62.00724,-50.543517 94.64679,-44.459303 14.36899,2.678468 31.34399,10.340293 40.62572,18.336801 0.70965,0.611378 3.43115,2.862359 6.04779,5.002181 12.12157,9.912751 27.72407,28.880973 38.86005,47.242823 5.36912,8.853028 16.25706,30.078276 18.9597,36.960566 2.14665,5.46645 3.07164,7.70439 5.16884,12.50545 3.97627,9.10281 11.63518,33.16315 16.45375,51.6892 3.56628,13.71136 7.46117,31.74068 6.96338,32.23315 -0.60802,0.60151 -16.47616,1.62157 -16.6268,1.06882 l 0,0 z"
     id="path3046"
     inkscape:connector-curvature="0"
     transform="translate(-362,-388)" />
  <g
     id="g5440"
     transform="translate(-211.2032,-17.339149)">
    <rect
       transform="scale(1,-1)"
       y="254.04288"
       x="203.80226"
       height="73.365326"
       width="73.365326"
       id="rect5343-4-0"
       style="fill:#ffffff;fill-opacity:1;stroke:#b3b3b3;stroke-width:0;stroke-miterlimit:4;stroke-opacity:1;stroke-dasharray:none;stroke-dashoffset:0" />
    <text
       sodipodi:linespacing="125%"
       id="text3118"
       y="-276.14554"
       x="207.47336"
       style="font-size:28px;font-style:normal;font-variant:normal;font-weight:normal;font-stretch:normal;line-height:125%;letter-spacing:0px;word-spacing:0px;fill:#000000;fill-opacity:1;stroke:none;font-family:TeX Gyre Heros;-inkscape-font-specification:TeX Gyre Heros"
       xml:space="preserve"><tspan
         style="font-size:40px"
         y="-276.14554"
         x="207.47336"
         id="tspan3120"
         sodipodi:role="line">BW</tspan></text>
  </g>
  <path
     style="fill:url(#Strips1_1.5white);fill-opacity:1.0;stroke:#999999;stroke-width:0.75922000000000001;stroke-linecap:round;stroke-linejoin:round;stroke-miterlimit:4;stroke-opacity:1;stroke-dasharray:3.03687993000000001, 3.03687993000000001;stroke-dashoffset:0"
     d="m 387.8889,648.52359 c -6.98095,-0.81835 -15.35616,-3.02574 -21.12032,-5.56654 -8.10633,-3.5732 -18.69632,-9.60438 -21.12032,-12.02839 -0.30569,-0.30569 -3.05689,-2.52559 -6.11378,-4.93311 -3.05689,-2.40752 -6.51685,-5.35248 -7.68882,-6.54436 -2.39903,-2.43979 -4.17333,-0.40627 16.65776,-19.09141 4.77114,-4.27965 10.15804,-9.21394 11.97087,-10.96509 3.90949,-3.77649 9.4279,-6.26465 13.89415,-6.26465 8.1441,0 38.11687,-6.32757 69.65605,-14.70514 16.34296,-4.34109 27.86911,-7.86476 54.32438,-16.60757 7.25743,-2.3984 13.4165,-4.13955 13.68684,-3.86921 0.45236,0.45235 -6.10773,14.66028 -8.5455,18.50798 -0.58102,0.91707 -3.85556,6.37234 -7.27675,12.12283 -11.07126,18.60905 -25.30272,35.68097 -39.96142,47.93734 -19.711,16.48068 -45.28331,24.71287 -68.36314,22.00732 z"
     id="path5252"
     inkscape:connector-curvature="0"
     transform="translate(-362,-388)" />
</svg>
