<?xml version="1.0" encoding="UTF-8" standalone="no"?>
<svg
   xmlns:osb="http://www.openswatchbook.org/uri/2009/osb"
   xmlns:dc="http://purl.org/dc/elements/1.1/"
   xmlns:cc="http://creativecommons.org/ns#"
   xmlns:rdf="http://www.w3.org/1999/02/22-rdf-syntax-ns#"
   xmlns:svg="http://www.w3.org/2000/svg"
   xmlns="http://www.w3.org/2000/svg"
   xmlns:xlink="http://www.w3.org/1999/xlink"
   xmlns:sodipodi="http://sodipodi.sourceforge.net/DTD/sodipodi-0.dtd"
   xmlns:inkscape="http://www.inkscape.org/namespaces/inkscape"
   version="1.1"
   width="746"
   height="742"
   viewBox="-362 -388 746 742"
   id="svg2"
   inkscape:version="0.48.4 r9939"
   sodipodi:docname="venn_full.svg">
  <metadata
     id="metadata92">
    <rdf:RDF>
      <cc:Work
         rdf:about="">
        <dc:format>image/svg+xml</dc:format>
        <dc:type
           rdf:resource="http://purl.org/dc/dcmitype/StillImage" />
        <dc:title>Radially-symmetrical Five-set Venn Diagram</dc:title>
      </cc:Work>
    </rdf:RDF>
  </metadata>
  <sodipodi:namedview
     pagecolor="#ffffff"
     bordercolor="#666666"
     borderopacity="1"
     objecttolerance="10"
     gridtolerance="10"
     guidetolerance="10"
     inkscape:pageopacity="0"
     inkscape:pageshadow="2"
     inkscape:window-width="1918"
     inkscape:window-height="1152"
     id="namedview90"
     showgrid="false"
     inkscape:zoom="0.89960755"
     inkscape:cx="-149.2342"
     inkscape:cy="287.34108"
     inkscape:window-x="0"
     inkscape:window-y="0"
     inkscape:window-maximized="1"
     inkscape:current-layer="svg2" />
  <title
     id="title4">Radially-symmetrical Five-set Venn Diagram</title>
  <desc
     id="desc6">Devised by Branko Gruenbaum and rendered by CMG Lee.</desc>
  <defs
     id="defs8">
    <pattern
       inkscape:stockid="Checkerboard white"
       id="Checkerboardwhite"
       patternTransform="translate(0,0) scale(10,10)"
       height="2"
       width="2"
       patternUnits="userSpaceOnUse"
       inkscape:collect="always">
      <rect
         id="rect4627"
         height="1"
         width="1"
         y="0"
         x="0"
         style="fill:white;stroke:none" />
      <rect
         id="rect4629"
         height="1"
         width="1"
         y="1"
         x="1"
         style="fill:white;stroke:none" />
    </pattern>
    <pattern
       inkscape:stockid="Stripes 1:1.5 white"
       id="Strips1_1.5white"
       patternTransform="translate(0,0) scale(10,10)"
       height="1"
       width="2.5"
       patternUnits="userSpaceOnUse"
       inkscape:collect="always">
      <rect
         id="rect4569"
         height="2"
         width="1"
         y="-0.5"
         x="0"
         style="fill:white;stroke:none" />
    </pattern>
    <linearGradient
       id="linearGradient5333"
       osb:paint="solid">
      <stop
         style="stop-color:#b3b3b3;stop-opacity:1;"
         offset="0"
         id="stop5335" />
    </linearGradient>
    <ellipse
       id="ellipse"
       cx="36"
       cy="-56"
       rx="160"
       ry="320" />
    <g
       id="ellipses">
      <use
         xlink:href="#ellipse"
         fill="#0000ff"
         id="use12" />
      <use
         xlink:href="#ellipse"
         fill="#0099ff"
         transform="rotate(72)"
         id="use14" />
      <use
         xlink:href="#ellipse"
         fill="#00cc00"
         transform="rotate(144)"
         id="use16" />
      <use
         xlink:href="#ellipse"
         fill="#cc9900"
         transform="rotate(216)"
         id="use18" />
      <use
         xlink:href="#ellipse"
         fill="#ff0000"
         transform="rotate(288)"
         id="use20" />
    </g>
  </defs>
  <use
     xlink:href="#ellipses"
     fill-opacity="0"
     stroke="#000"
     stroke-width="2"
     id="use24" />
  <path
     style="fill:#808080;fill-opacity:0;stroke:#808080;stroke-width:0.78601694000000000;stroke-miterlimit:4;stroke-opacity:1;stroke-dasharray:2.35805084000000020, 0.78601695000000005;stroke-dashoffset:0"
     d="m 153.24602,685.35223 c -33.72049,-4.38094 -58.888386,-24.79721 -71.336273,-57.86819 -2.75058,-7.30762 -5.672547,-19.15493 -7.19615,-29.17728 -1.778896,-11.70168 -1.764629,-40.95941 0.02671,-54.77604 5.044183,-38.90585 16.428033,-77.42755 35.097383,-118.76569 l 5.00463,-11.08136 7.96655,5.44584 7.96655,5.44584 -2.70179,5.63552 c -11.7498,24.50835 -14.38968,53.01155 -6.93623,74.89156 12.94728,38.0074 51.99123,64.64295 112.10879,76.47996 9.46861,1.86435 24.28882,3.99709 27.84392,4.00694 2.11466,0.006 3.50155,1.25552 11.06392,9.96914 4.7554,5.47934 14.19406,15.66937 20.97481,22.64451 l 12.32863,12.68207 -13.11465,8.74856 c -51.86792,34.6002 -100.82358,50.69104 -139.0968,45.71862 l 0,0 z"
     id="path3833"
     inkscape:connector-curvature="0"
     transform="translate(-362,-388)" />
  <path
     style="fill:#b3b3b3;fill-opacity:1;stroke:#b3b3b3;stroke-width:2.5;stroke-miterlimit:4;stroke-opacity:1;stroke-dasharray:none;stroke-dashoffset:0"
     d="m 152.28644,684.43745 c -2.16155,-0.35419 -4.99121,-0.81983 -6.28813,-1.03474 -3.96482,-0.65699 -16.59224,-5.12085 -21.39736,-7.56407 -6.71996,-3.41686 -15.3633,-9.75285 -20.88554,-15.31014 -6.634652,-6.67676 -7.68849,-8.01825 -12.229837,-15.568 -6.943299,-11.54287 -11.677412,-24.38044 -14.589969,-39.56384 -0.663423,-3.45847 -1.430266,-7.34926 -1.704097,-8.64618 -0.835395,-3.95663 -1.03008,-39.62895 -0.257386,-47.16102 2.595819,-25.30354 10.366065,-59.30929 18.858347,-82.53178 3.803467,-10.40073 9.596352,-25.47887 10.871292,-28.29661 0.78243,-1.72924 3.46329,-7.83066 5.95747,-13.55872 l 4.53486,-10.41466 3.82918,2.75099 c 2.10605,1.51305 4.15259,2.75099 4.54787,2.75099 0.39528,0 0.8366,0.27806 0.9807,0.61791 0.14411,0.33985 1.42622,1.43549 2.84914,2.43477 1.69376,1.18947 2.35285,2.12965 1.90869,2.72266 -2.30695,3.08007 -8.42558,20.03372 -10.49022,29.06653 -2.08729,9.13191 -2.85428,27.56173 -1.52529,36.65074 1.37728,9.41926 7.37322,26.44892 9.65234,27.41452 0.34012,0.14411 0.61841,0.59382 0.61841,0.99938 0,1.85464 7.34212,11.8135 13.75328,18.65496 4.61595,4.92576 13.93457,12.70336 15.22034,12.70336 0.49226,0 0.89502,0.29918 0.89502,0.66483 0,1.06974 11.40873,7.76424 21.61547,12.68368 18.64599,8.98701 40.75397,15.52847 65.2394,19.30348 3.64024,0.56123 5.92195,0.84701 12.96928,1.6244 5.79951,0.63973 4.10803,-0.73914 19.65043,16.01871 11.22925,12.10741 26.03508,27.69426 26.9482,28.36975 0.64653,0.47827 -6.50018,5.48033 -17.10365,11.97103 -3.44784,2.11052 -8.04604,5.01065 -10.21822,6.44472 -7.66354,5.05945 -29.66994,16.26635 -42.07125,21.42504 -25.37605,10.55592 -41.73678,14.32313 -64.06038,14.75046 -7.78157,0.14897 -15.91684,-0.0189 -18.07839,-0.37315 l 0,0 z"
     id="path5317"
     inkscape:connector-curvature="0"
     transform="translate(-362,-388)" />
  <path
     style="fill:#b3b3b3;fill-opacity:1;stroke:#b3b3b3;stroke-width:0;stroke-miterlimit:4;stroke-opacity:1;stroke-dasharray:none;stroke-dashoffset:0"
     d="m 254.19354,582.36587 c -50.58883,-7.00453 -85.99319,-21.49562 -109.29703,-44.73554 -24.96538,-24.89692 -31.80156,-56.33225 -20.00522,-91.99161 1.77114,-5.35398 5.73928,-15.01147 7.7127,-18.7708 l 0.56977,-1.08543 3.52366,2.2257 c 10.73435,6.78027 27.31646,16.37123 36.14336,20.90502 l 3.93009,2.01862 6.3706,12.68077 c 11.55552,23.00146 23.32133,43.19176 37.84987,64.95091 10.84594,16.24379 25.43316,35.96094 36.92613,49.91207 4.09979,4.97668 3.90611,4.52612 1.92456,4.47702 -0.94512,-0.0234 -3.48694,-0.28744 -5.64849,-0.58673 z"
     id="path5319"
     inkscape:connector-curvature="0"
     transform="translate(-362,-388)" />
  <path
     style="fill:#b3b3b3;fill-opacity:1;stroke:#b3b3b3;stroke-width:0;stroke-miterlimit:4;stroke-opacity:1;stroke-dasharray:none;stroke-dashoffset:0"
     d="m 470.74121,226.07289 c -5.33353,-2.98262 -25.00559,-12.77461 -33.01271,-16.43246 -33.02589,-15.08702 -70.84468,-28.52688 -104.62887,-37.18254 -3.4102,-0.8737 -4.30237,-1.23515 -3.93009,-1.59218 0.2649,-0.25404 3.13271,-1.91195 6.37293,-3.68424 29.38492,-16.07253 56.87958,-25.53402 82.92861,-28.53746 6.22204,-0.7174 20.43569,-0.8069 26.13506,-0.16457 13.62291,1.53534 26.52855,5.69587 36.7463,11.84631 7.21644,4.34385 15.80732,11.79073 21.07809,18.27128 7.95155,9.77662 14.86111,23.51935 18.75694,37.30652 1.28855,4.56013 3.5924,14.99586 3.5924,16.27247 0,0.66569 -0.39806,0.78129 -3.43882,0.99861 -14.56016,1.04063 -31.4909,2.80242 -41.77474,4.34703 -2.14902,0.32277 -4.21798,0.5739 -4.59768,0.55805 -0.37969,-0.0158 -2.28203,-0.91892 -4.22742,-2.00682 l 0,0 z"
     id="path5321"
     inkscape:connector-curvature="0"
     transform="translate(-362,-388)" />
  <path
     style="fill:#b3b3b3;fill-opacity:1;stroke:#b3b3b3;stroke-width:0;stroke-miterlimit:4;stroke-opacity:1;stroke-dasharray:none;stroke-dashoffset:0"
     d="m 524.97638,259.70437 c -4.35753,-3.67268 -32.44591,-21.54232 -44.55164,-28.34345 l -2.10672,-1.18358 1.32071,-0.24303 c 5.51809,-1.01544 27.89579,-3.38967 39.4166,-4.18202 5.94139,-0.40862 6.48151,-0.3272 6.50583,0.98071 0.004,0.21615 0.28315,3.13424 0.62029,6.48464 0.71317,7.08718 0.98257,27.17446 0.36696,27.36122 -0.21615,0.0656 -0.92357,-0.32794 -1.57203,-0.87449 l 0,0 z"
     id="path5323"
     inkscape:connector-curvature="0"
     transform="translate(-362,-388)" />
  <path
     style="fill:url(#Checkerboardwhite);fill-opacity:1.0;stroke:#b3b3b3;stroke-width:0;stroke-miterlimit:4;stroke-opacity:1;stroke-dasharray:none;stroke-dashoffset:0"
     d="m 155.9167,685.23402 c -5.94788,-0.4187 -13.37119,-1.79182 -17.78553,-3.28988 -4.16718,-1.41418 -7.82681,-2.61405 -8.13249,-2.66639 -0.30569,-0.0523 -2.80678,-1.29914 -5.55798,-2.77069 -2.7512,-1.47157 -5.37735,-2.57445 -5.83588,-2.45086 -0.45853,0.12359 -0.8337,-0.20905 -0.8337,-0.73918 0,-0.53014 -1.93643,-2.24536 -4.30319,-3.81161 -5.91113,-3.91179 -16.685486,-14.7473 -20.673876,-20.79122 -3.786504,-5.73798 -8.822455,-15.71908 -8.553022,-16.95183 0.100218,-0.45854 -0.401373,-0.8337 -1.114647,-0.8337 -0.713273,0 -0.983333,-0.31353 -0.600131,-0.69673 0.383202,-0.38321 -0.04649,-2.13397 -0.954876,-3.89058 -0.908383,-1.75662 -1.41084,-3.19386 -1.116571,-3.19386 0.294269,0 -0.200984,-2.0861 -1.100562,-4.63578 -0.899578,-2.54968 -1.905376,-6.17626 -2.235107,-8.05907 -0.329732,-1.88281 -1.104614,-5.67427 -1.721961,-8.42547 -1.492628,-6.65187 -2.02485,-37.64153 -0.897266,-52.24501 0.968393,-12.54178 4.987241,-34.85756 9.508892,-52.8008 2.89132,-11.4736 11.589776,-38.45359 14.389479,-44.63182 0.873019,-1.92653 1.587307,-3.83441 1.587307,-4.23972 0,-0.40531 1.176681,-3.33102 2.614851,-6.50158 1.43816,-3.17056 4.74404,-10.64177 7.3464,-16.60271 2.60235,-5.96093 4.91748,-10.83806 5.14473,-10.83806 1.01891,0 12.37639,7.73863 13.70242,9.3364 1.24757,1.50323 1.08276,2.6903 -1.05744,7.61606 -7.03548,16.19246 -9.04898,25.07774 -9.6498,42.58304 -0.50658,14.75981 -0.28839,17.84857 1.84534,26.1225 10.43054,40.44633 51.20142,69.49455 114.55659,81.61868 7.64223,1.46247 16.89626,2.97589 20.56453,3.36313 l 6.66957,0.7041 12.22756,12.4612 c 27.68416,28.21315 30.84881,31.83519 29.37093,33.61593 -1.70208,2.05088 -22.00492,15.54852 -28.81514,19.15675 -9.29113,4.92269 -15.00314,8.33152 -15.68661,9.36151 -0.37406,0.56367 -1.12438,0.94878 -1.6674,0.85579 -0.54302,-0.093 -5.73939,2.07599 -11.54748,4.81996 -33.57345,15.86142 -59.82082,21.55395 -89.68794,19.4515 l 0,0 z"
     id="path5325"
     inkscape:connector-curvature="0"
     transform="translate(-362,-388)" />
  <g
     id="g5435"
     transform="translate(113.38277,-3.3347879)">
    <rect
       transform="scale(1,-1)"
       y="-269.51874"
       x="-360.8884"
       height="73.365326"
       width="73.365326"
       id="rect5343-4-3"
       style="fill:#ffffff;fill-opacity:1;stroke:#b3b3b3;stroke-width:0;stroke-miterlimit:4;stroke-opacity:1;stroke-dasharray:none;stroke-dashoffset:0" />
    <text
       sodipodi:linespacing="125%"
       id="text3126"
       y="247.41606"
       x="-350.5723"
       style="font-size:28px;font-style:normal;font-variant:normal;font-weight:normal;font-stretch:normal;line-height:125%;letter-spacing:0px;word-spacing:0px;fill:#000000;fill-opacity:1;stroke:none;font-family:TeX Gyre Heros;-inkscape-font-specification:TeX Gyre Heros"
       xml:space="preserve"><tspan
         style="font-size:40px"
         y="247.41606"
         x="-350.5723"
         id="tspan3128"
         sodipodi:role="line">FP</tspan></text>
  </g>
  <path
     style="fill:url(#Checkerboardwhite);fill-opacity:1.0;stroke:#b3b3b3;stroke-width:0;stroke-miterlimit:4;stroke-opacity:1;stroke-dasharray:none;stroke-dashoffset:0"
     d="m 246.38056,580.77419 c -0.73244,-0.37865 -3.83281,-1.00562 -6.8897,-1.39324 -16.05112,-2.03538 -44.02944,-10.72397 -59.74228,-18.55281 -14.33652,-7.1431 -23.01399,-13.11411 -32.89833,-22.63752 -7.9235,-7.63416 -19.07477,-22.63559 -19.07477,-25.66064 0,-0.82218 -0.78605,-2.28093 -1.74679,-3.24166 -0.96074,-0.96074 -1.48314,-1.7468 -1.1609,-1.7468 0.32223,0 -0.14307,-2.06608 -1.03402,-4.59129 -2.27013,-6.43423 -4.12219,-18.28493 -3.88614,-24.866 0.37075,-10.33635 0.9314,-16.26178 1.60211,-16.93249 0.36727,-0.36728 0.66777,-1.53973 0.66777,-2.60546 0,-2.48044 5.76558,-19.99155 8.83533,-26.83447 l 2.35219,-5.24339 6.07799,3.88805 c 3.3429,2.13842 6.078,3.60308 6.078,3.25479 0,-0.3483 0.96621,0.26161 2.14713,1.35533 1.18093,1.09373 8.05893,5.22083 15.28445,9.17133 11.73289,6.41488 17.31013,10.047 15.42749,10.047 -0.96595,0 8.3485,18.20922 9.79977,19.15801 0.68706,0.44917 0.85294,0.82433 0.36864,0.8337 -0.9669,0.0187 4.62212,10.16299 6.2022,11.25726 0.54011,0.37404 0.82544,0.87426 0.63408,1.11159 -1.76066,2.18362 44.80241,73.24105 47.99396,73.24105 0.59087,0 1.07431,0.55338 1.07431,1.22976 0,0.67636 3.25141,5.39366 7.22537,10.48288 3.97395,5.08923 7.22537,9.55379 7.22537,9.92126 0,0.83867 -10.76167,0.28511 -12.56323,-0.64624 z"
     id="path5331"
     inkscape:connector-curvature="0"
     transform="translate(-362,-388)" />
  <path
     style="fill:url(#Checkerboardwhite);fill-opacity:1.0;stroke:#b3b3b3;stroke-width:0;stroke-miterlimit:4;stroke-opacity:1;stroke-dasharray:none;stroke-dashoffset:0"
     d="m 456.25205,218.33016 c -35.08574,-17.73438 -73.36921,-32.58744 -110.09533,-42.71434 -8.22756,-2.26867 -14.9592,-4.44884 -14.9592,-4.84481 0,-0.87459 30.36892,-15.72617 38.90585,-19.02648 3.36258,-1.29995 7.36433,-2.88351 8.89277,-3.51903 1.52845,-0.63553 3.52932,-1.27208 4.44638,-1.41458 0.91707,-0.1425 6.53437,-1.55553 12.48289,-3.14007 18.70008,-4.98125 38.86816,-6.50186 52.59048,-3.96515 3.6119,0.6677 7.58046,1.35188 8.81902,1.52041 1.23856,0.16853 3.25236,0.7018 4.47512,1.18504 1.22276,0.48324 4.72428,1.83441 7.78117,3.00261 3.05689,1.16819 7.67471,3.35574 10.26182,4.86122 2.58712,1.50548 4.94559,2.74025 5.24106,2.74395 0.29548,0.004 4.09895,3.34809 8.45216,7.43201 13.23817,12.41922 22.80857,29.28767 27.75679,48.92307 3.50512,13.90893 3.96105,13.16521 -8.63749,14.08964 -5.96093,0.43739 -16.57156,1.50636 -23.57916,2.37549 -7.00761,0.86913 -13.26034,1.55788 -13.89495,1.53055 -0.63462,-0.0273 -9.15734,-4.09511 -18.93938,-9.03953 z"
     id="path5339"
     inkscape:connector-curvature="0"
     transform="translate(-362,-388)" />
  <path
     style="fill:url(#Checkerboardwhite);fill-opacity:1.0;stroke:#b3b3b3;stroke-width:0;stroke-miterlimit:4;stroke-opacity:1;stroke-dasharray:none;stroke-dashoffset:0"
     d="m 517.38982,253.82731 c -4.27964,-2.99576 -14.15895,-9.2846 -21.95402,-13.9752 -7.79506,-4.69059 -14.17284,-8.80635 -14.17284,-9.14611 0,-0.66765 18.00594,-2.80679 33.50184,-3.98008 8.83703,-0.66911 9.65647,-0.55713 10.27912,1.40468 0.77379,2.43799 1.31351,30.20425 0.59812,30.77061 -0.25908,0.20511 -3.97257,-2.07814 -8.25222,-5.0739 z"
     id="path5341"
     inkscape:connector-curvature="0"
     transform="translate(-362,-388)" />
  <path
     style="fill:#666666;fill-opacity:1;stroke:#666666;stroke-width:2.22319174;stroke-miterlimit:4;stroke-opacity:1;stroke-dasharray:none;stroke-dashoffset:0"
     d="M 98.435276,396.95302 C 44.712256,354.20297 13.673039,305.73068 13.512515,264.33366 c -0.177717,-45.83079 32.707244,-79.62647 94.143085,-96.7503 38.99044,-10.86769 89.71631,-13.67108 141.80983,-7.83719 l 11.75314,1.31622 -2.71717,9.06216 -2.71718,9.06217 -7.92437,-0.99655 c -11.23793,-1.41325 -30.78759,-0.22856 -41.27223,2.50107 -35.93667,9.35595 -58.31502,35.29564 -67.40379,78.13057 -4.50476,21.23073 -3.13821,65.63195 2.79684,90.87311 l 1.43755,6.11377 -5.17242,8.33697 c -6.82611,11.00239 -23.36483,41.57633 -23.36483,43.19287 0,0.69904 -0.40439,1.27097 -0.89863,1.27097 -0.49425,0 -7.49043,-5.24541 -15.547064,-11.65648 z"
     id="path6108"
     inkscape:connector-curvature="0"
     transform="translate(-362,-388)" />
  <path
     style="fill:#666666;fill-opacity:1;stroke:#666666;stroke-width:2.22319174;stroke-miterlimit:4;stroke-opacity:1;stroke-dasharray:none;stroke-dashoffset:0"
     d="m 573.78378,503.19908 -2.88127,-8.78884 5.14645,-2.80529 c 33.98227,-18.52352 53.50088,-48.53789 53.50088,-82.26999 0,-35.35845 -19.57474,-72.69194 -58.36316,-111.31186 l -13.55072,-13.49185 -0.79271,-9.93671 c -0.80142,-10.04582 -4.33419,-38.04475 -5.75776,-45.63304 l -0.77317,-4.12133 16.55315,0.75009 c 87.98296,3.98686 145.51419,32.79943 162.35143,81.30822 2.83703,8.17361 3.08272,10.19623 3.03804,25.0109 -0.0559,18.54775 -1.77208,26.54214 -9.46157,44.07541 -19.49919,44.46126 -72.76898,95.44977 -137.00895,131.14153 -4.81258,2.67388 -8.83322,4.86159 -8.93476,4.86159 -0.10154,0 -1.48118,-3.95497 -3.06588,-8.78883 z"
     id="path6110"
     inkscape:connector-curvature="0"
     transform="translate(-362,-388)" />
  <path
     style="fill:#666666;fill-opacity:1;stroke:#666666;stroke-width:2.22319174;stroke-miterlimit:4;stroke-opacity:1;stroke-dasharray:none;stroke-dashoffset:0"
     d="m 566.73066,484.61549 c -1.52074,-3.43865 -2.76498,-6.47959 -2.76498,-6.75764 0,-0.27806 -3.31244,-7.71993 -7.36098,-16.53752 l -7.36098,-16.03197 2.32236,-14.17095 c 5.86626,-35.79555 8.55786,-76.80682 7.53002,-114.73301 l -0.70694,-26.08515 5.11373,4.96483 c 24.4688,23.75627 39.09118,42.57821 50.05842,64.4352 9.53415,19.00094 13.26162,35.2544 12.39095,54.03005 -1.00613,21.69672 -8.49688,38.25386 -24.65277,54.49119 -7.65715,7.69576 -28.07283,22.64707 -30.92404,22.64707 -0.4839,0 -2.12406,-2.81344 -3.64479,-6.2521 l 0,0 z"
     id="path6112"
     inkscape:connector-curvature="0"
     transform="translate(-362,-388)" />
  <path
     style="fill:url(#Strips1_1.5white);fill-opacity:1.0;stroke:#666666;stroke-width:0;stroke-miterlimit:4;stroke-opacity:1;stroke-dasharray:none;stroke-dashoffset:0"
     d="m 107.44406,404.14378 c -3.17324,-2.43487 -6.25792,-4.42705 -6.85484,-4.42705 -0.596931,0 -1.252066,-0.42511 -1.455859,-0.94468 -0.203792,-0.51958 -5.872931,-5.68972 -12.598086,-11.48921 -15.627312,-13.47632 -30.868843,-29.59397 -41.326193,-43.7017 -4.531833,-6.11378 -8.850138,-11.86629 -9.596231,-12.78335 -1.373961,-1.68882 -16.835689,-32.02462 -16.943332,-33.24271 -0.03213,-0.36352 -1.228503,-5.41304 -2.658615,-11.22112 -9.4289527,-38.29362 4.819198,-73.06452 39.399688,-96.15021 25.80802,-17.22926 64.143868,-28.95404 106.157398,-32.46758 19.951,-1.66847 73.03754,-0.83866 88.92767,1.39006 8.79062,1.23295 11.11565,1.75646 11.10968,2.50146 -0.003,0.43083 -1.12895,4.46478 -2.50109,8.96434 l -2.49481,8.18101 -21.67612,0.2652 c -24.70067,0.3022 -29.14272,1.16866 -45.02248,8.78206 -26.11456,12.52037 -42.71517,36.1751 -50.03718,71.29956 -4.01813,19.2754 -3.16147,59.72035 1.80616,85.27226 2.29273,11.79309 2.2943,11.93657 0.16392,15.00654 -3.01936,4.35102 -12.90479,21.98449 -20.41364,36.41356 -3.49005,6.70649 -6.76652,12.32524 -7.28103,12.48612 -0.51452,0.16087 -3.53178,-1.69967 -6.70501,-4.13456 z"
     id="path6114"
     inkscape:connector-curvature="0"
     transform="translate(-362,-388)" />
  <g
     id="g5430"
     transform="translate(-64.472557,144.50746)">
    <rect
       transform="scale(1,-1)"
       y="235.14578"
       x="-257.50998"
       height="73.365326"
       width="73.365326"
       id="rect5343-4"
       style="fill:#ffffff;fill-opacity:1;stroke:#b3b3b3;stroke-width:0;stroke-miterlimit:4;stroke-opacity:1;stroke-dasharray:none;stroke-dashoffset:0" />
    <text
       sodipodi:linespacing="125%"
       id="text3122"
       y="-257.24844"
       x="-252.06702"
       style="font-size:28px;font-style:normal;font-variant:normal;font-weight:normal;font-stretch:normal;line-height:125%;letter-spacing:0px;word-spacing:0px;fill:#000000;fill-opacity:1;stroke:none;font-family:TeX Gyre Heros;-inkscape-font-specification:TeX Gyre Heros"
       xml:space="preserve"><tspan
         style="font-size:40px"
         y="-257.24844"
         x="-252.06702"
         id="tspan3124"
         sodipodi:role="line">MA</tspan></text>
  </g>
  <path
     style="fill:url(#Strips1_1.5white);fill-opacity:1.0;stroke:#666666;stroke-width:0;stroke-miterlimit:4;stroke-opacity:1;stroke-dasharray:none;stroke-dashoffset:0"
     d="m 573.33139,503.17544 -2.88901,-8.81246 6.82159,-4.17778 c 27.55265,-16.87418 42.35107,-35.08505 49.1269,-60.45538 2.33509,-8.74312 2.66677,-29.66533 0.62559,-39.46165 -6.40198,-30.72529 -22.83165,-57.45517 -56.36803,-91.70666 l -13.60485,-13.89495 -1.29891,-13.89045 c -0.71441,-7.63975 -2.25598,-20.39531 -3.42573,-28.34569 -3.05026,-20.73166 -4.12071,-18.66961 9.25681,-17.83182 37.29206,2.3355 63.36688,6.44171 85.87078,13.52278 11.95337,3.76124 11.68906,3.65367 25.2009,10.2568 30.79506,15.04931 50.18887,35.80694 58.24658,62.34262 1.78649,5.88328 2.17627,31.18063 0.61764,40.08571 -6.08811,34.78388 -39.99555,80.3085 -87.95229,118.08603 -7.6441,6.02158 -14.65569,11.55351 -15.58131,12.2932 -0.92562,0.73968 -3.09453,2.07769 -4.81981,2.97333 -1.72527,0.89565 -4.37019,2.77147 -5.87759,4.16849 -1.50741,1.39702 -2.91335,2.54003 -3.12433,2.54003 -0.70583,0 -32.27926,18.99716 -33.34996,20.06607 -2.79972,2.79504 -4.64216,0.8828 -7.47497,-7.75822 l 0,0 z"
     id="path6626"
     inkscape:connector-curvature="0"
     transform="translate(-362,-388)" />
  <g
     id="g5445"
     transform="translate(-42.240642,152.28863)">
    <rect
       transform="scale(1,-1)"
       y="170.53717"
       x="313.30893"
       height="73.365326"
       width="73.365326"
       id="rect5343-4-8"
       style="fill:#ffffff;fill-opacity:1;stroke:#b3b3b3;stroke-width:0;stroke-miterlimit:4;stroke-opacity:1;stroke-dasharray:none;stroke-dashoffset:0" />
    <text
       sodipodi:linespacing="125%"
       id="text3134"
       y="-192.63983"
       x="321.25845"
       style="font-size:28px;font-style:normal;font-variant:normal;font-weight:normal;font-stretch:normal;line-height:125%;letter-spacing:0px;word-spacing:0px;fill:#000000;fill-opacity:1;stroke:none;font-family:TeX Gyre Heros;-inkscape-font-specification:TeX Gyre Heros"
       xml:space="preserve"><tspan
         style="font-size:40px"
         y="-192.63983"
         x="321.25845"
         id="tspan3136"
         sodipodi:role="line">RS</tspan></text>
  </g>
  <path
     style="fill:url(#Strips1_1.5white);fill-opacity:1.0;stroke:#666666;stroke-width:0;stroke-miterlimit:4;stroke-opacity:1;stroke-dasharray:none;stroke-dashoffset:0"
     d="m 567.05052,486.14331 c -1.22475,-2.59836 -3.20032,-6.97527 -4.39014,-9.72647 -1.18983,-2.7512 -4.85538,-11.0048 -8.14568,-18.34133 -3.29029,-7.33653 -5.81605,-13.83937 -5.61279,-14.45075 1.00874,-3.03415 5.8411,-40.15998 7.52373,-57.80298 1.38694,-14.54256 1.90079,-30.43504 1.8809,-58.17395 l -0.0274,-38.16523 8.28753,8.15214 c 11.20983,11.02671 25.27839,27.37616 32.84084,38.16523 3.42829,4.89102 6.63562,9.39298 7.12739,10.00436 2.49955,3.10748 13.69826,27.67795 15.7059,34.45947 9.00712,30.4246 3.75046,59.79003 -14.55564,81.3126 -9.13337,10.73816 -32.57674,29.29119 -37.01197,29.29119 -0.76774,0 -2.39796,-2.12593 -3.62272,-4.72428 l 0,0 z"
     id="path6634"
     inkscape:connector-curvature="0"
     transform="translate(-362,-388)" />
  <path
     style="fill:#666666;fill-opacity:1;stroke:#666666;stroke-width:1.8;stroke-miterlimit:4;stroke-opacity:1;stroke-dasharray:none;stroke-dashoffset:0"
     d="m 145.15668,348.86122 c -4.36382,-15.31871 -6.94711,-50.22745 -5.23608,-70.75648 3.57148,-42.85079 21.19119,-73.48778 50.48286,-87.77917 15.54469,-7.58424 22.47313,-8.9956 44.27081,-9.01821 10.18981,-0.0106 18.87398,0.32799 19.29815,0.75234 0.42419,0.42436 -0.53918,6.42698 -2.1408,13.33915 -1.60161,6.91218 -3.90077,17.78096 -5.10924,24.15285 l -2.19721,11.58526 -16.03156,16.20464 c -17.42528,17.6134 -31.55016,33.70604 -46.59334,53.08433 -9.47795,12.20928 -27.82614,38.01933 -32.85189,46.2121 -2.91988,4.75989 -3.1342,4.88232 -3.8917,2.22319 l 0,0 z"
     id="path6644"
     inkscape:connector-curvature="0"
     transform="translate(-362,-388)" />
  <path
     style="fill:url(#Strips1_1.5white);fill-opacity:1.0;stroke:#000000;stroke-width:0;stroke-miterlimit:4;stroke-opacity:1;stroke-dasharray:none;stroke-dashoffset:0"
     d="m 145.40518,350.79355 c -0.69469,-0.83705 -1.2139,-2.50699 -2.02123,-6.50083 -3.10639,-15.36729 -4.45652,-30.62041 -4.49367,-50.76728 -0.023,-12.45203 0.22604,-16.90808 1.36158,-24.36652 0.21391,-1.40501 0.45835,-3.26197 0.5432,-4.12659 0.2533,-2.58108 2.90284,-14.03372 4.29779,-18.5772 3.24496,-10.56911 7.73187,-20.29219 13.01497,-28.2033 10.24241,-15.33735 22.77416,-25.26451 41.06867,-32.53301 10.6158,-4.21771 14.9612,-4.79031 36.35328,-4.79031 9.29465,0 17.38571,0.13601 17.98014,0.30225 0.98793,0.27628 1.08077,0.46513 1.08077,2.19848 0,1.97078 -1.07295,7.57108 -4.07631,21.27629 -0.97104,4.43117 -2.5874,12.29456 -3.59189,17.4742 l -1.82635,9.41753 -12.83985,12.99248 c -18.7221,18.94465 -29.88441,31.35043 -43.67712,48.54269 -11.58399,14.43914 -27.43424,36.24201 -36.85652,50.6981 -3.6219,5.55688 -5.06032,7.46716 -5.62268,7.46716 -0.15201,0 -0.46466,-0.22687 -0.69478,-0.50414 l 0,0 z"
     id="path6650"
     inkscape:connector-curvature="0"
     transform="translate(-362,-388)" />
  <path
     style="fill:#666666;fill-opacity:1;stroke:#666666;stroke-width:1.8;stroke-miterlimit:4;stroke-opacity:1;stroke-dasharray:none;stroke-dashoffset:0"
     d="M 478.92204,726.92433 C 441.433,721.41325 394.66897,699.07107 352.31784,666.43738 338.18369,655.54629 320.44079,640.4476 314.69321,634.4199 l -3.72095,-3.9023 7.05048,-5.56834 7.05048,-5.56834 5.00744,4.66731 c 21.83619,20.35298 48.28816,30.94967 72.96711,29.23071 41.83028,-2.91361 78.90695,-34.76361 108.72295,-93.39637 l 8.95389,-17.60768 11.11595,-4.73305 c 8.48185,-3.61146 38.44007,-17.81165 42.88618,-20.32803 0.8491,-0.48056 9.35717,30.65889 12.09445,44.26559 7.79051,38.72563 7.11932,77.37645 -1.80788,104.10725 -11.40193,34.14088 -36.03874,55.94976 -69.29089,61.33737 -8.29774,1.34443 -27.65595,1.34458 -36.80038,3.1e-4 l 0,0 z"
     id="path6660"
     inkscape:connector-curvature="0"
     transform="translate(-362,-388)" />
  <path
     style="fill:#666666;fill-opacity:1;stroke:#666666;stroke-width:2.00087237;stroke-miterlimit:4;stroke-opacity:1;stroke-dasharray:none;stroke-dashoffset:0"
     d="M 383.5261,649.09119 C 366.46826,645.7445 349.95381,636.80555 331.88197,621.1372 l -4.31772,-3.74348 7.09671,-5.89193 c 3.9032,-3.24056 12.37957,-10.79468 18.83639,-16.78694 l 11.73968,-10.89501 8.82484,-1.2791 c 43.20228,-6.26189 95.13408,-19.98418 135.31003,-35.75389 2.92668,-1.14877 5.53158,-2.08867 5.78868,-2.08867 1.80257,0 -14.75664,30.28431 -24.00854,43.90803 -23.02695,33.9079 -49.00841,54.04293 -77.53763,60.08985 -8.10214,1.7173 -22.39276,1.90496 -30.08831,0.39513 z"
     id="path6662"
     inkscape:connector-curvature="0"
     transform="translate(-362,-388)" />
  <path
     style="fill:#666666;fill-opacity:1;stroke:#666666;stroke-width:2.00087237;stroke-miterlimit:4;stroke-opacity:1;stroke-dasharray:none;stroke-dashoffset:0"
     d="m 534.61955,503.70889 c 0,-0.53451 0.78,-3.16066 1.73332,-5.83588 0.95333,-2.67522 3.95595,-13.82759 6.67249,-24.78304 2.71654,-10.95545 5.10997,-20.0898 5.31873,-20.29856 0.86791,-0.86791 17.40015,36.73219 17.40015,39.57404 0,1.00212 -16.81138,8.07655 -25.56671,10.75878 -5.97023,1.829 -5.55798,1.78564 -5.55798,0.58466 z"
     id="path6664"
     inkscape:connector-curvature="0"
     transform="translate(-362,-388)" />
  <path
     style="fill:url(#Strips1_1.5white);fill-opacity:1.0;stroke:#666666;stroke-width:0;stroke-miterlimit:4;stroke-opacity:1;stroke-dasharray:none;stroke-dashoffset:0"
     d="m 482.11231,727.50078 c -0.44993,-0.46206 -2.31705,-0.79748 -4.14917,-0.74539 -1.83212,0.0521 -3.59044,-0.32484 -3.90735,-0.83763 -0.31692,-0.51279 -1.51971,-0.68561 -2.67286,-0.38406 -1.15314,0.30155 -2.40369,0.0515 -2.77899,-0.5558 -0.37529,-0.60724 -1.68228,-0.84259 -2.90444,-0.52299 -1.22214,0.31959 -2.22208,0.0382 -2.22208,-0.62526 0,-0.6635 -0.69973,-0.93786 -1.55496,-0.60967 -0.85522,0.32818 -1.87168,0.0843 -2.25878,-0.54214 -0.38711,-0.62636 -1.43815,-0.85705 -2.33564,-0.51265 -0.89748,0.3444 -1.63179,0.0429 -1.63179,-0.66995 0,-0.71287 -0.43776,-1.02558 -0.9728,-0.6949 -1.27,0.78491 -11.56938,-2.68972 -12.62723,-4.25995 -0.52659,-0.78165 -0.83528,-0.61998 -0.86905,0.45514 -0.0466,1.48213 -0.20283,1.48213 -1.40651,0 -0.74478,-0.91706 -2.35458,-1.84244 -3.57734,-2.05639 -1.22275,-0.21395 -2.59069,-0.96428 -3.03987,-1.6674 -0.44917,-0.70312 -0.82433,-0.92925 -0.83369,-0.50252 -0.0263,1.19988 -6.6866,-1.40743 -6.6866,-2.6176 0,-0.58766 -0.43871,-0.79732 -0.97492,-0.46593 -1.06986,0.66121 -24.73156,-11.17344 -25.82766,-12.91797 -0.37404,-0.59531 -0.9831,-0.91462 -1.35345,-0.70955 -0.37036,0.20507 -1.69004,-0.49765 -2.93261,-1.56157 -1.24258,-1.06393 -2.25923,-1.66092 -2.25923,-1.32666 0,0.33428 -1.50066,-0.27868 -3.33479,-1.36213 -1.83413,-1.08345 -3.33479,-2.3918 -3.33479,-2.90744 0,-0.51565 -0.50375,-0.62619 -1.11944,-0.24567 -0.6157,0.38051 -1.41844,-0.0873 -1.78388,-1.03961 -0.36543,-0.95232 -1.11576,-1.45254 -1.66739,-1.1116 -0.55163,0.34093 -1.30196,-0.15929 -1.66739,-1.11159 -0.36544,-0.95232 -1.08149,-1.47371 -1.59123,-1.15868 -0.50974,0.31503 -1.44255,-0.31311 -2.07291,-1.39588 -0.63036,-1.08277 -1.16132,-1.58642 -1.17991,-1.1192 -0.0465,1.16909 -8.92657,-4.79902 -8.92657,-5.99937 0,-0.53013 -0.76603,-0.96388 -1.70228,-0.96388 -0.93626,0 -1.98911,-0.74746 -2.33967,-1.66101 -0.35057,-0.91356 -1.05097,-1.4054 -1.55645,-1.093 -0.50549,0.31241 -1.70362,-0.5521 -2.66251,-1.92112 -0.9589,-1.36902 -1.7601,-2.00265 -1.78044,-1.40809 -0.0203,0.59457 -0.95868,-0.0231 -2.08519,-1.37279 -1.12652,-1.34959 -2.32046,-2.18157 -2.65319,-1.84883 -0.33274,0.33273 -1.44999,-0.68468 -2.48278,-2.26092 -1.03279,-1.57625 -2.29805,-2.60617 -2.81168,-2.28874 -0.51363,0.31745 -2.03911,-0.91775 -3.38997,-2.74487 -1.35085,-1.82713 -2.85479,-3.07565 -3.34208,-2.77449 -0.48729,0.30117 -1.71301,-0.71461 -2.72381,-2.25729 -1.0108,-1.54268 -2.2394,-2.55667 -2.73023,-2.25333 -0.49082,0.30335 -2.4809,-1.45409 -4.42238,-3.90541 -1.94149,-2.45133 -3.91863,-4.21677 -4.39364,-3.92318 -0.47502,0.29357 -3.68252,-2.54349 -7.12778,-6.30458 -6.04669,-6.60099 -7.36415,-8.36884 -5.27411,-7.07712 0.5445,0.33651 1.83501,-0.6778 2.86781,-2.25404 1.03279,-1.57624 2.16813,-2.57557 2.52297,-2.22072 0.35485,0.35484 1.34368,-0.35208 2.19741,-1.57095 0.85372,-1.21886 2.27419,-2.21612 3.15659,-2.21612 0.8824,0 1.60685,-0.62527 1.60988,-1.38949 0.003,-0.76423 1.12853,-0.10564 2.50109,1.46352 1.37257,1.56917 3.87117,3.52951 5.55246,4.35633 1.68129,0.82681 3.05689,2.18148 3.05689,3.01036 0,0.82889 1.25055,1.98254 2.77899,2.56364 1.52844,0.58111 2.77899,1.59869 2.77899,2.26129 0,0.66259 0.50375,0.89337 1.11945,0.51285 0.61569,-0.38051 1.41954,0.0901 1.78632,1.046 0.36678,0.95581 1.36368,1.73784 2.21534,1.73784 0.85166,0 1.54846,0.52975 1.54846,1.17721 0,0.64746 0.42447,0.91486 0.94326,0.59423 0.51878,-0.32063 1.96619,0.37005 3.21646,1.53485 1.25026,1.1648 2.57656,1.81446 2.94733,1.4437 0.37077,-0.37078 0.67413,-0.061 0.67413,0.68833 0,0.74936 0.50021,1.05331 1.11159,0.67546 0.61138,-0.37785 1.1116,-0.12774 1.1116,0.5558 0,0.68354 0.43218,0.97569 0.96041,0.64924 0.52823,-0.32647 3.00515,0.39434 5.50428,1.60178 2.49913,1.20745 5.22276,2.19536 6.0525,2.19536 0.82975,0 2.44013,0.68112 3.57862,1.51361 1.13849,0.83248 2.98485,1.27436 4.10304,0.98195 1.11818,-0.29242 2.03306,-0.0982 2.03306,0.43168 0,1.13392 1.67504,1.27489 17.50764,1.47345 8.78252,0.11016 14.14362,-0.43473 20.22755,-2.05578 4.55284,-1.21309 8.75693,-1.90957 9.34241,-1.54772 0.58549,0.36185 0.70761,0.0804 0.27137,-0.62544 -0.73739,-1.19312 0.81058,-1.72338 4.61814,-1.58197 0.76422,0.0283 1.38949,-0.42256 1.38949,-1.00209 0,-0.57953 0.50022,-0.74453 1.1116,-0.36668 0.61138,0.37786 1.11159,0.19097 1.11159,-0.41529 0,-1.10545 4.27216,-2.99702 5.83588,-2.58394 0.45854,0.12113 0.8337,-0.3095 0.8337,-0.95696 0,-0.64746 0.4575,-0.89445 1.01665,-0.54887 0.55916,0.34558 1.18443,0.25005 1.3895,-0.21229 0.55774,-1.25752 8.70981,-7.18407 8.70981,-6.33203 0,0.40453 0.98379,-0.44539 2.18621,-1.88873 1.20241,-1.44333 2.20285,-2.21068 2.22319,-1.70524 0.0203,0.50543 1.34977,-0.64118 2.95429,-2.54804 1.60452,-1.90687 3.2007,-3.18363 3.54708,-2.83726 0.86975,0.86976 11.32114,-9.56811 11.32114,-11.30652 0,-0.77311 1.24626,-2.22223 2.76945,-3.22026 1.52319,-0.99804 2.51886,-2.22006 2.2126,-2.71561 -0.30626,-0.49555 0.72425,-1.9087 2.29004,-3.14035 1.56578,-1.23165 2.70513,-2.39719 2.5319,-2.5901 -0.54772,-0.6099 3.15258,-5.36499 3.7275,-4.79006 0.3018,0.3018 0.54873,-0.11535 0.54873,-0.92701 0,-2.00882 6.87023,-11.86341 8.27071,-11.86341 0.61808,0 0.82591,-0.48197 0.46184,-1.07105 -0.36407,-0.58908 0.35674,-2.08973 1.6018,-3.33479 1.24506,-1.24505 2.00078,-2.26374 1.67939,-2.26374 -0.32138,0 0.19167,-1.50065 1.14014,-3.33478 0.94847,-1.83414 2.24138,-3.33479 2.87314,-3.33479 0.63176,0 0.8395,-0.50022 0.46165,-1.1116 -0.37785,-0.61137 -0.0739,-1.11159 0.67546,-1.11159 0.74936,0 1.04217,-0.3203 0.6507,-0.71177 -0.85475,-0.85475 2.64518,-7.0694 3.98129,-7.0694 0.51564,0 0.62838,-0.50022 0.25053,-1.1116 -0.37785,-0.61138 -0.12775,-1.11159 0.5558,-1.11159 0.68354,0 0.93365,-0.50022 0.5558,-1.1116 -0.37786,-0.61138 -0.12775,-1.1116 0.55579,-1.1116 0.68355,0 0.93365,-0.50021 0.5558,-1.11159 -0.37785,-0.61138 -0.12774,-1.1116 0.5558,-1.1116 0.68354,0 0.93365,-0.50022 0.5558,-1.11159 -0.37786,-0.61138 -0.12775,-1.1116 0.55579,-1.1116 0.68355,0 0.93366,-0.50022 0.5558,-1.1116 -0.37785,-0.61137 -0.12774,-1.11159 0.5558,-1.11159 0.68354,0 0.93365,-0.50022 0.5558,-1.1116 -0.37786,-0.61137 -0.12775,-1.11159 0.5558,-1.11159 0.68354,0 0.93365,-0.50022 0.55579,-1.1116 -0.37785,-0.61138 -0.12774,-1.11159 0.5558,-1.11159 0.68354,0 0.96868,-0.44354 0.63365,-0.98565 -0.69849,-1.13016 1.36634,-3.10341 3.81655,-3.64727 0.91496,-0.2031 1.9587,-0.76949 2.3194,-1.25865 0.36069,-0.48916 1.73629,-0.97077 3.05689,-1.07025 1.32058,-0.0995 2.40107,-0.60415 2.40107,-1.12151 0,-0.51736 0.50021,-0.6315 1.11159,-0.25364 0.61138,0.37785 1.1116,0.12774 1.1116,-0.5558 0,-0.68354 0.50022,-0.93365 1.11159,-0.5558 0.61138,0.37785 1.1116,0.24277 1.1116,-0.30018 0,-1.17039 10.35579,-6.18413 12.77321,-6.18413 0.92265,0 1.67754,-0.44637 1.67754,-0.99193 0,-0.54556 0.50021,-0.68278 1.11159,-0.30493 0.61138,0.37785 1.1116,0.12774 1.1116,-0.5558 0,-0.68354 0.50022,-0.93365 1.11159,-0.5558 0.61138,0.37786 1.1116,0.12775 1.1116,-0.55579 0,-0.68354 0.50022,-0.93365 1.11159,-0.5558 0.61138,0.37785 1.1116,0.24277 1.1116,-0.30018 0,-1.1704 10.35579,-6.18413 12.77321,-6.18413 0.92265,0 1.67754,-0.44637 1.67754,-0.99193 0,-0.54557 0.50021,-0.68278 1.11159,-0.30493 0.61138,0.37785 1.1116,0.12774 1.1116,-0.5558 0,-0.68354 0.50837,-0.92861 1.12972,-0.54459 0.62135,0.38401 0.86835,1.12114 0.54888,1.63805 -0.31948,0.51692 -0.0559,1.11481 0.58557,1.32866 0.64154,0.21384 1.32753,1.63217 1.52442,3.15183 0.19689,1.51966 0.93966,4.20799 1.65059,5.97407 0.71092,1.76608 1.02739,3.47625 0.70327,3.80038 -0.32413,0.32413 0.23962,1.5053 1.25278,2.62482 1.29541,1.43142 1.42069,2.0355 0.42211,2.0355 -1.11719,0 -1.13352,0.34517 -0.0766,1.6187 0.73887,0.89029 1.04207,2.10627 0.67377,2.70219 -0.36829,0.59591 -0.12715,1.41875 0.53588,1.82852 0.66303,0.40978 0.94315,1.42876 0.62248,2.2644 -0.32067,0.83565 -0.0706,1.83609 0.5558,2.2232 0.62635,0.3871 0.8937,1.34261 0.59412,2.12333 -0.2996,0.78073 -0.13701,1.85562 0.36131,2.38865 1.1682,1.24958 3.59194,12.78612 2.84353,13.53454 -0.31307,0.31307 -0.0143,1.23784 0.66393,2.05506 0.67823,0.81722 0.97096,2.48845 0.65051,3.71386 -0.32045,1.2254 -0.11624,2.51625 0.4538,2.86855 0.57003,0.3523 1.04846,2.22862 1.06319,4.16959 0.0147,1.94098 0.3326,6.53035 0.70639,10.19862 0.93732,9.19873 0.95581,40.60022 0.0293,49.87275 -0.41939,4.19766 -1.27154,8.24544 -1.89367,8.99504 -0.62212,0.74962 -0.82357,1.67051 -0.44766,2.04642 0.37592,0.37592 0.30581,1.58043 -0.15579,2.67671 -0.46161,1.09628 -1.03223,3.49389 -1.26805,5.32802 -0.23583,1.83414 -0.9235,3.50256 -1.52817,3.70763 -0.60466,0.20507 -0.83043,0.80803 -0.50171,1.33992 0.70571,1.14185 -4.78951,14.6527 -6.36169,15.64125 -0.59488,0.37405 -1.01704,1.12438 -0.93815,1.66739 0.23296,1.60347 -4.444,9.32429 -5.64827,9.32429 -0.60834,0 -0.79473,0.50376 -0.41421,1.11945 0.38051,0.6157 -0.0901,1.41954 -1.046,1.78632 -0.95582,0.36678 -1.73785,1.07356 -1.73785,1.57062 0,0.93078 -13.45691,14.87365 -14.45074,14.97258 -0.30569,0.0305 -1.99433,1.41 -3.75254,3.06571 -1.7582,1.65571 -3.63402,2.74011 -4.16849,2.4098 -0.53445,-0.33032 -0.97174,0.0126 -0.97174,0.76189 0,0.74936 -0.30336,1.05911 -0.67413,0.68833 -0.37077,-0.37076 -1.71564,0.2962 -2.98859,1.48214 -2.07724,1.93523 -4.20199,2.66961 -6.61954,2.28789 -0.45854,-0.0724 -0.8337,0.30357 -0.8337,0.83549 0,0.93059 -8.5324,3.74235 -12.16941,4.0103 -0.97054,0.0715 -2.50616,0.58978 -3.41247,1.15173 -2.02628,1.25636 -35.78884,2.20848 -36.92536,1.0413 l 3e-5,0 z"
     id="path6666"
     inkscape:connector-curvature="0"
     transform="translate(-362,-388)" />
  <g
     id="g5450"
     transform="translate(-155.62341,32.236278)">
    <rect
       transform="scale(1,-1)"
       y="-273.96512"
       x="276.056"
       height="73.365326"
       width="73.365326"
       id="rect5343-4-08"
       style="fill:#ffffff;fill-opacity:1;stroke:#b3b3b3;stroke-width:0;stroke-miterlimit:4;stroke-opacity:1;stroke-dasharray:none;stroke-dashoffset:0" />
    <text
       sodipodi:linespacing="125%"
       id="text3130"
       y="251.86244"
       x="292.90555"
       style="font-size:28px;font-style:normal;font-variant:normal;font-weight:normal;font-stretch:normal;line-height:125%;letter-spacing:0px;word-spacing:0px;fill:#000000;fill-opacity:1;stroke:none;font-family:TeX Gyre Heros;-inkscape-font-specification:TeX Gyre Heros"
       xml:space="preserve"><tspan
         style="font-size:40px"
         y="251.86244"
         x="292.90555"
         id="tspan3132"
         sodipodi:role="line">NI</tspan></text>
  </g>
  <path
     style="fill:url(#Strips1_1.5white);fill-opacity:1.0;stroke:#666666;stroke-width:0;stroke-miterlimit:4;stroke-opacity:1;stroke-dasharray:none;stroke-dashoffset:0"
     d="m 534.61955,503.62337 c 0,-1.11701 0.77547,-4.12059 7.04531,-27.28833 2.15093,-7.94791 4.48254,-16.63719 5.18137,-19.3095 1.2372,-4.73111 1.31451,-4.79604 2.94267,-2.47152 2.14882,3.06788 15.95534,35.20144 15.95534,37.13478 0,1.78259 -5.05521,4.28215 -18.67438,9.23361 -11.11447,4.04083 -12.45031,4.33062 -12.45031,2.70096 z"
     id="path6678"
     inkscape:connector-curvature="0"
     transform="translate(-362,-388)" />
  <path
     style="fill:#000000;fill-opacity:1;stroke:#666666;stroke-width:0;stroke-miterlimit:4;stroke-opacity:1;stroke-dasharray:none;stroke-dashoffset:0"
     d="m 404.56284,514.58086 c -27.4231,-2.36337 -59.88846,-7.80435 -88.37187,-14.81056 -13.81778,-3.39883 -47.76606,-13.25098 -54.91813,-15.93782 -2.26108,-0.84942 -3.06899,-2.61842 -5.24128,-11.4762 -10.48118,-42.73834 -16.58076,-95.09637 -15.78851,-135.52652 l 0.35941,-18.34133 16.11814,-9.70302 c 20.16481,-12.13909 52.89587,-28.41741 76.14431,-37.86927 19.31656,-7.85332 53.00109,-19.689 55.96195,-19.66325 5.02283,0.0437 47.99503,41.05433 71.03379,67.79134 13.3891,15.53834 30.43299,37.1523 37.86912,48.02317 l 3.5753,5.22672 -4.01581,9.77982 c -14.98025,36.48182 -36.98639,76.49584 -61.62124,112.04663 -12.9209,18.64627 -15.50981,21.70286 -18.22996,21.52325 -1.27328,-0.0841 -7.06713,-0.56241 -12.87522,-1.06296 z"
     id="path6686"
     inkscape:connector-curvature="0"
     transform="translate(-362,-388)" />
  <path
     style="fill:#000000;fill-opacity:1;stroke:#666666;stroke-width:0;stroke-miterlimit:4;stroke-opacity:1;stroke-dasharray:none;stroke-dashoffset:0"
     d="m 297.88462,577.96533 c -6.64106,-10.275 -19.30234,-36.56467 -25.39033,-52.72008 -6.05774,-16.07508 -12.82072,-37.22717 -12.12511,-37.92279 0.24805,-0.24805 2.65496,0.32957 5.34869,1.2836 38.69737,13.70536 99.81641,26.42747 139.19152,28.97313 6.53455,0.42247 11.88101,1.1619 11.88101,1.64318 0,3.46419 -50.16897,60.23815 -54.42333,61.58843 -3.17948,1.00913 -40.29547,3.87613 -50.36882,3.89072 l -9.75071,0.0141 -4.36292,-6.7503 z"
     id="path6688"
     inkscape:connector-curvature="0"
     transform="translate(-362,-388)" />
  <path
     style="fill:#000000;fill-opacity:1;stroke:#666666;stroke-width:0;stroke-miterlimit:4;stroke-opacity:1;stroke-dasharray:none;stroke-dashoffset:0"
     d="m 246.71623,478.53807 c -11.02568,-3.82743 -40.14673,-16.23636 -54.66066,-23.29175 l -12.97581,-6.30769 -4.43707,-10.20111 c -7.98958,-18.36853 -10.433,-24.50184 -14.21955,-35.69293 -3.54963,-10.49084 -3.64578,-11.18331 -1.9295,-13.89495 0.99347,-1.56963 8.86957,-9.89098 17.50245,-18.49191 15.68574,-15.62767 34.25906,-31.19557 51.54512,-43.2044 l 9.17066,-6.37098 0,18.73713 c 0,39.60544 6.04293,90.9739 15.1892,129.1171 1.51648,6.32427 2.59598,11.63615 2.39889,11.80418 -0.19709,0.16804 -3.60977,-0.82317 -7.58373,-2.20269 z"
     id="path6690"
     inkscape:connector-curvature="0"
     transform="translate(-362,-388)" />
  <path
     style="fill:#000000;fill-opacity:1;stroke:#666666;stroke-width:0;stroke-miterlimit:4;stroke-opacity:1;stroke-dasharray:none;stroke-dashoffset:0"
     d="m 273.73033,583.68167 c -7.65986,-0.60641 -8.1616,-0.82312 -11.76185,-5.07982 -14.07226,-16.63817 -35.05818,-45.80863 -49.02961,-68.15124 -13.18461,-21.08435 -32.0449,-55.79169 -30.31772,-55.79169 0.22403,0 6.33519,2.7961 13.58036,6.21355 14.61127,6.89194 40.33,17.59902 51.93336,21.6206 l 7.53241,2.61065 3.94593,12.84539 c 9.69129,31.54851 24.30833,64.9596 36.86535,84.26543 l 1.62677,2.50109 -8.18691,-0.20027 c -4.50281,-0.11015 -11.78745,-0.48531 -16.18809,-0.83369 z"
     id="path6692"
     inkscape:connector-curvature="0"
     transform="translate(-362,-388)" />
  <path
     style="fill:#000000;fill-opacity:1;stroke:#666666;stroke-width:0;stroke-miterlimit:4;stroke-opacity:1;stroke-dasharray:none;stroke-dashoffset:0"
     d="m 490.11719,351.0339 c -25.04938,-33.29358 -57.3029,-68.23308 -84.55587,-91.59745 l -11.78488,-10.10335 8.45009,-2.36834 c 16.51537,-4.62882 36.30637,-9.24132 53.64459,-12.50244 16.81686,-3.16304 17.73838,-3.22621 21.2084,-1.45375 6.44856,3.29387 28.92545,17.25192 38.9208,24.16964 l 9.72647,6.73162 -0.0204,5.61318 c -0.0648,17.84883 -9.21522,59.81153 -19.2226,88.15195 l -3.63178,10.28504 -12.73485,-16.9261 -2e-5,0 z"
     id="path6694"
     inkscape:connector-curvature="0"
     transform="translate(-362,-388)" />
  <path
     style="fill:#000000;fill-opacity:1;stroke:#666666;stroke-width:0;stroke-miterlimit:4;stroke-opacity:1;stroke-dasharray:none;stroke-dashoffset:0"
     d="m 164.44197,440.92344 c -12.1136,-6.67933 -27.60442,-16.21598 -28.38074,-17.47208 -0.68376,-1.10634 9.27266,-17.64842 14.83529,-24.64809 l 3.08381,-3.88046 3.15778,9.02563 c 1.73678,4.9641 6.09969,16.23258 9.69536,25.04107 3.59567,8.80849 6.40799,16.13341 6.24961,16.27761 -0.15838,0.14419 -4.04688,-1.81046 -8.64111,-4.34368 z"
     id="path6698"
     inkscape:connector-curvature="0"
     transform="translate(-362,-388)" />
  <path
     style="fill:#666666;fill-opacity:1;stroke:#666666;stroke-width:2;stroke-miterlimit:4;stroke-opacity:1;stroke-dasharray:none;stroke-dashoffset:0"
     d="m 527.60142,221.50169 c -0.26388,-0.45853 -0.8326,-3.2653 -1.26383,-6.23727 -1.10916,-7.64409 -5.60912,-20.99818 -10.27224,-30.48396 -11.63086,-23.65964 -31.1261,-39.71335 -56.47851,-46.50826 -6.31418,-1.6923 -11.65824,-2.07881 -28.3457,-2.05005 -18.83358,0.0325 -21.64051,0.3029 -33.34787,3.21313 -21.85538,5.43286 -45.24,14.79221 -64.66199,25.88 l -8.52639,4.86761 -8.70334,-2.19761 c -9.54434,-2.40997 -44.91152,-9.01085 -48.27967,-9.01085 -1.15968,0 -2.10852,-0.44614 -2.10852,-0.99144 0,-0.54528 2.43965,-7.42328 5.42144,-15.28444 17.00252,-44.825241 35.40321,-74.967485 60.32415,-98.817251 18.43985,-17.647259 36.61923,-26.924215 58.03303,-29.614318 23.37783,-2.936834 46.77083,5.32538 70.08256,24.752576 37.47794,31.232826 71.36215,100.645453 85.59535,175.344143 l 1.51894,7.97169 -9.25383,0 c -5.08959,0 -9.46971,-0.37516 -9.73358,-0.8337 z"
     id="path6700"
     inkscape:connector-curvature="0"
     transform="translate(-362,-388)" />
  <g
     id="g5440"
     transform="translate(-204.53363,-16.673938)">
    <rect
       transform="scale(1,-1)"
       y="254.04288"
       x="203.80226"
       height="73.365326"
       width="73.365326"
       id="rect5343-4-0"
       style="fill:#ffffff;fill-opacity:1;stroke:#b3b3b3;stroke-width:0;stroke-miterlimit:4;stroke-opacity:1;stroke-dasharray:none;stroke-dashoffset:0" />
    <text
       sodipodi:linespacing="125%"
       id="text3118"
       y="-276.14554"
       x="207.47336"
       style="font-size:28px;font-style:normal;font-variant:normal;font-weight:normal;font-stretch:normal;line-height:125%;letter-spacing:0px;word-spacing:0px;fill:#000000;fill-opacity:1;stroke:none;font-family:TeX Gyre Heros;-inkscape-font-specification:TeX Gyre Heros"
       xml:space="preserve"><tspan
         style="font-size:40px"
         y="-276.14554"
         x="207.47336"
         id="tspan3120"
         sodipodi:role="line">BW</tspan></text>
  </g>
  <path
     style="fill:#666666;fill-opacity:1;stroke:#666666;stroke-width:2.22319174;stroke-miterlimit:4;stroke-opacity:1;stroke-dasharray:none;stroke-dashoffset:0"
     d="m 150.69696,372.1697 -4.18281,-15.56255 11.84661,-17.68128 c 13.16068,-19.64257 29.85518,-41.70615 45.17093,-59.69828 10.7757,-12.65871 38.67394,-41.76461 39.36722,-41.07133 0.22832,0.22832 -0.53092,8.142 -1.68721,17.58594 -1.1563,9.44394 -2.69492,26.67494 -3.41916,38.29112 -0.72424,11.61618 -1.4728,21.67971 -1.66347,22.36341 -0.19066,0.6837 -5.26477,4.65386 -11.27579,8.82257 -21.89157,15.18205 -44.90683,35.17447 -62.1804,54.01354 l -7.79311,8.4994 -4.18281,-15.56254 0,0 z"
     id="path6724"
     inkscape:connector-curvature="0"
     transform="translate(-362,-388)" />
  <path
     style="fill:#666666;fill-opacity:1;stroke:#666666;stroke-width:2.22319174;stroke-miterlimit:4;stroke-opacity:1;stroke-dasharray:none;stroke-dashoffset:0"
     d="m 240.0698,308.24527 c 0.0574,-15.94381 5.57695,-69.17062 7.71026,-74.35199 1.1169,-2.71274 18.85209,-18.36215 35.47045,-31.29889 l 11.52336,-8.97049 4.03898,1.46784 c 13.14837,4.77837 39.02048,18.70792 57.39557,30.90177 11.21599,7.44302 29.46928,21.02009 29.43478,21.89404 -0.0123,0.31369 -6.89038,2.81568 -15.28444,5.55999 -38.84416,12.6995 -91.1235,36.67517 -119.36825,54.74312 -11.58972,7.41386 -10.94718,7.41064 -10.92071,0.0546 l 0,3e-5 z"
     id="path6726"
     inkscape:connector-curvature="0"
     transform="translate(-362,-388)" />
  <path
     style="fill:#666666;fill-opacity:1;stroke:#666666;stroke-width:2.22319174;stroke-miterlimit:4;stroke-opacity:1;stroke-dasharray:none;stroke-dashoffset:0"
     d="m 381.77513,239.94682 c -17.31316,-13.21097 -42.46618,-28.98705 -60.97889,-38.24619 -10.31304,-5.15808 -19.44489,-9.37833 -20.29299,-9.37833 -3.26481,0 -1.06332,-1.95451 11.56702,-10.26936 l 13.06648,-8.60197 9.97786,2.67166 c 44.81071,11.99842 91.85545,30.10313 127.57434,49.09572 l 6.46719,3.43876 -13.12162,2.44756 c -16.03613,2.99119 -47.21043,10.3111 -57.02966,13.39091 -3.97395,1.24643 -7.47548,2.25965 -7.78117,2.25159 -0.30569,-0.008 -4.55754,-3.06821 -9.44856,-6.80035 z"
     id="path6728"
     inkscape:connector-curvature="0"
     transform="translate(-362,-388)" />
  <path
     style="fill:#666666;fill-opacity:1;stroke:#666666;stroke-width:2.22319174;stroke-miterlimit:4;stroke-opacity:1;stroke-dasharray:none;stroke-dashoffset:0"
     d="m 288.5321,187.84156 c -2.98483,-1.14701 -10.73821,-3.4442 -17.22974,-5.10486 -6.49152,-1.66066 -11.91357,-3.08695 -12.04899,-3.16952 -0.13542,-0.0826 0.88345,-3.87434 2.26416,-8.42615 2.25766,-7.44288 2.81548,-8.31157 5.54113,-8.62918 2.96043,-0.34497 40.44548,6.36535 48.9898,8.76983 l 4.30386,1.21116 -10.41764,6.94713 c -17.53992,11.69672 -15.20894,10.78169 -21.40258,8.40159 z"
     id="path6730"
     inkscape:connector-curvature="0"
     transform="translate(-362,-388)" />
  <path
     style="fill:#666666;fill-opacity:1;stroke:#666666;stroke-width:2.22319174;stroke-miterlimit:4;stroke-opacity:1;stroke-dasharray:none;stroke-dashoffset:0"
     d="m 248.93943,225.92886 c 0,-2.35993 2.61837,-15.32123 5.74746,-28.45066 l 3.40735,-14.29703 3.94906,0.64085 c 6.40668,1.03966 28.02517,7.60396 28.02517,8.50965 0,0.45807 -3.68035,3.60291 -8.17855,6.98853 -4.4982,3.38562 -13.75224,10.97404 -20.56452,16.86315 -6.81229,5.88912 -12.38597,10.2746 -12.38597,9.74551 z"
     id="path6732"
     inkscape:connector-curvature="0"
     transform="translate(-362,-388)" />
  <path
     style="fill:#666666;fill-opacity:1;stroke:#666666;stroke-width:2.22319174;stroke-miterlimit:4;stroke-opacity:1;stroke-dasharray:none;stroke-dashoffset:0"
     d="m 124.281,416.16259 -7.38506,-5.10776 2.27978,-5.15416 c 2.50632,-5.6663 16.76291,-31.65983 21.82532,-39.79331 2.61925,-4.20821 3.30861,-4.7577 3.80775,-3.03519 0.33522,1.1568 2.2221,7.9562 4.19307,15.10977 l 3.58358,13.00649 -4.5053,5.89064 c -2.47791,3.23985 -7.10978,10.01744 -10.29304,15.06131 -3.18326,5.04386 -5.86273,9.16151 -5.95439,9.15032 -0.0916,-0.0112 -3.48992,-2.31884 -7.55171,-5.12811 z"
     id="path6734"
     inkscape:connector-curvature="0"
     transform="translate(-362,-388)" />
  <path
     style="fill:#666666;fill-opacity:1;stroke:#666666;stroke-width:2.22319174;stroke-miterlimit:4;stroke-opacity:1;stroke-dasharray:none;stroke-dashoffset:0"
     d="m 522.40269,537.67283 c 0.006,-0.11001 2.44442,-6.66553 5.41899,-14.56782 l 5.4083,-14.36779 10.42125,-3.50782 c 5.73169,-1.9293 13.52171,-4.79731 17.31116,-6.37336 l 6.88991,-2.86555 2.95132,8.862 c 1.62323,4.87411 2.7388,9.07453 2.47905,9.33427 -1.66414,1.66415 -50.92908,24.40471 -50.87998,23.48607 z"
     id="path6736"
     inkscape:connector-curvature="0"
     transform="translate(-362,-388)" />
  <path
     style="fill:#666666;fill-opacity:1;stroke:#666666;stroke-width:2.22319174;stroke-miterlimit:4;stroke-opacity:1;stroke-dasharray:none;stroke-dashoffset:0"
     d="m 381.01183,567.19618 c 13.24241,-14.18789 29.457,-33.13046 36.04308,-42.10705 l 4.1551,-5.66325 29.74857,-0.63572 c 30.20261,-0.64543 44.92724,-2.07218 65.68871,-6.36493 6.31677,-1.30609 11.70068,-2.15906 11.96425,-1.89549 0.26358,0.26357 -0.20455,2.18173 -1.04027,4.26258 -0.83571,2.08085 -3.36635,8.61956 -5.62362,14.53047 -3.3905,8.87839 -4.6268,10.94127 -7.10998,11.86371 -56.70436,21.06438 -87.32023,29.32297 -142.86889,38.53872 -2.73285,0.45339 -1.56839,-1.15996 9.04305,-12.52904 z"
     id="path6738"
     inkscape:connector-curvature="0"
     transform="translate(-362,-388)" />
  <path
     style="fill:#666666;fill-opacity:1;stroke:#666666;stroke-width:2.22319174;stroke-miterlimit:4;stroke-opacity:1;stroke-dasharray:none;stroke-dashoffset:0"
     d="m 317.12199,605.00225 c -4.27498,-5.34955 -8.8319,-11.26563 -10.12649,-13.14684 l -2.35381,-3.42039 23.00438,-1.35919 c 12.65241,-0.74756 24.96293,-1.66158 27.35673,-2.03117 l 4.35235,-0.67198 -8.24294,7.7839 c -9.18117,8.66989 -25.04511,22.57214 -25.7572,22.57214 -0.25319,0 -3.95805,-4.37691 -8.23302,-9.72647 z"
     id="path6740"
     inkscape:connector-curvature="0"
     transform="translate(-362,-388)" />
  <path
     style="fill:#666666;fill-opacity:1;stroke:#666666;stroke-width:2.22319174;stroke-miterlimit:4;stroke-opacity:1;stroke-dasharray:none;stroke-dashoffset:0"
     d="m 291.99772,612.22763 c -18.70649,-19.81781 -22.40219,-24.08353 -21.5787,-24.90702 0.36032,-0.36032 7.33143,-0.29755 15.49134,0.13949 l 14.83621,0.79462 3.06607,4.84641 c 1.68634,2.66553 6.53693,9.07984 10.77909,14.25402 4.24216,5.17418 7.71302,9.60379 7.71302,9.84358 0,0.5597 -14.02094,10.86914 -14.78214,10.86914 -0.3151,0 -7.3013,-7.12811 -15.52489,-15.84024 z"
     id="path6742"
     inkscape:connector-curvature="0"
     transform="translate(-362,-388)" />
  <path
     style="fill:#b3b3b3;fill-opacity:1;stroke:#b3b3b3;stroke-width:2.22319173999999986;stroke-miterlimit:4;stroke-opacity:1;stroke-dasharray:none;stroke-dashoffset:0"
     d="m 436.15293,515.79669 -11.20635,-0.5558 9.84352,-13.89495 c 23.39661,-33.02628 48.77743,-77.70221 61.4009,-108.07931 2.10136,-5.05673 4.63934,-11.13747 5.63995,-13.51276 l 1.81929,-4.31871 4.7532,7.0977 c 8.36651,12.49328 19.60753,31.10351 28.66114,47.45035 l 8.80477,15.89753 -1.27405,6.33438 c -3.95807,19.67909 -12.67803,51.06851 -14.79197,53.24696 -1.85858,1.91529 -26.33964,6.54776 -45.20559,8.55409 -19.04902,2.0258 -33.09241,2.54195 -48.44481,1.78052 z"
     id="path6744"
     inkscape:connector-curvature="0"
     transform="translate(-362,-388)" />
  <path
     style="fill:#b3b3b3;fill-opacity:1;stroke:#b3b3b3;stroke-width:2.22319174;stroke-miterlimit:4;stroke-opacity:1;stroke-dasharray:none;stroke-dashoffset:0"
     d="m 540.83298,429.86345 c -6.90027,-12.92636 -20.23115,-35.12848 -28.63675,-47.69352 -3.56299,-5.3261 -6.47817,-10.39378 -6.47817,-11.26151 0,-0.86773 1.28398,-4.9889 2.85328,-9.15816 8.23946,-21.89022 16.1362,-54.69148 19.21146,-79.79998 l 1.88835,-15.41783 12.18467,9.87742 c 10.85909,8.80286 12.27469,10.35924 13.01219,14.30624 1.56603,8.38116 1.09399,72.39121 -0.68436,92.80067 -1.77333,20.35182 -5.73742,50.73344 -7.1002,54.41739 -0.63493,1.71636 -1.89346,0.0914 -6.25047,-8.07072 z"
     id="path6746"
     inkscape:connector-curvature="0"
     transform="translate(-362,-388)" />
  <path
     style="fill:#b3b3b3;fill-opacity:1;stroke:#b3b3b3;stroke-width:2.22319174;stroke-miterlimit:4;stroke-opacity:1;stroke-dasharray:none;stroke-dashoffset:0"
     d="m 541.93759,272.25705 -12.1349,-9.89007 -0.35848,-16.32316 c -0.19716,-8.97774 -0.65409,-17.25458 -1.01541,-18.39298 -0.61174,-1.92743 0.0164,-2.04763 9.13052,-1.74734 l 9.78745,0.32247 0.85175,5.00219 c 1.73805,10.20726 6.6486,51.28724 6.09949,51.02619 -0.12404,-0.059 -5.68623,-4.55776 -12.36042,-9.9973 l 0,0 z"
     id="path6748"
     inkscape:connector-curvature="0"
     transform="translate(-362,-388)" />
  <path
     style="fill:url(#Strips1_1.5white);fill-opacity:1.0;stroke:#666666;stroke-width:0;stroke-miterlimit:4;stroke-opacity:1;stroke-dasharray:none;stroke-dashoffset:0"
     d="m 524.03707,531.63693 c 8.95429,-25.09301 6.77006,-22.52525 24.75106,-29.09713 8.65334,-3.1627 16.5716,-6.02434 17.59614,-6.35918 1.50813,-0.49289 2.41538,1.14047 4.76523,8.57903 2.30645,7.30124 2.60871,9.39259 1.47199,10.18502 -3.61024,2.51678 -48.34026,23.08394 -50.20357,23.08394 -0.36392,0 0.3647,-2.87626 1.61915,-6.39168 z"
     id="path3060"
     inkscape:connector-curvature="0"
     transform="translate(-362,-388)" />
</svg>
